<svg aria-roledescription="flowchart-v2" role="graphics-document document" viewBox="-8 -8 1036.2109375 1757.800048828125" style="max-width: 1036.21px; background-color: white;" xmlns:xlink="http://www.w3.org/1999/xlink" xmlns="http://www.w3.org/2000/svg" width="100%" id="my-svg"><style>#my-svg{font-family:"trebuchet ms",verdana,arial,sans-serif;font-size:16px;fill:#333;}#my-svg .error-icon{fill:#552222;}#my-svg .error-text{fill:#552222;stroke:#552222;}#my-svg .edge-thickness-normal{stroke-width:2px;}#my-svg .edge-thickness-thick{stroke-width:3.5px;}#my-svg .edge-pattern-solid{stroke-dasharray:0;}#my-svg .edge-pattern-dashed{stroke-dasharray:3;}#my-svg .edge-pattern-dotted{stroke-dasharray:2;}#my-svg .marker{fill:#333333;stroke:#333333;}#my-svg .marker.cross{stroke:#333333;}#my-svg svg{font-family:"trebuchet ms",verdana,arial,sans-serif;font-size:16px;}#my-svg .label{font-family:"trebuchet ms",verdana,arial,sans-serif;color:#333;}#my-svg .cluster-label text{fill:#333;}#my-svg .cluster-label span,#my-svg p{color:#333;}#my-svg .label text,#my-svg span,#my-svg p{fill:#333;color:#333;}#my-svg .node rect,#my-svg .node circle,#my-svg .node ellipse,#my-svg .node polygon,#my-svg .node path{fill:#ECECFF;stroke:#9370DB;stroke-width:1px;}#my-svg .flowchart-label text{text-anchor:middle;}#my-svg .node .katex path{fill:#000;stroke:#000;stroke-width:1px;}#my-svg .node .label{text-align:center;}#my-svg .node.clickable{cursor:pointer;}#my-svg .arrowheadPath{fill:#333333;}#my-svg .edgePath .path{stroke:#333333;stroke-width:2.0px;}#my-svg .flowchart-link{stroke:#333333;fill:none;}#my-svg .edgeLabel{background-color:#e8e8e8;text-align:center;}#my-svg .edgeLabel rect{opacity:0.5;background-color:#e8e8e8;fill:#e8e8e8;}#my-svg .labelBkg{background-color:rgba(232, 232, 232, 0.5);}#my-svg .cluster rect{fill:#ffffde;stroke:#aaaa33;stroke-width:1px;}#my-svg .cluster text{fill:#333;}#my-svg .cluster span,#my-svg p{color:#333;}#my-svg div.mermaidTooltip{position:absolute;text-align:center;max-width:200px;padding:2px;font-family:"trebuchet ms",verdana,arial,sans-serif;font-size:12px;background:hsl(80, 100%, 96.2745098039%);border:1px solid #aaaa33;border-radius:2px;pointer-events:none;z-index:100;}#my-svg .flowchartTitleText{text-anchor:middle;font-size:18px;fill:#333;}#my-svg :root{--mermaid-font-family:"trebuchet ms",verdana,arial,sans-serif;}#my-svg .input rect{fill:#ffffb3!important;}#my-svg .input polygon{fill:#ffffb3!important;}#my-svg .input ellipse{fill:#ffffb3!important;}#my-svg .input circle{fill:#ffffb3!important;}#my-svg .input path{fill:#ffffb3!important;}#my-svg .output rect{fill:#b3de69!important;}#my-svg .output polygon{fill:#b3de69!important;}#my-svg .output ellipse{fill:#b3de69!important;}#my-svg .output circle{fill:#b3de69!important;}#my-svg .output path{fill:#b3de69!important;}#my-svg .gatk rect{fill:#bebada!important;}#my-svg .gatk polygon{fill:#bebada!important;}#my-svg .gatk ellipse{fill:#bebada!important;}#my-svg .gatk circle{fill:#bebada!important;}#my-svg .gatk path{fill:#bebada!important;}#my-svg .bcftools rect{fill:#fdb462!important;}#my-svg .bcftools polygon{fill:#fdb462!important;}#my-svg .bcftools ellipse{fill:#fdb462!important;}#my-svg .bcftools circle{fill:#fdb462!important;}#my-svg .bcftools path{fill:#fdb462!important;}#my-svg .R rect{fill:#8dd3c7!important;}#my-svg .R polygon{fill:#8dd3c7!important;}#my-svg .R ellipse{fill:#8dd3c7!important;}#my-svg .R circle{fill:#8dd3c7!important;}#my-svg .R path{fill:#8dd3c7!important;}#my-svg .linux rect{fill:#fb8072!important;}#my-svg .linux polygon{fill:#fb8072!important;}#my-svg .linux ellipse{fill:#fb8072!important;}#my-svg .linux circle{fill:#fb8072!important;}#my-svg .linux path{fill:#fb8072!important;}</style><g><marker orient="auto" markerHeight="12" markerWidth="12" markerUnits="userSpaceOnUse" refY="5" refX="6" viewBox="0 0 10 10" class="marker flowchart" id="my-svg_flowchart-pointEnd"><path style="stroke-width: 1; stroke-dasharray: 1, 0;" class="arrowMarkerPath" d="M 0 0 L 10 5 L 0 10 z"/></marker><marker orient="auto" markerHeight="12" markerWidth="12" markerUnits="userSpaceOnUse" refY="5" refX="4.5" viewBox="0 0 10 10" class="marker flowchart" id="my-svg_flowchart-pointStart"><path style="stroke-width: 1; stroke-dasharray: 1, 0;" class="arrowMarkerPath" d="M 0 5 L 10 10 L 10 0 z"/></marker><marker orient="auto" markerHeight="11" markerWidth="11" markerUnits="userSpaceOnUse" refY="5" refX="11" viewBox="0 0 10 10" class="marker flowchart" id="my-svg_flowchart-circleEnd"><circle style="stroke-width: 1; stroke-dasharray: 1, 0;" class="arrowMarkerPath" r="5" cy="5" cx="5"/></marker><marker orient="auto" markerHeight="11" markerWidth="11" markerUnits="userSpaceOnUse" refY="5" refX="-1" viewBox="0 0 10 10" class="marker flowchart" id="my-svg_flowchart-circleStart"><circle style="stroke-width: 1; stroke-dasharray: 1, 0;" class="arrowMarkerPath" r="5" cy="5" cx="5"/></marker><marker orient="auto" markerHeight="11" markerWidth="11" markerUnits="userSpaceOnUse" refY="5.2" refX="12" viewBox="0 0 11 11" class="marker cross flowchart" id="my-svg_flowchart-crossEnd"><path style="stroke-width: 2; stroke-dasharray: 1, 0;" class="arrowMarkerPath" d="M 1,1 l 9,9 M 10,1 l -9,9"/></marker><marker orient="auto" markerHeight="11" markerWidth="11" markerUnits="userSpaceOnUse" refY="5.2" refX="-1" viewBox="0 0 11 11" class="marker cross flowchart" id="my-svg_flowchart-crossStart"><path style="stroke-width: 2; stroke-dasharray: 1, 0;" class="arrowMarkerPath" d="M 1,1 l 9,9 M 10,1 l -9,9"/></marker><g class="root"><g class="clusters"><g id="Predict Stability" class="cluster default flowchart-label"><rect height="270.5999984741211" width="296.47265625" y="1387.1999969482422" x="420.6171875" ry="0" rx="0" style=""/><g transform="translate(568.853515625, 1387.1999969482422)" class="cluster-label"><g><rect class="background"/><text y="-10.1"><tspan dy="1.1em" y="-0.1em" x="0" class="text-outer-tspan"><tspan font-weight="normal" class="text-inner-tspan" font-style="normal">        </tspan><tspan font-weight="bold" class="text-inner-tspan" font-style="normal"> Predict</tspan><tspan font-weight="bold" class="text-inner-tspan" font-style="normal"> Stability</tspan></tspan></text></g></g></g><g id="SNV" class="cluster default flowchart-label"><rect height="751.1999969482422" width="507.4375" y="506" x="0" ry="0" rx="0" style=""/><g transform="translate(253.71875, 506)" class="cluster-label"><g><rect class="background"/><text y="-10.1"><tspan dy="1.1em" y="-0.1em" x="0" class="text-outer-tspan"><tspan font-weight="bold" class="text-inner-tspan" font-style="normal">SNV</tspan></tspan></text></g></g></g><g id="SV" class="cluster default flowchart-label"><rect height="312.1999969482422" width="470.50390625" y="945" x="549.70703125" ry="0" rx="0" style=""/><g transform="translate(784.958984375, 945)" class="cluster-label"><g><rect class="background"/><text y="-10.1"><tspan dy="1.1em" y="-0.1em" x="0" class="text-outer-tspan"><tspan font-weight="bold" class="text-inner-tspan" font-style="normal">SV</tspan></tspan></text></g></g></g><g id="SNV_liftover" class="cluster default flowchart-label"><rect height="169" width="223.046875" y="531" x="27.267578125" ry="0" rx="0" style=""/><g transform="translate(138.791015625, 531)" class="cluster-label"><g><rect class="background"/><text y="-10.1"><tspan dy="1.1em" y="-0.1em" x="0" class="text-outer-tspan"><tspan font-weight="bold" class="text-inner-tspan" font-style="normal">Liftover</tspan></tspan></text></g></g></g><g id="SNV_annotation" class="cluster default flowchart-label"><rect height="398.1999969482422" width="431.67578125" y="750" x="55.76171875" ry="0" rx="0" style=""/><g transform="translate(271.599609375, 750)" class="cluster-label"><g><rect class="background"/><text y="-10.1"><tspan dy="1.1em" y="-0.1em" x="0" class="text-outer-tspan"><tspan font-weight="bold" class="text-inner-tspan" font-style="normal">Annotation</tspan></tspan></text></g></g></g></g><g class="edgePaths"><path marker-end="url(#my-svg_flowchart-pointEnd)" style="fill:none;" class="edge-thickness-normal edge-pattern-solid flowchart-link LS-input_vcf LE-pipeval" id="L-input_vcf-pipeval-0" d="M612.477,372.5L612.393,376.583C612.31,380.667,612.143,388.833,612.06,396.2C611.977,403.567,611.977,410.133,611.977,413.417L611.977,416.7"/><path marker-end="url(#my-svg_flowchart-pointEnd)" style="fill:none;" class="edge-thickness-normal edge-pattern-solid flowchart-link LS-pipeval LE-sv_vs_snv" id="L-pipeval-sv_vs_snv-0" d="M611.977,456L611.977,460.167C611.977,464.333,611.977,472.667,611.977,481C611.977,489.333,611.977,497.667,611.977,506C611.977,514.333,611.977,522.667,612.043,530.283C612.109,537.9,612.242,544.801,612.308,548.251L612.375,551.701"/><path marker-end="url(#my-svg_flowchart-pointEnd)" style="fill:none;" class="edge-thickness-normal edge-pattern-solid flowchart-link LS-sv_vs_snv LE-r_extract_sv" id="L-sv_vs_snv-r_extract_sv-0" d="M612.477,591L612.393,595.167C612.31,599.333,612.143,607.667,612.06,618.833C611.977,630,611.977,644,611.977,658C611.977,672,611.977,686,611.977,697.167C611.977,708.333,611.977,716.667,611.977,725C611.977,733.333,611.977,741.667,611.977,752.917C611.977,764.167,611.977,778.333,611.977,792.5C611.977,806.667,611.977,820.833,611.977,835C611.977,849.167,611.977,863.333,611.977,877.5C611.977,891.667,611.977,905.833,611.977,917.083C611.977,928.333,611.977,936.667,611.977,949.3C611.977,961.933,611.977,978.867,611.977,995.8C611.977,1012.733,611.977,1029.667,611.977,1046.6C611.977,1063.533,611.977,1080.467,611.977,1097.4C611.977,1114.333,611.977,1131.267,611.977,1143.9C611.977,1156.533,611.977,1164.867,627.198,1172.978C642.419,1181.09,672.861,1188.98,688.082,1192.925L703.303,1196.87"/><path marker-end="url(#my-svg_flowchart-pointEnd)" style="fill:none;stroke-width:2px;stroke-dasharray:3;" class="edge-thickness-normal edge-pattern-dotted flowchart-link LS-header_contigs LE-r_extract_sv" id="L-header_contigs-r_extract_sv-0" d="M720.008,1114.9L720.008,1120.45C720.008,1126,720.008,1137.1,720.008,1146.817C720.008,1156.533,720.008,1164.867,724.669,1172.658C729.331,1180.449,738.653,1187.698,743.315,1191.322L747.976,1194.947"/><path marker-end="url(#my-svg_flowchart-pointEnd)" style="fill:none;stroke-width:2px;stroke-dasharray:3;" class="edge-thickness-normal edge-pattern-dotted flowchart-link LS-chain_file2 LE-r_extract_sv" id="L-chain_file2-r_extract_sv-0" d="M828.039,1013.3L828.039,1018.85C828.039,1024.4,828.039,1035.5,828.039,1049.517C828.039,1063.533,828.039,1080.467,828.039,1097.4C828.039,1114.333,828.039,1131.267,828.039,1143.9C828.039,1156.533,828.039,1164.867,823.378,1172.658C818.716,1180.449,809.394,1187.698,804.732,1191.322L800.071,1194.947"/><path marker-end="url(#my-svg_flowchart-pointEnd)" style="fill:none;stroke-width:2px;stroke-dasharray:3;" class="edge-thickness-normal edge-pattern-dotted flowchart-link LS-gnomad_rds LE-r_extract_sv" id="L-gnomad_rds-r_extract_sv-0" d="M924.125,1114.9L924.125,1120.45C924.125,1126,924.125,1137.1,924.125,1146.817C924.125,1156.533,924.125,1164.867,910.085,1172.962C896.044,1181.057,867.964,1188.915,853.923,1192.843L839.883,1196.772"/><path marker-end="url(#my-svg_flowchart-pointEnd)" style="fill:none;stroke-width:2px;stroke-dasharray:3;" class="edge-thickness-normal edge-pattern-dotted flowchart-link LS-chain_file LE-bcftools_liftover" id="L-chain_file-bcftools_liftover-0" d="M125.393,591L125.393,595.167C125.393,599.333,125.393,607.667,126.453,615.158C127.514,622.65,129.636,629.3,130.696,632.626L131.757,635.951"/><path marker-end="url(#my-svg_flowchart-pointEnd)" style="fill:none;" class="edge-thickness-normal edge-pattern-solid flowchart-link LS-sv_vs_snv LE-bcftools_liftover" id="L-sv_vs_snv-bcftools_liftover-0" d="M546.231,580.587L485.951,586.489C425.672,592.391,305.112,604.196,240.943,613.667C176.775,623.139,168.996,630.278,165.107,633.847L161.218,637.416"/><path marker-end="url(#my-svg_flowchart-pointEnd)" style="fill:none;" class="edge-thickness-normal edge-pattern-solid flowchart-link LS-gatk_func LE-bcftools_annotate" id="L-gatk_func-bcftools_annotate-0" d="M200.4,894.5L200.4,898.75C200.4,903,200.4,911.5,200.4,919.917C200.4,928.333,200.4,936.667,203.205,944.312C206.01,951.958,211.619,958.916,214.423,962.395L217.228,965.874"/><path marker-end="url(#my-svg_flowchart-pointEnd)" style="fill:none;" class="edge-thickness-normal edge-pattern-solid flowchart-link LS-bcftools_annotate LE-bcftools_annotate2" id="L-bcftools_annotate-bcftools_annotate2-0" d="M241.354,1021.6L241.354,1025.767C241.354,1029.933,241.354,1038.267,241.354,1045.717C241.354,1053.167,241.354,1059.733,241.354,1063.017L241.354,1066.3"/><path marker-end="url(#my-svg_flowchart-pointEnd)" style="fill:none;" class="edge-thickness-normal edge-pattern-solid flowchart-link LS-bcftools_liftover LE-gatk_func" id="L-bcftools_liftover-gatk_func-0" d="M138.791,675L138.791,679.167C138.791,683.333,138.791,691.667,138.791,700C138.791,708.333,138.791,716.667,138.791,725C138.791,733.333,138.791,741.667,138.791,752.917C138.791,764.167,138.791,778.333,138.791,792.5C138.791,806.667,138.791,820.833,144.225,831.665C149.659,842.497,160.526,849.994,165.96,853.742L171.394,857.49"/><path marker-end="url(#my-svg_flowchart-pointEnd)" style="fill:none;" class="edge-thickness-normal edge-pattern-solid flowchart-link LS-bcftools_annotate2 LE-r_extract_snv" id="L-bcftools_annotate2-r_extract_snv-0" d="M241.354,1123.2L241.354,1127.367C241.354,1131.533,241.354,1139.867,241.354,1148.2C241.354,1156.533,241.354,1164.867,241.354,1172.317C241.354,1179.767,241.354,1186.333,241.354,1189.617L241.354,1192.9"/><path marker-end="url(#my-svg_flowchart-pointEnd)" style="fill:none;stroke-width:2px;stroke-dasharray:3;" class="edge-thickness-normal edge-pattern-dotted flowchart-link LS-funcotator_sources LE-gatk_func" id="L-funcotator_sources-gatk_func-0" d="M273.803,810L273.803,814.167C273.803,818.333,273.803,826.667,267.227,834.641C260.651,842.615,247.5,850.23,240.924,854.037L234.348,857.844"/><path marker-end="url(#my-svg_flowchart-pointEnd)" style="fill:none;stroke-width:2px;stroke-dasharray:3;" class="edge-thickness-normal edge-pattern-dotted flowchart-link LS-repeat_bed LE-bcftools_annotate" id="L-repeat_bed-bcftools_annotate-0" d="M378.393,895L378.393,899.167C378.393,903.333,378.393,911.667,378.393,920C378.393,928.333,378.393,936.667,367.981,944.693C357.569,952.719,336.745,960.439,326.333,964.298L315.922,968.158"/><path marker-end="url(#my-svg_flowchart-pointEnd)" style="fill:none;" class="edge-thickness-normal edge-pattern-solid flowchart-link LS-r_extract_snv LE-joinpaths" id="L-r_extract_snv-joinpaths-0" d="M241.354,1232.2L241.354,1236.367C241.354,1240.533,241.354,1248.867,241.354,1257.2C241.354,1265.533,241.354,1273.867,285.269,1284.346C329.185,1294.826,417.016,1307.453,460.932,1313.766L504.847,1320.079"/><path marker-end="url(#my-svg_flowchart-pointEnd)" style="fill:none;" class="edge-thickness-normal edge-pattern-solid flowchart-link LS-r_extract_sv LE-joinpaths" id="L-r_extract_sv-joinpaths-0" d="M774.023,1232.2L774.023,1236.367C774.023,1240.533,774.023,1248.867,774.023,1257.2C774.023,1265.533,774.023,1273.867,735.253,1284.299C696.482,1294.732,618.94,1307.263,580.17,1313.529L541.399,1319.795"/><path marker-end="url(#my-svg_flowchart-pointEnd)" style="fill:none;" class="edge-thickness-normal edge-pattern-solid flowchart-link LS-joinpaths LE-r_predict_stability" id="L-joinpaths-r_predict_stability-0" d="M523.227,1337.7L523.143,1341.783C523.06,1345.867,522.893,1354.033,522.81,1362.283C522.727,1370.533,522.727,1378.867,522.727,1390.117C522.727,1401.367,522.727,1415.533,522.727,1429.7C522.727,1443.867,522.727,1458.033,526.172,1468.651C529.617,1479.268,536.508,1486.337,539.954,1489.871L543.399,1493.405"/><path marker-end="url(#my-svg_flowchart-pointEnd)" style="fill:none;" class="edge-thickness-normal edge-pattern-solid flowchart-link LS-r_predict_stability LE-bcftools_annotate3" id="L-r_predict_stability-bcftools_annotate3-0" d="M563.672,1531.2L563.672,1535.367C563.672,1539.533,563.672,1547.867,563.672,1555.317C563.672,1562.767,563.672,1569.333,563.672,1572.617L563.672,1575.9"/><path marker-end="url(#my-svg_flowchart-pointEnd)" style="fill:none;stroke-width:2px;stroke-dasharray:3;" class="edge-thickness-normal edge-pattern-dotted flowchart-link LS-rf_model LE-r_predict_stability" id="L-rf_model-r_predict_stability-0" d="M604.617,1447.2L604.617,1451.367C604.617,1455.533,604.617,1463.867,601.172,1471.567C597.726,1479.268,590.836,1486.337,587.39,1489.871L583.945,1493.405"/><path marker-end="url(#my-svg_flowchart-pointEnd)" style="fill:none;" class="edge-thickness-normal edge-pattern-solid flowchart-link LS-bcftools_annotate3 LE-output_vcfs" id="L-bcftools_annotate3-output_vcfs-0" d="M563.672,1632.8L563.672,1636.967C563.672,1641.133,563.672,1649.467,563.672,1657.8C563.672,1666.133,563.672,1674.467,563.738,1682C563.804,1689.534,563.936,1696.267,564.002,1699.634L564.068,1703.001"/><path style="stroke-width: 0;fill:none;" class="edge-thickness-thick edge-pattern-solid flowchart-link LS-legend LE-input_vcf" id="L-legend-input_vcf-0" d="M611.977,288L611.977,292.167C611.977,296.333,611.977,304.667,611.977,313C611.977,321.333,611.977,329.667,611.977,333.833L611.977,338"/></g><g class="edgeLabels"><g class="edgeLabel"><g transform="translate(0, 0)" class="label"><rect height="0" width="0" ry="0" rx="0"/><text style=""><tspan class="row" x="0" dy="1em" xml:space="preserve"/></text></g></g><g class="edgeLabel"><g transform="translate(0, 0)" class="label"><rect height="0" width="0" ry="0" rx="0"/><text style=""><tspan class="row" x="0" dy="1em" xml:space="preserve"/></text></g></g><g class="edgeLabel"><g transform="translate(0, 0)" class="label"><rect height="0" width="0" ry="0" rx="0"/><text style=""><tspan class="row" x="0" dy="1em" xml:space="preserve"/></text></g></g><g class="edgeLabel"><g transform="translate(0, 0)" class="label"><rect height="0" width="0" ry="0" rx="0"/><text style=""><tspan class="row" x="0" dy="1em" xml:space="preserve"/></text></g></g><g class="edgeLabel"><g transform="translate(0, 0)" class="label"><rect height="0" width="0" ry="0" rx="0"/><text style=""><tspan class="row" x="0" dy="1em" xml:space="preserve"/></text></g></g><g class="edgeLabel"><g transform="translate(0, 0)" class="label"><rect height="0" width="0" ry="0" rx="0"/><text style=""><tspan class="row" x="0" dy="1em" xml:space="preserve"/></text></g></g><g class="edgeLabel"><g transform="translate(0, 0)" class="label"><rect height="0" width="0" ry="0" rx="0"/><text style=""><tspan class="row" x="0" dy="1em" xml:space="preserve"/></text></g></g><g class="edgeLabel"><g transform="translate(0, 0)" class="label"><rect height="0" width="0" ry="0" rx="0"/><text style=""><tspan class="row" x="0" dy="1em" xml:space="preserve"/></text></g></g><g class="edgeLabel"><g transform="translate(0, 0)" class="label"><rect height="0" width="0" ry="0" rx="0"/><text style=""><tspan class="row" x="0" dy="1em" xml:space="preserve"/></text></g></g><g class="edgeLabel"><g transform="translate(0, 0)" class="label"><rect height="0" width="0" ry="0" rx="0"/><text style=""><tspan class="row" x="0" dy="1em" xml:space="preserve"/></text></g></g><g class="edgeLabel"><g transform="translate(0, 0)" class="label"><rect height="0" width="0" ry="0" rx="0"/><text style=""><tspan class="row" x="0" dy="1em" xml:space="preserve"/></text></g></g><g class="edgeLabel"><g transform="translate(0, 0)" class="label"><rect height="0" width="0" ry="0" rx="0"/><text style=""><tspan class="row" x="0" dy="1em" xml:space="preserve"/></text></g></g><g class="edgeLabel"><g transform="translate(0, 0)" class="label"><rect height="0" width="0" ry="0" rx="0"/><text style=""><tspan class="row" x="0" dy="1em" xml:space="preserve"/></text></g></g><g class="edgeLabel"><g transform="translate(0, 0)" class="label"><rect height="0" width="0" ry="0" rx="0"/><text style=""><tspan class="row" x="0" dy="1em" xml:space="preserve"/></text></g></g><g class="edgeLabel"><g transform="translate(0, 0)" class="label"><rect height="0" width="0" ry="0" rx="0"/><text style=""><tspan class="row" x="0" dy="1em" xml:space="preserve"/></text></g></g><g class="edgeLabel"><g transform="translate(0, 0)" class="label"><rect height="0" width="0" ry="0" rx="0"/><text style=""><tspan class="row" x="0" dy="1em" xml:space="preserve"/></text></g></g><g class="edgeLabel"><g transform="translate(0, 0)" class="label"><rect height="0" width="0" ry="0" rx="0"/><text style=""><tspan class="row" x="0" dy="1em" xml:space="preserve"/></text></g></g><g class="edgeLabel"><g transform="translate(0, 0)" class="label"><rect height="0" width="0" ry="0" rx="0"/><text style=""><tspan class="row" x="0" dy="1em" xml:space="preserve"/></text></g></g><g class="edgeLabel"><g transform="translate(0, 0)" class="label"><rect height="0" width="0" ry="0" rx="0"/><text style=""><tspan class="row" x="0" dy="1em" xml:space="preserve"/></text></g></g><g class="edgeLabel"><g transform="translate(0, 0)" class="label"><rect height="0" width="0" ry="0" rx="0"/><text style=""><tspan class="row" x="0" dy="1em" xml:space="preserve"/></text></g></g><g class="edgeLabel"><g transform="translate(0, 0)" class="label"><rect height="0" width="0" ry="0" rx="0"/><text style=""><tspan class="row" x="0" dy="1em" xml:space="preserve"/></text></g></g></g><g class="nodes"><g transform="translate(563.671875, 1606.9999961853027)" data-id="bcftools_annotate3" data-node="true" id="flowchart-bcftools_annotate3-50" class="node default bcftools flowchart-label"><rect height="51.599998474121094" width="155.09375" y="-25.799999237060547" x="-77.546875" ry="0" rx="0" style="" class="basic label-container"/><g transform="translate(0, -18.299999237060547)" style="" class="label"><rect/><g><rect class="background"/><text y="-10.1"><tspan dy="1.1em" y="-0.1em" x="0" class="text-outer-tspan"><tspan font-weight="normal" class="text-inner-tspan" font-style="normal">bcftools</tspan><tspan font-weight="normal" class="text-inner-tspan" font-style="normal"> annotate</tspan></tspan><tspan dy="1.1em" y="1em" x="0" class="text-outer-tspan"><tspan font-weight="normal" class="text-inner-tspan" font-style="italic">StabilityScore</tspan></tspan></text></g></g></g><g transform="translate(563.671875, 1514.1999969482422)" data-id="r_predict_stability" data-node="true" id="flowchart-r_predict_stability-48" class="node default R flowchart-label"><rect height="34" width="216.109375" y="-17" x="-108.0546875" ry="0" rx="0" style="" class="basic label-container"/><g transform="translate(0, -9.5)" style="" class="label"><rect/><text style=""><tspan class="row" x="0" dy="1em" xml:space="preserve">predict-variant-stability.R</tspan></text></g></g><g transform="translate(604.6171875, 1429.6999969482422)" data-id="rf_model" data-node="true" id="flowchart-rf_model-51" class="node default input flowchart-label"><rect height="35" width="93.78125" y="-17.5" x="-46.890625" ry="17.5" rx="17.5" style=""/><g transform="translate(0, -10)" style="" class="label"><rect/><text style=""><tspan class="row" x="0" dy="1em" xml:space="preserve">rf_model</tspan></text></g></g><g transform="translate(241.353515625, 1215.1999969482422)" data-id="r_extract_snv" data-node="true" id="flowchart-r_extract_snv-37" class="node default R flowchart-label"><rect height="34" width="196" y="-17" x="-98" ry="0" rx="0" style="" class="basic label-container"/><g transform="translate(0, -9.5)" style="" class="label"><rect/><text style=""><tspan class="row" x="0" dy="1em" xml:space="preserve">extract-VCF-features.R</tspan></text></g></g><g transform="translate(273.802734375, 792.5)" data-id="funcotator_sources" data-node="true" id="flowchart-funcotator_sources-29" class="node default input flowchart-label"><rect height="35" width="176.4375" y="-17.5" x="-88.21875" ry="17.5" rx="17.5" style=""/><g transform="translate(0, -10)" style="" class="label"><rect/><text style=""><tspan class="row" x="0" dy="1em" xml:space="preserve">funcotator_sources</tspan></text></g></g><g transform="translate(378.392578125, 877.5)" data-id="repeat_bed" data-node="true" id="flowchart-repeat_bed-30" class="node default input flowchart-label"><rect height="35" width="114.0625" y="-17.5" x="-57.03125" ry="17.5" rx="17.5" style=""/><g transform="translate(0, -10)" style="" class="label"><rect/><text style=""><tspan class="row" x="0" dy="1em" xml:space="preserve">repeat_bed</tspan></text></g></g><g transform="translate(241.353515625, 1097.3999977111816)" data-id="bcftools_annotate2" data-node="true" id="flowchart-bcftools_annotate2-33" class="node default bcftools flowchart-label"><rect height="51.599998474121094" width="182.1171875" y="-25.799999237060547" x="-91.05859375" ry="0" rx="0" style="" class="basic label-container"/><g transform="translate(0, -18.299999237060547)" style="" class="label"><rect/><g><rect class="background"/><text y="-10.1"><tspan dy="1.1em" y="-0.1em" x="0" class="text-outer-tspan"><tspan font-weight="normal" class="text-inner-tspan" font-style="normal">bcftools</tspan><tspan font-weight="normal" class="text-inner-tspan" font-style="normal"> annotate</tspan></tspan><tspan dy="1.1em" y="1em" x="0" class="text-outer-tspan"><tspan font-weight="normal" class="text-inner-tspan" font-style="italic">TrinucleotideContext</tspan></tspan></text></g></g></g><g transform="translate(241.353515625, 995.7999992370605)" data-id="bcftools_annotate" data-node="true" id="flowchart-bcftools_annotate-32" class="node default bcftools flowchart-label"><rect height="51.599998474121094" width="155.09375" y="-25.799999237060547" x="-77.546875" ry="0" rx="0" style="" class="basic label-container"/><g transform="translate(0, -18.299999237060547)" style="" class="label"><rect/><g><rect class="background"/><text y="-10.1"><tspan dy="1.1em" y="-0.1em" x="0" class="text-outer-tspan"><tspan font-weight="normal" class="text-inner-tspan" font-style="normal">bcftools</tspan><tspan font-weight="normal" class="text-inner-tspan" font-style="normal"> annotate</tspan></tspan><tspan dy="1.1em" y="1em" x="0" class="text-outer-tspan"><tspan font-weight="normal" class="text-inner-tspan" font-style="italic">RepeatMasker</tspan></tspan></text></g></g></g><g transform="translate(200.400390625, 877.5)" data-id="gatk_func" data-node="true" id="flowchart-gatk_func-31" class="node default gatk flowchart-label"><rect height="34" width="141.921875" y="-17" x="-70.9609375" ry="0" rx="0" style="" class="basic label-container"/><g transform="translate(0, -9.5)" style="" class="label"><rect/><text style=""><tspan class="row" x="0" dy="1em" xml:space="preserve">gatk Funcotator</tspan></text></g></g><g transform="translate(125.392578125, 573.5)" data-id="chain_file" data-node="true" id="flowchart-chain_file-23" class="node default input flowchart-label"><rect height="35" width="99.453125" y="-17.5" x="-49.7265625" ry="17.5" rx="17.5" style=""/><g transform="translate(0, -10)" style="" class="label"><rect/><text style=""><tspan class="row" x="0" dy="1em" xml:space="preserve">chain_file</tspan></text></g></g><g transform="translate(138.791015625, 658)" data-id="bcftools_liftover" data-node="true" id="flowchart-bcftools_liftover-24" class="node default bcftools flowchart-label"><rect height="34" width="153.046875" y="-17" x="-76.5234375" ry="0" rx="0" style="" class="basic label-container"/><g transform="translate(0, -9.5)" style="" class="label"><rect/><text style=""><tspan class="row" x="0" dy="1em" xml:space="preserve">bcftools +liftover</tspan></text></g></g><g transform="translate(720.0078125, 1097.3999977111816)" data-id="header_contigs" data-node="true" id="flowchart-header_contigs-13" class="node default input flowchart-label"><rect height="35" width="146.0625" y="-17.5" x="-73.03125" ry="17.5" rx="17.5" style=""/><g transform="translate(0, -10)" style="" class="label"><rect/><text style=""><tspan class="row" x="0" dy="1em" xml:space="preserve">header_contigs</tspan></text></g></g><g transform="translate(828.0390625, 995.7999992370605)" data-id="chain_file2" data-node="true" id="flowchart-chain_file2-15" class="node default input flowchart-label"><rect height="35" width="99.453125" y="-17.5" x="-49.7265625" ry="17.5" rx="17.5" style=""/><g transform="translate(0, -10)" style="" class="label"><rect/><text style=""><tspan class="row" x="0" dy="1em" xml:space="preserve">chain_file</tspan></text></g></g><g transform="translate(924.125, 1097.3999977111816)" data-id="gnomad_rds" data-node="true" id="flowchart-gnomad_rds-17" class="node default input flowchart-label"><rect height="35" width="122.171875" y="-17.5" x="-61.0859375" ry="17.5" rx="17.5" style=""/><g transform="translate(0, -10)" style="" class="label"><rect/><text style=""><tspan class="row" x="0" dy="1em" xml:space="preserve">gnomad_rds</tspan></text></g></g><g transform="translate(774.0234375, 1215.1999969482422)" data-id="r_extract_sv" data-node="true" id="flowchart-r_extract_sv-12" class="node default R flowchart-label"><rect height="34" width="220.8125" y="-17" x="-110.40625" ry="0" rx="0" style="" class="basic label-container"/><g transform="translate(0, -9.5)" style="" class="label"><rect/><text style=""><tspan class="row" x="0" dy="1em" xml:space="preserve">extract-VCF-features-SV.R</tspan></text></g></g><g transform="translate(291.2578125, -8)" class="root"><g class="clusters"><g id="legend" class="cluster default flowchart-label"><rect height="288" width="626.4375" y="8" x="8" ry="0" rx="0" style=""/><g transform="translate(321.21875, 8)" class="cluster-label"><g><rect class="background"/><text y="-10.1"><tspan dy="1.1em" y="-0.1em" x="0" class="text-outer-tspan"><tspan font-weight="bold" class="text-inner-tspan" font-style="normal">Legend</tspan></tspan></text></g></g></g></g><g class="edgePaths"/><g class="edgeLabels"/><g class="nodes"><g transform="translate(25.5, 35)" class="root"><g class="clusters"><g id="nodes" class="cluster default flowchart-label"><rect height="84" width="576.4375" y="8" x="8" ry="0" rx="0" style=""/><g transform="translate(296.21875, 8)" class="cluster-label"><g><rect class="background"/><text y="-10.1"><tspan dy="1.1em" y="-0.1em" x="0" class="text-outer-tspan"><tspan font-weight="bold" class="text-inner-tspan" font-style="normal">Nodes</tspan></tspan></text></g></g></g></g><g class="edgePaths"/><g class="edgeLabels"/><g class="nodes"><g transform="translate(95.1484375, 50)" data-id="input" data-node="true" id="flowchart-input-0" class="node default input flowchart-label"><polygon style="" transform="translate(-44.1484375,17)" class="label-container" points="0,0 88.296875,0 88.296875,-34 0,-34 0,0 -8,0 96.296875,0 96.296875,-34 -8,-34 -8,0"/><g transform="translate(0, -9.5)" style="" class="label"><rect/><text style=""><tspan class="row" x="0" dy="1em" xml:space="preserve">Input File</tspan></text></g></g><g transform="translate(290.3515625, 50)" data-id="input_node" data-node="true" id="flowchart-input_node-1" class="node default input flowchart-label"><rect height="34" width="186.109375" y="-17" x="-93.0546875" ry="17" rx="17" style=""/><g transform="translate(0, -9.5)" style="" class="label"><rect/><text style=""><tspan class="row" x="0" dy="1em" xml:space="preserve">Parameterized Input</tspan></text></g></g><g transform="translate(491.421875, 50)" data-id="output" data-node="true" id="flowchart-output-2" class="node default output flowchart-label"><polygon style="" transform="translate(-50.015625,17)" class="label-container" points="0,0 100.03125,0 100.03125,-34 0,-34 0,0 -8,0 108.03125,0 108.03125,-34 -8,-34 -8,0"/><g transform="translate(0, -9.5)" style="" class="label"><rect/><text style=""><tspan class="row" x="0" dy="1em" xml:space="preserve">Output file</tspan></text></g></g></g></g><g transform="translate(37.8359375, 169)" class="root"><g class="clusters"><g id="processes" class="cluster default flowchart-label"><rect height="84" width="551.765625" y="8" x="8" ry="0" rx="0" style=""/><g transform="translate(283.8828125, 8)" class="cluster-label"><g><rect class="background"/><text y="-10.1"><tspan dy="1.1em" y="-0.1em" x="0" class="text-outer-tspan"><tspan font-weight="bold" class="text-inner-tspan" font-style="normal">Processes</tspan></tspan></text></g></g></g></g><g class="edgePaths"/><g class="edgeLabels"/><g class="nodes"><g transform="translate(71.9375, 50)" data-id="gatk_docker" data-node="true" id="flowchart-gatk_docker-3" class="node default gatk flowchart-label"><rect height="34" width="57.875" y="-17" x="-28.9375" ry="0" rx="0" style="" class="basic label-container"/><g transform="translate(0, -9.5)" style="" class="label"><rect/><text style=""><tspan class="row" x="0" dy="1em" xml:space="preserve">GATK</tspan></text></g></g><g transform="translate(189.84375, 50)" data-id="bcftools_docker" data-node="true" id="flowchart-bcftools_docker-4" class="node default bcftools flowchart-label"><rect height="34" width="77.9375" y="-17" x="-38.96875" ry="0" rx="0" style="" class="basic label-container"/><g transform="translate(0, -9.5)" style="" class="label"><rect/><text style=""><tspan class="row" x="0" dy="1em" xml:space="preserve">bcftools</tspan></text></g></g><g transform="translate(314.1640625, 50)" data-id="r_docker" data-node="true" id="flowchart-r_docker-5" class="node default R flowchart-label"><rect height="34" width="70.703125" y="-17" x="-35.3515625" ry="0" rx="0" style="" class="basic label-container"/><g transform="translate(0, -9.5)" style="" class="label"><rect/><text style=""><tspan class="row" x="0" dy="1em" xml:space="preserve">Rscript</tspan></text></g></g><g transform="translate(462.140625, 50)" data-id="linux_docker" data-node="true" id="flowchart-linux_docker-6" class="node default linux flowchart-label"><rect height="34" width="125.25" y="-17" x="-62.625" ry="0" rx="0" style="" class="basic label-container"/><g transform="translate(0, -9.5)" style="" class="label"><rect/><text style=""><tspan class="row" x="0" dy="1em" xml:space="preserve">Generic Linux</tspan></text></g></g></g></g></g></g><g transform="translate(611.9765625, 355)" data-id="input_vcf" data-node="true" id="flowchart-input_vcf-8" class="node default input flowchart-label"><polygon style="" transform="translate(-46.421875,17)" class="label-container" points="0,0 92.84375,0 92.84375,-34 0,-34 0,0 -8,0 100.84375,0 100.84375,-34 -8,-34 -8,0"/><g transform="translate(0, -9.5)" style="" class="label"><rect/><text style=""><tspan class="row" x="0" dy="1em" xml:space="preserve">Input VCF</tspan></text></g></g><g transform="translate(611.9765625, 439)" data-id="pipeval" data-node="true" id="flowchart-pipeval-9" class="node default linux flowchart-label"><rect height="34" width="73.328125" y="-17" x="-36.6640625" ry="0" rx="0" style="" class="basic label-container"/><g transform="translate(0, -9.5)" style="" class="label"><rect/><text style=""><tspan class="row" x="0" dy="1em" xml:space="preserve">pipeval</tspan></text></g></g><g transform="translate(611.9765625, 573.5)" data-id="sv_vs_snv" data-node="true" id="flowchart-sv_vs_snv-10" class="node default default flowchart-label"><polygon style="" transform="translate(-69.5390625,17)" class="label-container" points="8.5,0 130.578125,0 139.078125,-17 130.578125,-34 8.5,-34 0,-17"/><g transform="translate(0, -9.5)" style="" class="label"><rect/><text style=""><tspan class="row" x="0" dy="1em" xml:space="preserve">Variant Type?</tspan></text></g></g><g transform="translate(522.7265625, 1322.1999969482422)" data-id="joinpaths" data-node="true" id="flowchart-joinpaths-42" class="node default default flowchart-label"><polygon style="" transform="translate(-15,15)" class="label-container" points="15,0 30,-15 15,-30 0,-15"/><g transform="translate(0, 0)" style="" class="label"><rect/><text style=""><tspan class="row" x="0" dy="1em" xml:space="preserve"/></text></g></g><g transform="translate(563.671875, 1724.7999954223633)" data-id="output_vcfs" data-node="true" id="flowchart-output_vcfs-54" class="node default output flowchart-label"><polygon style="" transform="translate(-57.6640625,17)" class="label-container" points="0,0 115.328125,0 115.328125,-34 0,-34 0,0 -8,0 123.328125,0 123.328125,-34 -8,-34 -8,0"/><g transform="translate(0, -9.5)" style="" class="label"><rect/><text style=""><tspan class="row" x="0" dy="1em" xml:space="preserve">Output VCFs</tspan></text></g></g></g></g></g></svg>