<svg aria-roledescription="flowchart-v2" role="graphics-document document" viewBox="-8 -8 948.93359375 1741.800048828125" style="max-width: 948.934px; background-color: white;" xmlns:xlink="http://www.w3.org/1999/xlink" xmlns="http://www.w3.org/2000/svg" width="100%" id="my-svg"><style>#my-svg{font-family:"trebuchet ms",verdana,arial,sans-serif;font-size:16px;fill:#333;}#my-svg .error-icon{fill:#552222;}#my-svg .error-text{fill:#552222;stroke:#552222;}#my-svg .edge-thickness-normal{stroke-width:2px;}#my-svg .edge-thickness-thick{stroke-width:3.5px;}#my-svg .edge-pattern-solid{stroke-dasharray:0;}#my-svg .edge-pattern-dashed{stroke-dasharray:3;}#my-svg .edge-pattern-dotted{stroke-dasharray:2;}#my-svg .marker{fill:#333333;stroke:#333333;}#my-svg .marker.cross{stroke:#333333;}#my-svg svg{font-family:"trebuchet ms",verdana,arial,sans-serif;font-size:16px;}#my-svg .label{font-family:"trebuchet ms",verdana,arial,sans-serif;color:#333;}#my-svg .cluster-label text{fill:#333;}#my-svg .cluster-label span,#my-svg p{color:#333;}#my-svg .label text,#my-svg span,#my-svg p{fill:#333;color:#333;}#my-svg .node rect,#my-svg .node circle,#my-svg .node ellipse,#my-svg .node polygon,#my-svg .node path{fill:#ECECFF;stroke:#9370DB;stroke-width:1px;}#my-svg .flowchart-label text{text-anchor:middle;}#my-svg .node .katex path{fill:#000;stroke:#000;stroke-width:1px;}#my-svg .node .label{text-align:center;}#my-svg .node.clickable{cursor:pointer;}#my-svg .arrowheadPath{fill:#333333;}#my-svg .edgePath .path{stroke:#333333;stroke-width:2.0px;}#my-svg .flowchart-link{stroke:#333333;fill:none;}#my-svg .edgeLabel{background-color:#e8e8e8;text-align:center;}#my-svg .edgeLabel rect{opacity:0.5;background-color:#e8e8e8;fill:#e8e8e8;}#my-svg .labelBkg{background-color:rgba(232, 232, 232, 0.5);}#my-svg .cluster rect{fill:#ffffde;stroke:#aaaa33;stroke-width:1px;}#my-svg .cluster text{fill:#333;}#my-svg .cluster span,#my-svg p{color:#333;}#my-svg div.mermaidTooltip{position:absolute;text-align:center;max-width:200px;padding:2px;font-family:"trebuchet ms",verdana,arial,sans-serif;font-size:12px;background:hsl(80, 100%, 96.2745098039%);border:1px solid #aaaa33;border-radius:2px;pointer-events:none;z-index:100;}#my-svg .flowchartTitleText{text-anchor:middle;font-size:18px;fill:#333;}#my-svg :root{--mermaid-font-family:"trebuchet ms",verdana,arial,sans-serif;}#my-svg .input rect{fill:#ffffb3!important;}#my-svg .input polygon{fill:#ffffb3!important;}#my-svg .input ellipse{fill:#ffffb3!important;}#my-svg .input circle{fill:#ffffb3!important;}#my-svg .input path{fill:#ffffb3!important;}#my-svg .output rect{fill:#b3de69!important;}#my-svg .output polygon{fill:#b3de69!important;}#my-svg .output ellipse{fill:#b3de69!important;}#my-svg .output circle{fill:#b3de69!important;}#my-svg .output path{fill:#b3de69!important;}#my-svg .gatk rect{fill:#bebada!important;}#my-svg .gatk polygon{fill:#bebada!important;}#my-svg .gatk ellipse{fill:#bebada!important;}#my-svg .gatk circle{fill:#bebada!important;}#my-svg .gatk path{fill:#bebada!important;}#my-svg .bcftools rect{fill:#fdb462!important;}#my-svg .bcftools polygon{fill:#fdb462!important;}#my-svg .bcftools ellipse{fill:#fdb462!important;}#my-svg .bcftools circle{fill:#fdb462!important;}#my-svg .bcftools path{fill:#fdb462!important;}#my-svg .R rect{fill:#8dd3c7!important;}#my-svg .R polygon{fill:#8dd3c7!important;}#my-svg .R ellipse{fill:#8dd3c7!important;}#my-svg .R circle{fill:#8dd3c7!important;}#my-svg .R path{fill:#8dd3c7!important;}#my-svg .linux rect{fill:#fb8072!important;}#my-svg .linux polygon{fill:#fb8072!important;}#my-svg .linux ellipse{fill:#fb8072!important;}#my-svg .linux circle{fill:#fb8072!important;}#my-svg .linux path{fill:#fb8072!important;}</style><g><marker orient="auto" markerHeight="12" markerWidth="12" markerUnits="userSpaceOnUse" refY="5" refX="6" viewBox="0 0 10 10" class="marker flowchart" id="my-svg_flowchart-pointEnd"><path style="stroke-width: 1; stroke-dasharray: 1, 0;" class="arrowMarkerPath" d="M 0 0 L 10 5 L 0 10 z"/></marker><marker orient="auto" markerHeight="12" markerWidth="12" markerUnits="userSpaceOnUse" refY="5" refX="4.5" viewBox="0 0 10 10" class="marker flowchart" id="my-svg_flowchart-pointStart"><path style="stroke-width: 1; stroke-dasharray: 1, 0;" class="arrowMarkerPath" d="M 0 5 L 10 10 L 10 0 z"/></marker><marker orient="auto" markerHeight="11" markerWidth="11" markerUnits="userSpaceOnUse" refY="5" refX="11" viewBox="0 0 10 10" class="marker flowchart" id="my-svg_flowchart-circleEnd"><circle style="stroke-width: 1; stroke-dasharray: 1, 0;" class="arrowMarkerPath" r="5" cy="5" cx="5"/></marker><marker orient="auto" markerHeight="11" markerWidth="11" markerUnits="userSpaceOnUse" refY="5" refX="-1" viewBox="0 0 10 10" class="marker flowchart" id="my-svg_flowchart-circleStart"><circle style="stroke-width: 1; stroke-dasharray: 1, 0;" class="arrowMarkerPath" r="5" cy="5" cx="5"/></marker><marker orient="auto" markerHeight="11" markerWidth="11" markerUnits="userSpaceOnUse" refY="5.2" refX="12" viewBox="0 0 11 11" class="marker cross flowchart" id="my-svg_flowchart-crossEnd"><path style="stroke-width: 2; stroke-dasharray: 1, 0;" class="arrowMarkerPath" d="M 1,1 l 9,9 M 10,1 l -9,9"/></marker><marker orient="auto" markerHeight="11" markerWidth="11" markerUnits="userSpaceOnUse" refY="5.2" refX="-1" viewBox="0 0 11 11" class="marker cross flowchart" id="my-svg_flowchart-crossStart"><path style="stroke-width: 2; stroke-dasharray: 1, 0;" class="arrowMarkerPath" d="M 1,1 l 9,9 M 10,1 l -9,9"/></marker><g class="root"><g class="clusters"><g id="Predict Stability" class="cluster default flowchart-label"><rect height="270.5999984741211" width="295.78125" y="1371.1999969482422" x="372.76953125" ry="0" rx="0" style=""/><g transform="translate(520.66015625, 1371.1999969482422)" class="cluster-label"><g><rect class="background"/><text y="-10.1"><tspan dy="1.1em" y="-0.1em" x="0" class="text-outer-tspan"><tspan font-weight="normal" class="text-inner-tspan" font-style="normal">        </tspan><tspan font-weight="bold" class="text-inner-tspan" font-style="normal"> Predict</tspan><tspan font-weight="bold" class="text-inner-tspan" font-style="normal"> Stability</tspan></tspan></text></g></g></g><g id="SNV" class="cluster default flowchart-label"><rect height="651.1999969482422" width="494.546875" y="590" x="0" ry="0" rx="0" style=""/><g transform="translate(247.2734375, 590)" class="cluster-label"><g><rect class="background"/><text y="-10.1"><tspan dy="1.1em" y="-0.1em" x="0" class="text-outer-tspan"><tspan font-weight="bold" class="text-inner-tspan" font-style="normal">SNV</tspan></tspan></text></g></g></g><g id="SV" class="cluster default flowchart-label"><rect height="457.1999969482422" width="418.38671875" y="784" x="514.546875" ry="0" rx="0" style=""/><g transform="translate(723.740234375, 784)" class="cluster-label"><g><rect class="background"/><text y="-10.1"><tspan dy="1.1em" y="-0.1em" x="0" class="text-outer-tspan"><tspan font-weight="bold" class="text-inner-tspan" font-style="normal">SV</tspan></tspan></text></g></g></g></g><g class="edgePaths"><path marker-end="url(#my-svg_flowchart-pointEnd)" style="fill:none;" class="edge-thickness-normal edge-pattern-solid flowchart-link LS-input_vcf LE-pipeval" id="L-input_vcf-pipeval-0" d="M491.898,372.5L491.815,376.583C491.732,380.667,491.565,388.833,491.482,396.2C491.398,403.567,491.398,410.133,491.398,413.417L491.398,416.7"/><path marker-end="url(#my-svg_flowchart-pointEnd)" style="fill:none;" class="edge-thickness-normal edge-pattern-solid flowchart-link LS-pipeval LE-sv_vs_snv" id="L-pipeval-sv_vs_snv-0" d="M491.398,456L491.398,460.167C491.398,464.333,491.398,472.667,491.464,480.2C491.53,487.734,491.663,494.467,491.729,497.834L491.795,501.201"/><path marker-end="url(#my-svg_flowchart-pointEnd)" style="fill:none;" class="edge-thickness-normal edge-pattern-solid flowchart-link LS-sv_vs_snv LE-r_liftover" id="L-sv_vs_snv-r_liftover-0" d="M539.934,540.5L551.624,544.583C563.314,548.667,586.694,556.833,598.384,565.083C610.074,573.333,610.074,581.667,610.074,592.917C610.074,604.167,610.074,618.333,610.074,632.5C610.074,646.667,610.074,660.833,610.074,674.917C610.074,689,610.074,703,610.074,717C610.074,731,610.074,745,610.074,756.167C610.074,767.333,610.074,775.667,610.074,786.917C610.074,798.167,610.074,812.333,610.074,826.5C610.074,840.667,610.074,854.833,610.074,869C610.074,883.167,610.074,897.333,610.074,911.5C610.074,925.667,610.074,939.833,623.679,952.229C637.283,964.624,664.492,975.248,678.096,980.56L691.701,985.872"/><path marker-end="url(#my-svg_flowchart-pointEnd)" style="fill:none;stroke-width:2px;stroke-dasharray:3;" class="edge-thickness-normal edge-pattern-dotted flowchart-link LS-header_contigs LE-r_liftover" id="L-header_contigs-r_liftover-0" d="M740.176,929L740.176,933.167C740.176,937.333,740.176,945.667,740.176,954.583C740.176,963.5,740.176,973,740.176,977.75L740.176,982.5"/><path marker-end="url(#my-svg_flowchart-pointEnd)" style="fill:none;stroke-width:2px;stroke-dasharray:3;" class="edge-thickness-normal edge-pattern-dotted flowchart-link LS-chain_file2 LE-r_liftover" id="L-chain_file2-r_liftover-0" d="M848.207,844L848.207,848.167C848.207,852.333,848.207,860.667,848.207,871.917C848.207,883.167,848.207,897.333,848.207,911.5C848.207,925.667,848.207,939.833,837.027,952.174C825.846,964.515,803.485,975.03,792.305,980.287L781.124,985.545"/><path marker-end="url(#my-svg_flowchart-pointEnd)" style="fill:none;stroke-width:2px;stroke-dasharray:3;" class="edge-thickness-normal edge-pattern-dotted flowchart-link LS-gnomad_rds LE-r_extract_sv" id="L-gnomad_rds-r_extract_sv-0" d="M644.09,1123.9L644.09,1129.45C644.09,1135,644.09,1146.1,648.191,1155.235C652.292,1164.371,660.494,1171.541,664.596,1175.126L668.697,1178.712"/><path marker-end="url(#my-svg_flowchart-pointEnd)" style="fill:none;" class="edge-thickness-normal edge-pattern-solid flowchart-link LS-r_liftover LE-r_extract_sv" id="L-r_liftover-r_extract_sv-0" d="M740.176,1021.8L740.176,1027.433C740.176,1033.067,740.176,1044.333,740.176,1058.433C740.176,1072.533,740.176,1089.467,740.176,1106.4C740.176,1123.333,740.176,1140.267,736.075,1152.319C731.974,1164.371,723.771,1171.541,719.67,1175.126L715.569,1178.712"/><path marker-end="url(#my-svg_flowchart-pointEnd)" style="fill:none;stroke-width:2px;stroke-dasharray:3;" class="edge-thickness-normal edge-pattern-dotted flowchart-link LS-chain_file LE-bcftools_liftover" id="L-chain_file-bcftools_liftover-0" d="M108.863,650L108.863,654.167C108.863,658.333,108.863,666.667,112.439,674.378C116.014,682.09,123.165,689.179,126.74,692.724L130.316,696.269"/><path marker-end="url(#my-svg_flowchart-pointEnd)" style="fill:none;" class="edge-thickness-normal edge-pattern-solid flowchart-link LS-sv_vs_snv LE-bcftools_liftover" id="L-sv_vs_snv-bcftools_liftover-0" d="M428.543,535.867L403.159,540.723C377.775,545.578,327.007,555.289,301.622,564.311C276.238,573.333,276.238,581.667,276.238,592.917C276.238,604.167,276.238,618.333,276.238,632.5C276.238,646.667,276.238,660.833,264.674,671.802C253.109,682.771,229.98,690.541,218.415,694.427L206.851,698.312"/><path marker-end="url(#my-svg_flowchart-pointEnd)" style="fill:none;" class="edge-thickness-normal edge-pattern-solid flowchart-link LS-bcftools_liftover LE-gatk_func" id="L-bcftools_liftover-gatk_func-0" d="M151.227,734L151.227,738.167C151.227,742.333,151.227,750.667,151.227,759C151.227,767.333,151.227,775.667,151.227,786.917C151.227,798.167,151.227,812.333,151.227,826.5C151.227,840.667,151.227,854.833,156.66,865.665C162.094,876.497,172.962,883.994,178.396,887.742L183.83,891.49"/><path marker-end="url(#my-svg_flowchart-pointEnd)" style="fill:none;" class="edge-thickness-normal edge-pattern-solid flowchart-link LS-gatk_func LE-bcftools_annotate" id="L-gatk_func-bcftools_annotate-0" d="M212.836,928.5L212.836,932.75C212.836,937,212.836,945.5,216.856,953.329C220.875,961.158,228.915,968.317,232.934,971.896L236.954,975.475"/><path marker-end="url(#my-svg_flowchart-pointEnd)" style="fill:none;" class="edge-thickness-normal edge-pattern-solid flowchart-link LS-bcftools_annotate LE-bcftools_annotate2" id="L-bcftools_annotate-bcftools_annotate2-0" d="M269.887,1030.6L269.887,1034.767C269.887,1038.933,269.887,1047.267,269.887,1054.717C269.887,1062.167,269.887,1068.733,269.887,1072.017L269.887,1075.3"/><path marker-end="url(#my-svg_flowchart-pointEnd)" style="fill:none;" class="edge-thickness-normal edge-pattern-solid flowchart-link LS-bcftools_annotate2 LE-r_extract_snv" id="L-bcftools_annotate2-r_extract_snv-0" d="M269.887,1132.2L269.887,1136.367C269.887,1140.533,269.887,1148.867,269.887,1156.317C269.887,1163.767,269.887,1170.333,269.887,1173.617L269.887,1176.9"/><path marker-end="url(#my-svg_flowchart-pointEnd)" style="fill:none;stroke-width:2px;stroke-dasharray:3;" class="edge-thickness-normal edge-pattern-dotted flowchart-link LS-funcotator_sources LE-gatk_func" id="L-funcotator_sources-gatk_func-0" d="M286.238,844L286.238,848.167C286.238,852.333,286.238,860.667,279.662,868.641C273.087,876.615,259.935,884.23,253.359,888.037L246.784,891.844"/><path marker-end="url(#my-svg_flowchart-pointEnd)" style="fill:none;stroke-width:2px;stroke-dasharray:3;" class="edge-thickness-normal edge-pattern-dotted flowchart-link LS-repeat_bed LE-bcftools_annotate" id="L-repeat_bed-bcftools_annotate-0" d="M390.828,929L390.828,933.167C390.828,937.333,390.828,945.667,381.723,953.658C372.617,961.649,354.407,969.298,345.301,973.123L336.196,976.948"/><path marker-end="url(#my-svg_flowchart-pointEnd)" style="fill:none;" class="edge-thickness-normal edge-pattern-solid flowchart-link LS-r_extract_snv LE-joinpaths" id="L-r_extract_snv-joinpaths-0" d="M269.887,1216.2L269.887,1220.367C269.887,1224.533,269.887,1232.867,269.887,1241.2C269.887,1249.533,269.887,1257.867,301.101,1268.203C332.315,1278.54,394.744,1290.879,425.958,1297.049L457.172,1303.219"/><path marker-end="url(#my-svg_flowchart-pointEnd)" style="fill:none;" class="edge-thickness-normal edge-pattern-solid flowchart-link LS-r_extract_sv LE-joinpaths" id="L-r_extract_sv-joinpaths-0" d="M692.133,1216.2L692.133,1220.367C692.133,1224.533,692.133,1232.867,692.133,1241.2C692.133,1249.533,692.133,1257.867,658.911,1268.233C625.688,1278.6,559.244,1291,526.022,1297.2L492.8,1303.4"/><path marker-end="url(#my-svg_flowchart-pointEnd)" style="fill:none;" class="edge-thickness-normal edge-pattern-solid flowchart-link LS-joinpaths LE-r_predict_stability" id="L-joinpaths-r_predict_stability-0" d="M474.918,1321.7L474.835,1325.783C474.751,1329.867,474.585,1338.033,474.501,1346.283C474.418,1354.533,474.418,1362.867,474.418,1374.117C474.418,1385.367,474.418,1399.533,474.418,1413.7C474.418,1427.867,474.418,1442.033,477.863,1452.651C481.309,1463.268,488.2,1470.337,491.645,1473.871L495.09,1477.405"/><path marker-end="url(#my-svg_flowchart-pointEnd)" style="fill:none;" class="edge-thickness-normal edge-pattern-solid flowchart-link LS-r_predict_stability LE-bcftools_annotate3" id="L-r_predict_stability-bcftools_annotate3-0" d="M515.363,1515.2L515.363,1519.367C515.363,1523.533,515.363,1531.867,515.363,1539.317C515.363,1546.767,515.363,1553.333,515.363,1556.617L515.363,1559.9"/><path marker-end="url(#my-svg_flowchart-pointEnd)" style="fill:none;stroke-width:2px;stroke-dasharray:3;" class="edge-thickness-normal edge-pattern-dotted flowchart-link LS-rf_model LE-r_predict_stability" id="L-rf_model-r_predict_stability-0" d="M556.309,1431.2L556.309,1435.367C556.309,1439.533,556.309,1447.867,552.863,1455.567C549.418,1463.268,542.527,1470.337,539.082,1473.871L535.636,1477.405"/><path marker-end="url(#my-svg_flowchart-pointEnd)" style="fill:none;" class="edge-thickness-normal edge-pattern-solid flowchart-link LS-bcftools_annotate3 LE-output_vcfs" id="L-bcftools_annotate3-output_vcfs-0" d="M515.363,1616.8L515.363,1620.967C515.363,1625.133,515.363,1633.467,515.363,1641.8C515.363,1650.133,515.363,1658.467,515.429,1666C515.495,1673.534,515.627,1680.267,515.693,1683.634L515.759,1687.001"/><path style="stroke-width: 0;fill:none;" class="edge-thickness-thick edge-pattern-solid flowchart-link LS-legend LE-input_vcf" id="L-legend-input_vcf-0" d="M491.398,288L491.398,292.167C491.398,296.333,491.398,304.667,491.398,313C491.398,321.333,491.398,329.667,491.398,333.833L491.398,338"/></g><g class="edgeLabels"><g class="edgeLabel"><g transform="translate(0, 0)" class="label"><rect height="0" width="0" ry="0" rx="0"/><text style=""><tspan class="row" x="0" dy="1em" xml:space="preserve"/></text></g></g><g class="edgeLabel"><g transform="translate(0, 0)" class="label"><rect height="0" width="0" ry="0" rx="0"/><text style=""><tspan class="row" x="0" dy="1em" xml:space="preserve"/></text></g></g><g class="edgeLabel"><g transform="translate(0, 0)" class="label"><rect height="0" width="0" ry="0" rx="0"/><text style=""><tspan class="row" x="0" dy="1em" xml:space="preserve"/></text></g></g><g class="edgeLabel"><g transform="translate(0, 0)" class="label"><rect height="0" width="0" ry="0" rx="0"/><text style=""><tspan class="row" x="0" dy="1em" xml:space="preserve"/></text></g></g><g class="edgeLabel"><g transform="translate(0, 0)" class="label"><rect height="0" width="0" ry="0" rx="0"/><text style=""><tspan class="row" x="0" dy="1em" xml:space="preserve"/></text></g></g><g class="edgeLabel"><g transform="translate(0, 0)" class="label"><rect height="0" width="0" ry="0" rx="0"/><text style=""><tspan class="row" x="0" dy="1em" xml:space="preserve"/></text></g></g><g class="edgeLabel"><g transform="translate(0, 0)" class="label"><rect height="0" width="0" ry="0" rx="0"/><text style=""><tspan class="row" x="0" dy="1em" xml:space="preserve"/></text></g></g><g class="edgeLabel"><g transform="translate(0, 0)" class="label"><rect height="0" width="0" ry="0" rx="0"/><text style=""><tspan class="row" x="0" dy="1em" xml:space="preserve"/></text></g></g><g class="edgeLabel"><g transform="translate(0, 0)" class="label"><rect height="0" width="0" ry="0" rx="0"/><text style=""><tspan class="row" x="0" dy="1em" xml:space="preserve"/></text></g></g><g class="edgeLabel"><g transform="translate(0, 0)" class="label"><rect height="0" width="0" ry="0" rx="0"/><text style=""><tspan class="row" x="0" dy="1em" xml:space="preserve"/></text></g></g><g class="edgeLabel"><g transform="translate(0, 0)" class="label"><rect height="0" width="0" ry="0" rx="0"/><text style=""><tspan class="row" x="0" dy="1em" xml:space="preserve"/></text></g></g><g class="edgeLabel"><g transform="translate(0, 0)" class="label"><rect height="0" width="0" ry="0" rx="0"/><text style=""><tspan class="row" x="0" dy="1em" xml:space="preserve"/></text></g></g><g class="edgeLabel"><g transform="translate(0, 0)" class="label"><rect height="0" width="0" ry="0" rx="0"/><text style=""><tspan class="row" x="0" dy="1em" xml:space="preserve"/></text></g></g><g class="edgeLabel"><g transform="translate(0, 0)" class="label"><rect height="0" width="0" ry="0" rx="0"/><text style=""><tspan class="row" x="0" dy="1em" xml:space="preserve"/></text></g></g><g class="edgeLabel"><g transform="translate(0, 0)" class="label"><rect height="0" width="0" ry="0" rx="0"/><text style=""><tspan class="row" x="0" dy="1em" xml:space="preserve"/></text></g></g><g class="edgeLabel"><g transform="translate(0, 0)" class="label"><rect height="0" width="0" ry="0" rx="0"/><text style=""><tspan class="row" x="0" dy="1em" xml:space="preserve"/></text></g></g><g class="edgeLabel"><g transform="translate(0, 0)" class="label"><rect height="0" width="0" ry="0" rx="0"/><text style=""><tspan class="row" x="0" dy="1em" xml:space="preserve"/></text></g></g><g class="edgeLabel"><g transform="translate(0, 0)" class="label"><rect height="0" width="0" ry="0" rx="0"/><text style=""><tspan class="row" x="0" dy="1em" xml:space="preserve"/></text></g></g><g class="edgeLabel"><g transform="translate(0, 0)" class="label"><rect height="0" width="0" ry="0" rx="0"/><text style=""><tspan class="row" x="0" dy="1em" xml:space="preserve"/></text></g></g><g class="edgeLabel"><g transform="translate(0, 0)" class="label"><rect height="0" width="0" ry="0" rx="0"/><text style=""><tspan class="row" x="0" dy="1em" xml:space="preserve"/></text></g></g><g class="edgeLabel"><g transform="translate(0, 0)" class="label"><rect height="0" width="0" ry="0" rx="0"/><text style=""><tspan class="row" x="0" dy="1em" xml:space="preserve"/></text></g></g><g class="edgeLabel"><g transform="translate(0, 0)" class="label"><rect height="0" width="0" ry="0" rx="0"/><text style=""><tspan class="row" x="0" dy="1em" xml:space="preserve"/></text></g></g></g><g class="nodes"><g transform="translate(515.36328125, 1590.9999961853027)" data-id="bcftools_annotate3" data-node="true" id="flowchart-bcftools_annotate3-48" class="node default bcftools flowchart-label"><rect height="51.599998474121094" width="155.09375" y="-25.799999237060547" x="-77.546875" ry="0" rx="0" style="" class="basic label-container"/><g transform="translate(0, -18.299999237060547)" style="" class="label"><rect/><g><rect class="background"/><text y="-10.1"><tspan dy="1.1em" y="-0.1em" x="0" class="text-outer-tspan"><tspan font-weight="normal" class="text-inner-tspan" font-style="normal">bcftools</tspan><tspan font-weight="normal" class="text-inner-tspan" font-style="normal"> annotate</tspan></tspan><tspan dy="1.1em" y="1em" x="0" class="text-outer-tspan"><tspan font-weight="normal" class="text-inner-tspan" font-style="italic">Stability</tspan></tspan></text></g></g></g><g transform="translate(515.36328125, 1498.1999969482422)" data-id="r_predict_stability" data-node="true" id="flowchart-r_predict_stability-46" class="node default R flowchart-label"><rect height="34" width="215.1875" y="-17" x="-107.59375" ry="0" rx="0" style="" class="basic label-container"/><g transform="translate(0, -9.5)" style="" class="label"><rect/><text style=""><tspan class="row" x="0" dy="1em" xml:space="preserve">predict-liftover-stability.R</tspan></text></g></g><g transform="translate(556.30859375, 1413.6999969482422)" data-id="rf_model" data-node="true" id="flowchart-rf_model-49" class="node default input flowchart-label"><rect height="35" width="93.78125" y="-17.5" x="-46.890625" ry="17.5" rx="17.5" style=""/><g transform="translate(0, -10)" style="" class="label"><rect/><text style=""><tspan class="row" x="0" dy="1em" xml:space="preserve">rf_model</tspan></text></g></g><g transform="translate(286.23828125, 826.5)" data-id="funcotator_sources" data-node="true" id="flowchart-funcotator_sources-28" class="node default input flowchart-label"><rect height="35" width="176.4375" y="-17.5" x="-88.21875" ry="17.5" rx="17.5" style=""/><g transform="translate(0, -10)" style="" class="label"><rect/><text style=""><tspan class="row" x="0" dy="1em" xml:space="preserve">funcotator_sources</tspan></text></g></g><g transform="translate(108.86328125, 632.5)" data-id="chain_file" data-node="true" id="flowchart-chain_file-24" class="node default input flowchart-label"><rect height="35" width="99.453125" y="-17.5" x="-49.7265625" ry="17.5" rx="17.5" style=""/><g transform="translate(0, -10)" style="" class="label"><rect/><text style=""><tspan class="row" x="0" dy="1em" xml:space="preserve">chain_file</tspan></text></g></g><g transform="translate(390.828125, 911.5)" data-id="repeat_bed" data-node="true" id="flowchart-repeat_bed-30" class="node default input flowchart-label"><rect height="35" width="114.0625" y="-17.5" x="-57.03125" ry="17.5" rx="17.5" style=""/><g transform="translate(0, -10)" style="" class="label"><rect/><text style=""><tspan class="row" x="0" dy="1em" xml:space="preserve">repeat_bed</tspan></text></g></g><g transform="translate(269.88671875, 1199.1999969482422)" data-id="r_extract_snv" data-node="true" id="flowchart-r_extract_snv-35" class="node default R flowchart-label"><rect height="34" width="196" y="-17" x="-98" ry="0" rx="0" style="" class="basic label-container"/><g transform="translate(0, -9.5)" style="" class="label"><rect/><text style=""><tspan class="row" x="0" dy="1em" xml:space="preserve">extract-VCF-features.R</tspan></text></g></g><g transform="translate(269.88671875, 1106.3999977111816)" data-id="bcftools_annotate2" data-node="true" id="flowchart-bcftools_annotate2-34" class="node default bcftools flowchart-label"><rect height="51.599998474121094" width="155.09375" y="-25.799999237060547" x="-77.546875" ry="0" rx="0" style="" class="basic label-container"/><g transform="translate(0, -18.299999237060547)" style="" class="label"><rect/><g><rect class="background"/><text y="-10.1"><tspan dy="1.1em" y="-0.1em" x="0" class="text-outer-tspan"><tspan font-weight="normal" class="text-inner-tspan" font-style="normal">bcftools</tspan><tspan font-weight="normal" class="text-inner-tspan" font-style="normal"> annotate</tspan></tspan><tspan dy="1.1em" y="1em" x="0" class="text-outer-tspan"><tspan font-weight="normal" class="text-inner-tspan" font-style="italic">Trinucleotide</tspan></tspan></text></g></g></g><g transform="translate(269.88671875, 1004.7999992370605)" data-id="bcftools_annotate" data-node="true" id="flowchart-bcftools_annotate-33" class="node default bcftools flowchart-label"><rect height="51.599998474121094" width="155.09375" y="-25.799999237060547" x="-77.546875" ry="0" rx="0" style="" class="basic label-container"/><g transform="translate(0, -18.299999237060547)" style="" class="label"><rect/><g><rect class="background"/><text y="-10.1"><tspan dy="1.1em" y="-0.1em" x="0" class="text-outer-tspan"><tspan font-weight="normal" class="text-inner-tspan" font-style="normal">bcftools</tspan><tspan font-weight="normal" class="text-inner-tspan" font-style="normal"> annotate</tspan></tspan><tspan dy="1.1em" y="1em" x="0" class="text-outer-tspan"><tspan font-weight="normal" class="text-inner-tspan" font-style="italic">RepeatMasker</tspan></tspan></text></g></g></g><g transform="translate(212.8359375, 911.5)" data-id="gatk_func" data-node="true" id="flowchart-gatk_func-32" class="node default gatk flowchart-label"><rect height="34" width="141.921875" y="-17" x="-70.9609375" ry="0" rx="0" style="" class="basic label-container"/><g transform="translate(0, -9.5)" style="" class="label"><rect/><text style=""><tspan class="row" x="0" dy="1em" xml:space="preserve">gatk Funcotator</tspan></text></g></g><g transform="translate(151.2265625, 717)" data-id="bcftools_liftover" data-node="true" id="flowchart-bcftools_liftover-25" class="node default bcftools flowchart-label"><rect height="34" width="153.046875" y="-17" x="-76.5234375" ry="0" rx="0" style="" class="basic label-container"/><g transform="translate(0, -9.5)" style="" class="label"><rect/><text style=""><tspan class="row" x="0" dy="1em" xml:space="preserve">bcftools +liftover</tspan></text></g></g><g transform="translate(740.17578125, 911.5)" data-id="header_contigs" data-node="true" id="flowchart-header_contigs-13" class="node default input flowchart-label"><rect height="35" width="146.0625" y="-17.5" x="-73.03125" ry="17.5" rx="17.5" style=""/><g transform="translate(0, -10)" style="" class="label"><rect/><text style=""><tspan class="row" x="0" dy="1em" xml:space="preserve">header_contigs</tspan></text></g></g><g transform="translate(848.20703125, 826.5)" data-id="chain_file2" data-node="true" id="flowchart-chain_file2-15" class="node default input flowchart-label"><rect height="35" width="99.453125" y="-17.5" x="-49.7265625" ry="17.5" rx="17.5" style=""/><g transform="translate(0, -10)" style="" class="label"><rect/><text style=""><tspan class="row" x="0" dy="1em" xml:space="preserve">chain_file</tspan></text></g></g><g transform="translate(644.08984375, 1106.3999977111816)" data-id="gnomad_rds" data-node="true" id="flowchart-gnomad_rds-17" class="node default input flowchart-label"><rect height="35" width="122.171875" y="-17.5" x="-61.0859375" ry="17.5" rx="17.5" style=""/><g transform="translate(0, -10)" style="" class="label"><rect/><text style=""><tspan class="row" x="0" dy="1em" xml:space="preserve">gnomad_rds</tspan></text></g></g><g transform="translate(692.1328125, 1199.1999969482422)" data-id="r_extract_sv" data-node="true" id="flowchart-r_extract_sv-18" class="node default R flowchart-label"><rect height="34" width="220.8125" y="-17" x="-110.40625" ry="0" rx="0" style="" class="basic label-container"/><g transform="translate(0, -9.5)" style="" class="label"><rect/><text style=""><tspan class="row" x="0" dy="1em" xml:space="preserve">extract-VCF-features-SV.R</tspan></text></g></g><g transform="translate(740.17578125, 1004.7999992370605)" data-id="r_liftover" data-node="true" id="flowchart-r_liftover-12" class="node default R flowchart-label"><rect height="34" width="170.9375" y="-17" x="-85.46875" ry="0" rx="0" style="" class="basic label-container"/><g transform="translate(0, -9.5)" style="" class="label"><rect/><text style=""><tspan class="row" x="0" dy="1em" xml:space="preserve">liftover-Delly2-vcf.R</tspan></text></g></g><g transform="translate(170.6796875, -8)" class="root"><g class="clusters"><g id="legend" class="cluster default flowchart-label"><rect height="288" width="626.4375" y="8" x="8" ry="0" rx="0" style=""/><g transform="translate(321.21875, 8)" class="cluster-label"><g><rect class="background"/><text y="-10.1"><tspan dy="1.1em" y="-0.1em" x="0" class="text-outer-tspan"><tspan font-weight="bold" class="text-inner-tspan" font-style="normal">Legend</tspan></tspan></text></g></g></g></g><g class="edgePaths"/><g class="edgeLabels"/><g class="nodes"><g transform="translate(25.5, 35)" class="root"><g class="clusters"><g id="nodes" class="cluster default flowchart-label"><rect height="84" width="576.4375" y="8" x="8" ry="0" rx="0" style=""/><g transform="translate(296.21875, 8)" class="cluster-label"><g><rect class="background"/><text y="-10.1"><tspan dy="1.1em" y="-0.1em" x="0" class="text-outer-tspan"><tspan font-weight="bold" class="text-inner-tspan" font-style="normal">Nodes</tspan></tspan></text></g></g></g></g><g class="edgePaths"/><g class="edgeLabels"/><g class="nodes"><g transform="translate(95.1484375, 50)" data-id="input" data-node="true" id="flowchart-input-0" class="node default input flowchart-label"><polygon style="" transform="translate(-44.1484375,17)" class="label-container" points="0,0 88.296875,0 88.296875,-34 0,-34 0,0 -8,0 96.296875,0 96.296875,-34 -8,-34 -8,0"/><g transform="translate(0, -9.5)" style="" class="label"><rect/><text style=""><tspan class="row" x="0" dy="1em" xml:space="preserve">Input File</tspan></text></g></g><g transform="translate(290.3515625, 50)" data-id="input_node" data-node="true" id="flowchart-input_node-1" class="node default input flowchart-label"><rect height="34" width="186.109375" y="-17" x="-93.0546875" ry="17" rx="17" style=""/><g transform="translate(0, -9.5)" style="" class="label"><rect/><text style=""><tspan class="row" x="0" dy="1em" xml:space="preserve">Parameterized Input</tspan></text></g></g><g transform="translate(491.421875, 50)" data-id="output" data-node="true" id="flowchart-output-2" class="node default output flowchart-label"><polygon style="" transform="translate(-50.015625,17)" class="label-container" points="0,0 100.03125,0 100.03125,-34 0,-34 0,0 -8,0 108.03125,0 108.03125,-34 -8,-34 -8,0"/><g transform="translate(0, -9.5)" style="" class="label"><rect/><text style=""><tspan class="row" x="0" dy="1em" xml:space="preserve">Output file</tspan></text></g></g></g></g><g transform="translate(37.8359375, 169)" class="root"><g class="clusters"><g id="processes" class="cluster default flowchart-label"><rect height="84" width="551.765625" y="8" x="8" ry="0" rx="0" style=""/><g transform="translate(283.8828125, 8)" class="cluster-label"><g><rect class="background"/><text y="-10.1"><tspan dy="1.1em" y="-0.1em" x="0" class="text-outer-tspan"><tspan font-weight="bold" class="text-inner-tspan" font-style="normal">Processes</tspan></tspan></text></g></g></g></g><g class="edgePaths"/><g class="edgeLabels"/><g class="nodes"><g transform="translate(71.9375, 50)" data-id="gatk_docker" data-node="true" id="flowchart-gatk_docker-3" class="node default gatk flowchart-label"><rect height="34" width="57.875" y="-17" x="-28.9375" ry="0" rx="0" style="" class="basic label-container"/><g transform="translate(0, -9.5)" style="" class="label"><rect/><text style=""><tspan class="row" x="0" dy="1em" xml:space="preserve">GATK</tspan></text></g></g><g transform="translate(189.84375, 50)" data-id="bcftools_docker" data-node="true" id="flowchart-bcftools_docker-4" class="node default bcftools flowchart-label"><rect height="34" width="77.9375" y="-17" x="-38.96875" ry="0" rx="0" style="" class="basic label-container"/><g transform="translate(0, -9.5)" style="" class="label"><rect/><text style=""><tspan class="row" x="0" dy="1em" xml:space="preserve">bcftools</tspan></text></g></g><g transform="translate(314.1640625, 50)" data-id="r_docker" data-node="true" id="flowchart-r_docker-5" class="node default R flowchart-label"><rect height="34" width="70.703125" y="-17" x="-35.3515625" ry="0" rx="0" style="" class="basic label-container"/><g transform="translate(0, -9.5)" style="" class="label"><rect/><text style=""><tspan class="row" x="0" dy="1em" xml:space="preserve">Rscript</tspan></text></g></g><g transform="translate(462.140625, 50)" data-id="linux_docker" data-node="true" id="flowchart-linux_docker-6" class="node default linux flowchart-label"><rect height="34" width="125.25" y="-17" x="-62.625" ry="0" rx="0" style="" class="basic label-container"/><g transform="translate(0, -9.5)" style="" class="label"><rect/><text style=""><tspan class="row" x="0" dy="1em" xml:space="preserve">Generic Linux</tspan></text></g></g></g></g></g></g><g transform="translate(491.3984375, 355)" data-id="input_vcf" data-node="true" id="flowchart-input_vcf-8" class="node default input flowchart-label"><polygon style="" transform="translate(-46.421875,17)" class="label-container" points="0,0 92.84375,0 92.84375,-34 0,-34 0,0 -8,0 100.84375,0 100.84375,-34 -8,-34 -8,0"/><g transform="translate(0, -9.5)" style="" class="label"><rect/><text style=""><tspan class="row" x="0" dy="1em" xml:space="preserve">Input VCF</tspan></text></g></g><g transform="translate(491.3984375, 439)" data-id="pipeval" data-node="true" id="flowchart-pipeval-9" class="node default linux flowchart-label"><rect height="34" width="73.328125" y="-17" x="-36.6640625" ry="0" rx="0" style="" class="basic label-container"/><g transform="translate(0, -9.5)" style="" class="label"><rect/><text style=""><tspan class="row" x="0" dy="1em" xml:space="preserve">pipeval</tspan></text></g></g><g transform="translate(491.3984375, 523)" data-id="sv_vs_snv" data-node="true" id="flowchart-sv_vs_snv-10" class="node default default flowchart-label"><polygon style="" transform="translate(-69.5390625,17)" class="label-container" points="8.5,0 130.578125,0 139.078125,-17 130.578125,-34 8.5,-34 0,-17"/><g transform="translate(0, -9.5)" style="" class="label"><rect/><text style=""><tspan class="row" x="0" dy="1em" xml:space="preserve">Variant Type?</tspan></text></g></g><g transform="translate(474.41796875, 1306.1999969482422)" data-id="joinpaths" data-node="true" id="flowchart-joinpaths-40" class="node default default flowchart-label"><polygon style="" transform="translate(-15,15)" class="label-container" points="15,0 30,-15 15,-30 0,-15"/><g transform="translate(0, 0)" style="" class="label"><rect/><text style=""><tspan class="row" x="0" dy="1em" xml:space="preserve"/></text></g></g><g transform="translate(515.36328125, 1708.7999954223633)" data-id="output_vcfs" data-node="true" id="flowchart-output_vcfs-52" class="node default output flowchart-label"><polygon style="" transform="translate(-57.6640625,17)" class="label-container" points="0,0 115.328125,0 115.328125,-34 0,-34 0,0 -8,0 123.328125,0 123.328125,-34 -8,-34 -8,0"/><g transform="translate(0, -9.5)" style="" class="label"><rect/><text style=""><tspan class="row" x="0" dy="1em" xml:space="preserve">Output VCFs</tspan></text></g></g></g></g></g></svg>