<svg aria-roledescription="flowchart-v2" role="graphics-document document" viewBox="-8 -8 1154.37890625 1828.199951171875" style="max-width: 1154.38px; background-color: white;" xmlns:xlink="http://www.w3.org/1999/xlink" xmlns="http://www.w3.org/2000/svg" width="100%" id="my-svg"><style>#my-svg{font-family:"trebuchet ms",verdana,arial,sans-serif;font-size:16px;fill:#333;}#my-svg .error-icon{fill:#552222;}#my-svg .error-text{fill:#552222;stroke:#552222;}#my-svg .edge-thickness-normal{stroke-width:2px;}#my-svg .edge-thickness-thick{stroke-width:3.5px;}#my-svg .edge-pattern-solid{stroke-dasharray:0;}#my-svg .edge-pattern-dashed{stroke-dasharray:3;}#my-svg .edge-pattern-dotted{stroke-dasharray:2;}#my-svg .marker{fill:#333333;stroke:#333333;}#my-svg .marker.cross{stroke:#333333;}#my-svg svg{font-family:"trebuchet ms",verdana,arial,sans-serif;font-size:16px;}#my-svg .label{font-family:"trebuchet ms",verdana,arial,sans-serif;color:#333;}#my-svg .cluster-label text{fill:#333;}#my-svg .cluster-label span,#my-svg p{color:#333;}#my-svg .label text,#my-svg span,#my-svg p{fill:#333;color:#333;}#my-svg .node rect,#my-svg .node circle,#my-svg .node ellipse,#my-svg .node polygon,#my-svg .node path{fill:#ECECFF;stroke:#9370DB;stroke-width:1px;}#my-svg .flowchart-label text{text-anchor:middle;}#my-svg .node .katex path{fill:#000;stroke:#000;stroke-width:1px;}#my-svg .node .label{text-align:center;}#my-svg .node.clickable{cursor:pointer;}#my-svg .arrowheadPath{fill:#333333;}#my-svg .edgePath .path{stroke:#333333;stroke-width:2.0px;}#my-svg .flowchart-link{stroke:#333333;fill:none;}#my-svg .edgeLabel{background-color:#e8e8e8;text-align:center;}#my-svg .edgeLabel rect{opacity:0.5;background-color:#e8e8e8;fill:#e8e8e8;}#my-svg .labelBkg{background-color:rgba(232, 232, 232, 0.5);}#my-svg .cluster rect{fill:#ffffde;stroke:#aaaa33;stroke-width:1px;}#my-svg .cluster text{fill:#333;}#my-svg .cluster span,#my-svg p{color:#333;}#my-svg div.mermaidTooltip{position:absolute;text-align:center;max-width:200px;padding:2px;font-family:"trebuchet ms",verdana,arial,sans-serif;font-size:12px;background:hsl(80, 100%, 96.2745098039%);border:1px solid #aaaa33;border-radius:2px;pointer-events:none;z-index:100;}#my-svg .flowchartTitleText{text-anchor:middle;font-size:18px;fill:#333;}#my-svg :root{--mermaid-font-family:"trebuchet ms",verdana,arial,sans-serif;}#my-svg .input rect{fill:#ffffb3!important;}#my-svg .input polygon{fill:#ffffb3!important;}#my-svg .input ellipse{fill:#ffffb3!important;}#my-svg .input circle{fill:#ffffb3!important;}#my-svg .input path{fill:#ffffb3!important;}#my-svg .output rect{fill:#b3de69!important;}#my-svg .output polygon{fill:#b3de69!important;}#my-svg .output ellipse{fill:#b3de69!important;}#my-svg .output circle{fill:#b3de69!important;}#my-svg .output path{fill:#b3de69!important;}#my-svg .gatk rect{fill:#bebada!important;}#my-svg .gatk polygon{fill:#bebada!important;}#my-svg .gatk ellipse{fill:#bebada!important;}#my-svg .gatk circle{fill:#bebada!important;}#my-svg .gatk path{fill:#bebada!important;}#my-svg .bcftools rect{fill:#fdb462!important;}#my-svg .bcftools polygon{fill:#fdb462!important;}#my-svg .bcftools ellipse{fill:#fdb462!important;}#my-svg .bcftools circle{fill:#fdb462!important;}#my-svg .bcftools path{fill:#fdb462!important;}#my-svg .R rect{fill:#8dd3c7!important;}#my-svg .R polygon{fill:#8dd3c7!important;}#my-svg .R ellipse{fill:#8dd3c7!important;}#my-svg .R circle{fill:#8dd3c7!important;}#my-svg .R path{fill:#8dd3c7!important;}#my-svg .linux rect{fill:#fb8072!important;}#my-svg .linux polygon{fill:#fb8072!important;}#my-svg .linux ellipse{fill:#fb8072!important;}#my-svg .linux circle{fill:#fb8072!important;}#my-svg .linux path{fill:#fb8072!important;}</style><g><marker orient="auto" markerHeight="12" markerWidth="12" markerUnits="userSpaceOnUse" refY="5" refX="6" viewBox="0 0 10 10" class="marker flowchart" id="my-svg_flowchart-pointEnd"><path style="stroke-width: 1; stroke-dasharray: 1, 0;" class="arrowMarkerPath" d="M 0 0 L 10 5 L 0 10 z"/></marker><marker orient="auto" markerHeight="12" markerWidth="12" markerUnits="userSpaceOnUse" refY="5" refX="4.5" viewBox="0 0 10 10" class="marker flowchart" id="my-svg_flowchart-pointStart"><path style="stroke-width: 1; stroke-dasharray: 1, 0;" class="arrowMarkerPath" d="M 0 5 L 10 10 L 10 0 z"/></marker><marker orient="auto" markerHeight="11" markerWidth="11" markerUnits="userSpaceOnUse" refY="5" refX="11" viewBox="0 0 10 10" class="marker flowchart" id="my-svg_flowchart-circleEnd"><circle style="stroke-width: 1; stroke-dasharray: 1, 0;" class="arrowMarkerPath" r="5" cy="5" cx="5"/></marker><marker orient="auto" markerHeight="11" markerWidth="11" markerUnits="userSpaceOnUse" refY="5" refX="-1" viewBox="0 0 10 10" class="marker flowchart" id="my-svg_flowchart-circleStart"><circle style="stroke-width: 1; stroke-dasharray: 1, 0;" class="arrowMarkerPath" r="5" cy="5" cx="5"/></marker><marker orient="auto" markerHeight="11" markerWidth="11" markerUnits="userSpaceOnUse" refY="5.2" refX="12" viewBox="0 0 11 11" class="marker cross flowchart" id="my-svg_flowchart-crossEnd"><path style="stroke-width: 2; stroke-dasharray: 1, 0;" class="arrowMarkerPath" d="M 1,1 l 9,9 M 10,1 l -9,9"/></marker><marker orient="auto" markerHeight="11" markerWidth="11" markerUnits="userSpaceOnUse" refY="5.2" refX="-1" viewBox="0 0 11 11" class="marker cross flowchart" id="my-svg_flowchart-crossStart"><path style="stroke-width: 2; stroke-dasharray: 1, 0;" class="arrowMarkerPath" d="M 1,1 l 9,9 M 10,1 l -9,9"/></marker><g class="root"><g class="clusters"><g id="Predict Stability" class="cluster default flowchart-label"><rect height="270.5999984741211" width="296.47265625" y="1457.599998474121" x="538.78515625" ry="0" rx="0" style=""/><g transform="translate(687.021484375, 1457.599998474121)" class="cluster-label"><g><rect class="background"/><text y="-10.1"><tspan dy="1.1em" y="-0.1em" x="0" class="text-outer-tspan"><tspan font-weight="normal" class="text-inner-tspan" font-style="normal">        </tspan><tspan font-weight="bold" class="text-inner-tspan" font-style="normal"> Predict</tspan><tspan font-weight="bold" class="text-inner-tspan" font-style="normal"> Stability</tspan></tspan></text></g></g></g><g id="SNV" class="cluster default flowchart-label"><rect height="821.5999984741211" width="625.60546875" y="506" x="0" ry="0" rx="0" style=""/><g transform="translate(312.802734375, 506)" class="cluster-label"><g><rect class="background"/><text y="-10.1"><tspan dy="1.1em" y="-0.1em" x="0" class="text-outer-tspan"><tspan font-weight="bold" class="text-inner-tspan" font-style="normal">SNV</tspan></tspan></text></g></g></g><g id="SV" class="cluster default flowchart-label"><rect height="382.5999984741211" width="470.50390625" y="945" x="667.875" ry="0" rx="0" style=""/><g transform="translate(903.126953125, 945)" class="cluster-label"><g><rect class="background"/><text y="-10.1"><tspan dy="1.1em" y="-0.1em" x="0" class="text-outer-tspan"><tspan font-weight="bold" class="text-inner-tspan" font-style="normal">SV</tspan></tspan></text></g></g></g><g id="SNV_liftover" class="cluster default flowchart-label"><rect height="169" width="223.046875" y="531" x="151.96484375" ry="0" rx="0" style=""/><g transform="translate(263.48828125, 531)" class="cluster-label"><g><rect class="background"/><text y="-10.1"><tspan dy="1.1em" y="-0.1em" x="0" class="text-outer-tspan"><tspan font-weight="bold" class="text-inner-tspan" font-style="normal">Liftover</tspan></tspan></text></g></g></g><g id="SNV_annotation" class="cluster default flowchart-label"><rect height="398.1999969482422" width="418.1640625" y="750" x="187.21484375" ry="0" rx="0" style=""/><g transform="translate(396.296875, 750)" class="cluster-label"><g><rect class="background"/><text y="-10.1"><tspan dy="1.1em" y="-0.1em" x="0" class="text-outer-tspan"><tspan font-weight="bold" class="text-inner-tspan" font-style="normal">Annotation</tspan></tspan></text></g></g></g></g><g class="edgePaths"><path marker-end="url(#my-svg_flowchart-pointEnd)" style="fill:none;" class="edge-thickness-normal edge-pattern-solid flowchart-link LS-input_vcf LE-pipeval" id="L-input_vcf-pipeval-0" d="M730.645,372.5L730.561,376.583C730.478,380.667,730.311,388.833,730.228,396.2C730.145,403.567,730.145,410.133,730.145,413.417L730.145,416.7"/><path marker-end="url(#my-svg_flowchart-pointEnd)" style="fill:none;" class="edge-thickness-normal edge-pattern-solid flowchart-link LS-pipeval LE-sv_vs_snv" id="L-pipeval-sv_vs_snv-0" d="M730.145,456L730.145,460.167C730.145,464.333,730.145,472.667,730.145,481C730.145,489.333,730.145,497.667,730.145,506C730.145,514.333,730.145,522.667,730.211,530.283C730.277,537.9,730.41,544.801,730.476,548.251L730.543,551.701"/><path marker-end="url(#my-svg_flowchart-pointEnd)" style="fill:none;" class="edge-thickness-normal edge-pattern-solid flowchart-link LS-sv_vs_snv LE-r_extract_sv" id="L-sv_vs_snv-r_extract_sv-0" d="M730.645,591L730.561,595.167C730.478,599.333,730.311,607.667,730.228,618.833C730.145,630,730.145,644,730.145,658C730.145,672,730.145,686,730.145,697.167C730.145,708.333,730.145,716.667,730.145,725C730.145,733.333,730.145,741.667,730.145,752.917C730.145,764.167,730.145,778.333,730.145,792.5C730.145,806.667,730.145,820.833,730.145,835C730.145,849.167,730.145,863.333,730.145,877.5C730.145,891.667,730.145,905.833,730.145,917.083C730.145,928.333,730.145,936.667,730.145,949.3C730.145,961.933,730.145,978.867,730.145,995.8C730.145,1012.733,730.145,1029.667,730.145,1046.6C730.145,1063.533,730.145,1080.467,730.145,1097.4C730.145,1114.333,730.145,1131.267,730.145,1143.9C730.145,1156.533,730.145,1164.867,749.652,1178.675C769.16,1192.484,808.175,1211.768,827.683,1221.41L847.19,1231.052"/><path marker-end="url(#my-svg_flowchart-pointEnd)" style="fill:none;stroke-width:2px;stroke-dasharray:3;" class="edge-thickness-normal edge-pattern-dotted flowchart-link LS-header_contigs LE-r_extract_sv" id="L-header_contigs-r_extract_sv-0" d="M838.176,1114.9L838.176,1120.45C838.176,1126,838.176,1137.1,838.176,1146.817C838.176,1156.533,838.176,1164.867,843.967,1178.317C849.759,1191.768,861.342,1210.336,867.134,1219.619L872.925,1228.903"/><path marker-end="url(#my-svg_flowchart-pointEnd)" style="fill:none;stroke-width:2px;stroke-dasharray:3;" class="edge-thickness-normal edge-pattern-dotted flowchart-link LS-chain_file2 LE-r_extract_sv" id="L-chain_file2-r_extract_sv-0" d="M946.207,1013.3L946.207,1018.85C946.207,1024.4,946.207,1035.5,946.207,1049.517C946.207,1063.533,946.207,1080.467,946.207,1097.4C946.207,1114.333,946.207,1131.267,946.207,1143.9C946.207,1156.533,946.207,1164.867,938.967,1178.369C931.727,1191.871,917.248,1210.541,910.008,1219.877L902.768,1229.212"/><path marker-end="url(#my-svg_flowchart-pointEnd)" style="fill:none;stroke-width:2px;stroke-dasharray:3;" class="edge-thickness-normal edge-pattern-dotted flowchart-link LS-gnomad_rds LE-r_extract_sv" id="L-gnomad_rds-r_extract_sv-0" d="M1042.293,1114.9L1042.293,1120.45C1042.293,1126,1042.293,1137.1,1042.293,1146.817C1042.293,1156.533,1042.293,1164.867,1022.816,1178.675C1003.338,1192.483,964.383,1211.766,944.906,1221.407L925.429,1231.049"/><path marker-end="url(#my-svg_flowchart-pointEnd)" style="fill:none;stroke-width:2px;stroke-dasharray:3;" class="edge-thickness-normal edge-pattern-dotted flowchart-link LS-chain_file LE-bcftools_liftover" id="L-chain_file-bcftools_liftover-0" d="M250.09,591L250.09,595.167C250.09,599.333,250.09,607.667,251.151,615.158C252.211,622.65,254.333,629.3,255.394,632.626L256.454,635.951"/><path marker-end="url(#my-svg_flowchart-pointEnd)" style="fill:none;" class="edge-thickness-normal edge-pattern-solid flowchart-link LS-sv_vs_snv LE-bcftools_liftover" id="L-sv_vs_snv-bcftools_liftover-0" d="M664.448,580.684L605.248,586.57C546.048,592.456,427.649,604.228,364.561,613.683C301.472,623.139,293.694,630.278,289.805,633.847L285.916,637.416"/><path marker-end="url(#my-svg_flowchart-pointEnd)" style="fill:none;" class="edge-thickness-normal edge-pattern-solid flowchart-link LS-gatk_func LE-bcftools_annotate" id="L-gatk_func-bcftools_annotate-0" d="M325.098,894.5L325.098,898.75C325.098,903,325.098,911.5,325.098,919.917C325.098,928.333,325.098,936.667,330.152,944.483C335.207,952.299,345.316,959.598,350.37,963.248L355.424,966.897"/><path marker-end="url(#my-svg_flowchart-pointEnd)" style="fill:none;" class="edge-thickness-normal edge-pattern-solid flowchart-link LS-bcftools_annotate LE-bcftools_annotate2" id="L-bcftools_annotate-bcftools_annotate2-0" d="M395.453,1021.6L395.453,1025.767C395.453,1029.933,395.453,1038.267,395.453,1045.717C395.453,1053.167,395.453,1059.733,395.453,1063.017L395.453,1066.3"/><path marker-end="url(#my-svg_flowchart-pointEnd)" style="fill:none;" class="edge-thickness-normal edge-pattern-solid flowchart-link LS-bcftools_liftover LE-gatk_func" id="L-bcftools_liftover-gatk_func-0" d="M263.488,675L263.488,679.167C263.488,683.333,263.488,691.667,263.488,700C263.488,708.333,263.488,716.667,263.488,725C263.488,733.333,263.488,741.667,263.488,752.917C263.488,764.167,263.488,778.333,263.488,792.5C263.488,806.667,263.488,820.833,268.922,831.665C274.356,842.497,285.224,849.994,290.657,853.742L296.091,857.49"/><path marker-end="url(#my-svg_flowchart-pointEnd)" style="fill:none;" class="edge-thickness-normal edge-pattern-solid flowchart-link LS-bcftools_annotate2 LE-r_extract_snv" id="L-bcftools_annotate2-r_extract_snv-0" d="M395.453,1123.2L395.453,1127.367C395.453,1131.533,395.453,1139.867,395.453,1148.2C395.453,1156.533,395.453,1164.867,395.453,1178.183C395.453,1191.5,395.453,1209.8,395.453,1218.95L395.453,1228.1"/><path marker-end="url(#my-svg_flowchart-pointEnd)" style="fill:none;stroke-width:2px;stroke-dasharray:3;" class="edge-thickness-normal edge-pattern-dotted flowchart-link LS-funcotator_sources LE-gatk_func" id="L-funcotator_sources-gatk_func-0" d="M398.5,810L398.5,814.167C398.5,818.333,398.5,826.667,391.924,834.641C385.348,842.615,372.197,850.23,365.621,854.037L359.045,857.844"/><path marker-end="url(#my-svg_flowchart-pointEnd)" style="fill:none;stroke-width:2px;stroke-dasharray:3;" class="edge-thickness-normal edge-pattern-dotted flowchart-link LS-repeat_bed LE-bcftools_annotate" id="L-repeat_bed-bcftools_annotate-0" d="M503.09,895L503.09,899.167C503.09,903.333,503.09,911.667,503.09,920C503.09,928.333,503.09,936.667,495.06,944.623C487.031,952.579,470.971,960.159,462.942,963.948L454.912,967.738"/><path marker-end="url(#my-svg_flowchart-pointEnd)" style="fill:none;" class="edge-thickness-normal edge-pattern-solid flowchart-link LS-r_extract_snv LE-joinpaths" id="L-r_extract_snv-joinpaths-0" d="M395.453,1267.4L395.453,1277.433C395.453,1287.467,395.453,1307.533,395.453,1321.733C395.453,1335.933,395.453,1344.267,433.422,1354.689C471.391,1365.112,547.329,1377.624,585.298,1383.88L623.267,1390.136"/><path marker-end="url(#my-svg_flowchart-pointEnd)" style="fill:none;" class="edge-thickness-normal edge-pattern-solid flowchart-link LS-r_extract_sv LE-joinpaths" id="L-r_extract_sv-joinpaths-0" d="M886.336,1267.4L886.336,1277.433C886.336,1287.467,886.336,1307.533,886.336,1321.733C886.336,1335.933,886.336,1344.267,848.534,1354.689C810.731,1365.111,735.126,1377.622,697.324,1383.877L659.521,1390.133"/><path marker-end="url(#my-svg_flowchart-pointEnd)" style="fill:none;" class="edge-thickness-normal edge-pattern-solid flowchart-link LS-joinpaths LE-r_predict_stability" id="L-joinpaths-r_predict_stability-0" d="M641.395,1408.1L641.311,1412.183C641.228,1416.267,641.061,1424.433,640.978,1432.683C640.895,1440.933,640.895,1449.267,640.895,1460.517C640.895,1471.767,640.895,1485.933,640.895,1500.1C640.895,1514.267,640.895,1528.433,644.34,1539.051C647.785,1549.668,654.676,1556.737,658.122,1560.271L661.567,1563.805"/><path marker-end="url(#my-svg_flowchart-pointEnd)" style="fill:none;" class="edge-thickness-normal edge-pattern-solid flowchart-link LS-r_predict_stability LE-bcftools_annotate3" id="L-r_predict_stability-bcftools_annotate3-0" d="M681.84,1601.6L681.84,1605.767C681.84,1609.933,681.84,1618.267,681.84,1625.717C681.84,1633.167,681.84,1639.733,681.84,1643.017L681.84,1646.3"/><path marker-end="url(#my-svg_flowchart-pointEnd)" style="fill:none;stroke-width:2px;stroke-dasharray:3;" class="edge-thickness-normal edge-pattern-dotted flowchart-link LS-rf_model LE-r_predict_stability" id="L-rf_model-r_predict_stability-0" d="M722.785,1517.6L722.785,1521.767C722.785,1525.933,722.785,1534.267,719.34,1541.967C715.894,1549.668,709.003,1556.737,705.558,1560.271L702.113,1563.805"/><path marker-end="url(#my-svg_flowchart-pointEnd)" style="fill:none;" class="edge-thickness-normal edge-pattern-solid flowchart-link LS-bcftools_annotate3 LE-output_vcfs" id="L-bcftools_annotate3-output_vcfs-0" d="M681.84,1703.2L681.84,1707.367C681.84,1711.533,681.84,1719.867,681.84,1728.2C681.84,1736.533,681.84,1744.867,681.906,1752.4C681.972,1759.934,682.104,1766.667,682.17,1770.034L682.236,1773.401"/><path style="stroke-width: 0;fill:none;" class="edge-thickness-thick edge-pattern-solid flowchart-link LS-legend LE-input_vcf" id="L-legend-input_vcf-0" d="M730.145,288L730.145,292.167C730.145,296.333,730.145,304.667,730.145,313C730.145,321.333,730.145,329.667,730.145,333.833L730.145,338"/></g><g class="edgeLabels"><g class="edgeLabel"><g transform="translate(0, 0)" class="label"><rect height="0" width="0" ry="0" rx="0"/><text style=""><tspan class="row" x="0" dy="1em" xml:space="preserve"/></text></g></g><g class="edgeLabel"><g transform="translate(0, 0)" class="label"><rect height="0" width="0" ry="0" rx="0"/><text style=""><tspan class="row" x="0" dy="1em" xml:space="preserve"/></text></g></g><g class="edgeLabel"><g transform="translate(0, 0)" class="label"><rect height="0" width="0" ry="0" rx="0"/><text style=""><tspan class="row" x="0" dy="1em" xml:space="preserve"/></text></g></g><g class="edgeLabel"><g transform="translate(0, 0)" class="label"><rect height="0" width="0" ry="0" rx="0"/><text style=""><tspan class="row" x="0" dy="1em" xml:space="preserve"/></text></g></g><g class="edgeLabel"><g transform="translate(0, 0)" class="label"><rect height="0" width="0" ry="0" rx="0"/><text style=""><tspan class="row" x="0" dy="1em" xml:space="preserve"/></text></g></g><g class="edgeLabel"><g transform="translate(0, 0)" class="label"><rect height="0" width="0" ry="0" rx="0"/><text style=""><tspan class="row" x="0" dy="1em" xml:space="preserve"/></text></g></g><g class="edgeLabel"><g transform="translate(0, 0)" class="label"><rect height="0" width="0" ry="0" rx="0"/><text style=""><tspan class="row" x="0" dy="1em" xml:space="preserve"/></text></g></g><g class="edgeLabel"><g transform="translate(0, 0)" class="label"><rect height="0" width="0" ry="0" rx="0"/><text style=""><tspan class="row" x="0" dy="1em" xml:space="preserve"/></text></g></g><g class="edgeLabel"><g transform="translate(0, 0)" class="label"><rect height="0" width="0" ry="0" rx="0"/><text style=""><tspan class="row" x="0" dy="1em" xml:space="preserve"/></text></g></g><g class="edgeLabel"><g transform="translate(0, 0)" class="label"><rect height="0" width="0" ry="0" rx="0"/><text style=""><tspan class="row" x="0" dy="1em" xml:space="preserve"/></text></g></g><g class="edgeLabel"><g transform="translate(0, 0)" class="label"><rect height="0" width="0" ry="0" rx="0"/><text style=""><tspan class="row" x="0" dy="1em" xml:space="preserve"/></text></g></g><g class="edgeLabel"><g transform="translate(0, 0)" class="label"><rect height="0" width="0" ry="0" rx="0"/><text style=""><tspan class="row" x="0" dy="1em" xml:space="preserve"/></text></g></g><g class="edgeLabel"><g transform="translate(0, 0)" class="label"><rect height="0" width="0" ry="0" rx="0"/><text style=""><tspan class="row" x="0" dy="1em" xml:space="preserve"/></text></g></g><g class="edgeLabel"><g transform="translate(0, 0)" class="label"><rect height="0" width="0" ry="0" rx="0"/><text style=""><tspan class="row" x="0" dy="1em" xml:space="preserve"/></text></g></g><g class="edgeLabel"><g transform="translate(0, 0)" class="label"><rect height="0" width="0" ry="0" rx="0"/><text style=""><tspan class="row" x="0" dy="1em" xml:space="preserve"/></text></g></g><g class="edgeLabel"><g transform="translate(0, 0)" class="label"><rect height="0" width="0" ry="0" rx="0"/><text style=""><tspan class="row" x="0" dy="1em" xml:space="preserve"/></text></g></g><g class="edgeLabel"><g transform="translate(0, 0)" class="label"><rect height="0" width="0" ry="0" rx="0"/><text style=""><tspan class="row" x="0" dy="1em" xml:space="preserve"/></text></g></g><g class="edgeLabel"><g transform="translate(0, 0)" class="label"><rect height="0" width="0" ry="0" rx="0"/><text style=""><tspan class="row" x="0" dy="1em" xml:space="preserve"/></text></g></g><g class="edgeLabel"><g transform="translate(0, 0)" class="label"><rect height="0" width="0" ry="0" rx="0"/><text style=""><tspan class="row" x="0" dy="1em" xml:space="preserve"/></text></g></g><g class="edgeLabel"><g transform="translate(0, 0)" class="label"><rect height="0" width="0" ry="0" rx="0"/><text style=""><tspan class="row" x="0" dy="1em" xml:space="preserve"/></text></g></g><g class="edgeLabel"><g transform="translate(0, 0)" class="label"><rect height="0" width="0" ry="0" rx="0"/><text style=""><tspan class="row" x="0" dy="1em" xml:space="preserve"/></text></g></g></g><g class="nodes"><g transform="translate(681.83984375, 1677.3999977111816)" data-id="bcftools_annotate3" data-node="true" id="flowchart-bcftools_annotate3-51" class="node default bcftools flowchart-label"><rect height="51.599998474121094" width="155.09375" y="-25.799999237060547" x="-77.546875" ry="0" rx="0" style="" class="basic label-container"/><g transform="translate(0, -18.299999237060547)" style="" class="label"><rect/><g><rect class="background"/><text y="-10.1"><tspan dy="1.1em" y="-0.1em" x="0" class="text-outer-tspan"><tspan font-weight="normal" class="text-inner-tspan" font-style="normal">bcftools</tspan><tspan font-weight="normal" class="text-inner-tspan" font-style="normal"> annotate</tspan></tspan><tspan dy="1.1em" y="1em" x="0" class="text-outer-tspan"><tspan font-weight="normal" class="text-inner-tspan" font-style="italic">Stability</tspan></tspan></text></g></g></g><g transform="translate(681.83984375, 1584.599998474121)" data-id="r_predict_stability" data-node="true" id="flowchart-r_predict_stability-49" class="node default R flowchart-label"><rect height="34" width="216.109375" y="-17" x="-108.0546875" ry="0" rx="0" style="" class="basic label-container"/><g transform="translate(0, -9.5)" style="" class="label"><rect/><text style=""><tspan class="row" x="0" dy="1em" xml:space="preserve">predict-variant-stability.R</tspan></text></g></g><g transform="translate(722.78515625, 1500.099998474121)" data-id="rf_model" data-node="true" id="flowchart-rf_model-52" class="node default input flowchart-label"><rect height="35" width="93.78125" y="-17.5" x="-46.890625" ry="17.5" rx="17.5" style=""/><g transform="translate(0, -10)" style="" class="label"><rect/><text style=""><tspan class="row" x="0" dy="1em" xml:space="preserve">rf_model</tspan></text></g></g><g transform="translate(141.2265625, 1250.3999977111816)" data-id="blocknote" data-node="true" id="flowchart-blocknote-34" class="node default default flowchart-label"><rect height="104.4000015258789" width="212.453125" y="-52.20000076293945" x="-106.2265625" ry="0" rx="0" style="" class="basic label-container"/><g transform="translate(0, -44.70000076293945)" style="" class="label"><rect/><g><rect class="background"/><text y="-10.1"><tspan dy="1.1em" y="-0.1em" x="0" class="text-outer-tspan"><tspan font-weight="bold" class="text-inner-tspan" font-style="normal">Note:</tspan><tspan font-weight="normal" class="text-inner-tspan" font-style="normal"> Annotation</tspan><tspan font-weight="normal" class="text-inner-tspan" font-style="normal"> is</tspan></tspan><tspan dy="1.1em" y="1em" x="0" class="text-outer-tspan"><tspan font-weight="normal" class="text-inner-tspan" font-style="normal">performed</tspan><tspan font-weight="normal" class="text-inner-tspan" font-style="normal"> prior</tspan><tspan font-weight="normal" class="text-inner-tspan" font-style="normal"> to</tspan></tspan><tspan dy="1.1em" y="2.1em" x="0" class="text-outer-tspan"><tspan font-weight="normal" class="text-inner-tspan" font-style="normal">LiftOver</tspan><tspan font-weight="normal" class="text-inner-tspan" font-style="normal"> when</tspan></tspan><tspan dy="1.1em" y="3.2em" x="0" class="text-outer-tspan"><tspan font-weight="normal" class="text-inner-tspan" font-style="normal">converting</tspan><tspan font-weight="normal" class="text-inner-tspan" font-style="normal"> from</tspan><tspan font-weight="normal" class="text-inner-tspan" font-style="normal"> GRCh38</tspan></tspan><tspan dy="1.1em" y="4.300000000000001em" x="0" class="text-outer-tspan"><tspan font-weight="normal" class="text-inner-tspan" font-style="normal">to</tspan><tspan font-weight="normal" class="text-inner-tspan" font-style="normal"> GRCh37</tspan></tspan></text></g></g></g><g transform="translate(395.453125, 1250.3999977111816)" data-id="r_extract_snv" data-node="true" id="flowchart-r_extract_snv-38" class="node default R flowchart-label"><rect height="34" width="196" y="-17" x="-98" ry="0" rx="0" style="" class="basic label-container"/><g transform="translate(0, -9.5)" style="" class="label"><rect/><text style=""><tspan class="row" x="0" dy="1em" xml:space="preserve">extract-VCF-features.R</tspan></text></g></g><g transform="translate(398.5, 792.5)" data-id="funcotator_sources" data-node="true" id="flowchart-funcotator_sources-29" class="node default input flowchart-label"><rect height="35" width="176.4375" y="-17.5" x="-88.21875" ry="17.5" rx="17.5" style=""/><g transform="translate(0, -10)" style="" class="label"><rect/><text style=""><tspan class="row" x="0" dy="1em" xml:space="preserve">funcotator_sources</tspan></text></g></g><g transform="translate(503.08984375, 877.5)" data-id="repeat_bed" data-node="true" id="flowchart-repeat_bed-30" class="node default input flowchart-label"><rect height="35" width="114.0625" y="-17.5" x="-57.03125" ry="17.5" rx="17.5" style=""/><g transform="translate(0, -10)" style="" class="label"><rect/><text style=""><tspan class="row" x="0" dy="1em" xml:space="preserve">repeat_bed</tspan></text></g></g><g transform="translate(395.453125, 1097.3999977111816)" data-id="bcftools_annotate2" data-node="true" id="flowchart-bcftools_annotate2-33" class="node default bcftools flowchart-label"><rect height="51.599998474121094" width="155.09375" y="-25.799999237060547" x="-77.546875" ry="0" rx="0" style="" class="basic label-container"/><g transform="translate(0, -18.299999237060547)" style="" class="label"><rect/><g><rect class="background"/><text y="-10.1"><tspan dy="1.1em" y="-0.1em" x="0" class="text-outer-tspan"><tspan font-weight="normal" class="text-inner-tspan" font-style="normal">bcftools</tspan><tspan font-weight="normal" class="text-inner-tspan" font-style="normal"> annotate</tspan></tspan><tspan dy="1.1em" y="1em" x="0" class="text-outer-tspan"><tspan font-weight="normal" class="text-inner-tspan" font-style="italic">Trinucleotide</tspan></tspan></text></g></g></g><g transform="translate(395.453125, 995.7999992370605)" data-id="bcftools_annotate" data-node="true" id="flowchart-bcftools_annotate-32" class="node default bcftools flowchart-label"><rect height="51.599998474121094" width="155.09375" y="-25.799999237060547" x="-77.546875" ry="0" rx="0" style="" class="basic label-container"/><g transform="translate(0, -18.299999237060547)" style="" class="label"><rect/><g><rect class="background"/><text y="-10.1"><tspan dy="1.1em" y="-0.1em" x="0" class="text-outer-tspan"><tspan font-weight="normal" class="text-inner-tspan" font-style="normal">bcftools</tspan><tspan font-weight="normal" class="text-inner-tspan" font-style="normal"> annotate</tspan></tspan><tspan dy="1.1em" y="1em" x="0" class="text-outer-tspan"><tspan font-weight="normal" class="text-inner-tspan" font-style="italic">RepeatMasker</tspan></tspan></text></g></g></g><g transform="translate(325.09765625, 877.5)" data-id="gatk_func" data-node="true" id="flowchart-gatk_func-31" class="node default gatk flowchart-label"><rect height="34" width="141.921875" y="-17" x="-70.9609375" ry="0" rx="0" style="" class="basic label-container"/><g transform="translate(0, -9.5)" style="" class="label"><rect/><text style=""><tspan class="row" x="0" dy="1em" xml:space="preserve">gatk Funcotator</tspan></text></g></g><g transform="translate(250.08984375, 573.5)" data-id="chain_file" data-node="true" id="flowchart-chain_file-23" class="node default input flowchart-label"><rect height="35" width="99.453125" y="-17.5" x="-49.7265625" ry="17.5" rx="17.5" style=""/><g transform="translate(0, -10)" style="" class="label"><rect/><text style=""><tspan class="row" x="0" dy="1em" xml:space="preserve">chain_file</tspan></text></g></g><g transform="translate(263.48828125, 658)" data-id="bcftools_liftover" data-node="true" id="flowchart-bcftools_liftover-24" class="node default bcftools flowchart-label"><rect height="34" width="153.046875" y="-17" x="-76.5234375" ry="0" rx="0" style="" class="basic label-container"/><g transform="translate(0, -9.5)" style="" class="label"><rect/><text style=""><tspan class="row" x="0" dy="1em" xml:space="preserve">bcftools +liftover</tspan></text></g></g><g transform="translate(838.17578125, 1097.3999977111816)" data-id="header_contigs" data-node="true" id="flowchart-header_contigs-13" class="node default input flowchart-label"><rect height="35" width="146.0625" y="-17.5" x="-73.03125" ry="17.5" rx="17.5" style=""/><g transform="translate(0, -10)" style="" class="label"><rect/><text style=""><tspan class="row" x="0" dy="1em" xml:space="preserve">header_contigs</tspan></text></g></g><g transform="translate(946.20703125, 995.7999992370605)" data-id="chain_file2" data-node="true" id="flowchart-chain_file2-15" class="node default input flowchart-label"><rect height="35" width="99.453125" y="-17.5" x="-49.7265625" ry="17.5" rx="17.5" style=""/><g transform="translate(0, -10)" style="" class="label"><rect/><text style=""><tspan class="row" x="0" dy="1em" xml:space="preserve">chain_file</tspan></text></g></g><g transform="translate(1042.29296875, 1097.3999977111816)" data-id="gnomad_rds" data-node="true" id="flowchart-gnomad_rds-17" class="node default input flowchart-label"><rect height="35" width="122.171875" y="-17.5" x="-61.0859375" ry="17.5" rx="17.5" style=""/><g transform="translate(0, -10)" style="" class="label"><rect/><text style=""><tspan class="row" x="0" dy="1em" xml:space="preserve">gnomad_rds</tspan></text></g></g><g transform="translate(886.3359375, 1250.3999977111816)" data-id="r_extract_sv" data-node="true" id="flowchart-r_extract_sv-12" class="node default R flowchart-label"><rect height="34" width="220.8125" y="-17" x="-110.40625" ry="0" rx="0" style="" class="basic label-container"/><g transform="translate(0, -9.5)" style="" class="label"><rect/><text style=""><tspan class="row" x="0" dy="1em" xml:space="preserve">extract-VCF-features-SV.R</tspan></text></g></g><g transform="translate(409.42578125, -8)" class="root"><g class="clusters"><g id="legend" class="cluster default flowchart-label"><rect height="288" width="626.4375" y="8" x="8" ry="0" rx="0" style=""/><g transform="translate(321.21875, 8)" class="cluster-label"><g><rect class="background"/><text y="-10.1"><tspan dy="1.1em" y="-0.1em" x="0" class="text-outer-tspan"><tspan font-weight="bold" class="text-inner-tspan" font-style="normal">Legend</tspan></tspan></text></g></g></g></g><g class="edgePaths"/><g class="edgeLabels"/><g class="nodes"><g transform="translate(25.5, 35)" class="root"><g class="clusters"><g id="nodes" class="cluster default flowchart-label"><rect height="84" width="576.4375" y="8" x="8" ry="0" rx="0" style=""/><g transform="translate(296.21875, 8)" class="cluster-label"><g><rect class="background"/><text y="-10.1"><tspan dy="1.1em" y="-0.1em" x="0" class="text-outer-tspan"><tspan font-weight="bold" class="text-inner-tspan" font-style="normal">Nodes</tspan></tspan></text></g></g></g></g><g class="edgePaths"/><g class="edgeLabels"/><g class="nodes"><g transform="translate(95.1484375, 50)" data-id="input" data-node="true" id="flowchart-input-0" class="node default input flowchart-label"><polygon style="" transform="translate(-44.1484375,17)" class="label-container" points="0,0 88.296875,0 88.296875,-34 0,-34 0,0 -8,0 96.296875,0 96.296875,-34 -8,-34 -8,0"/><g transform="translate(0, -9.5)" style="" class="label"><rect/><text style=""><tspan class="row" x="0" dy="1em" xml:space="preserve">Input File</tspan></text></g></g><g transform="translate(290.3515625, 50)" data-id="input_node" data-node="true" id="flowchart-input_node-1" class="node default input flowchart-label"><rect height="34" width="186.109375" y="-17" x="-93.0546875" ry="17" rx="17" style=""/><g transform="translate(0, -9.5)" style="" class="label"><rect/><text style=""><tspan class="row" x="0" dy="1em" xml:space="preserve">Parameterized Input</tspan></text></g></g><g transform="translate(491.421875, 50)" data-id="output" data-node="true" id="flowchart-output-2" class="node default output flowchart-label"><polygon style="" transform="translate(-50.015625,17)" class="label-container" points="0,0 100.03125,0 100.03125,-34 0,-34 0,0 -8,0 108.03125,0 108.03125,-34 -8,-34 -8,0"/><g transform="translate(0, -9.5)" style="" class="label"><rect/><text style=""><tspan class="row" x="0" dy="1em" xml:space="preserve">Output file</tspan></text></g></g></g></g><g transform="translate(37.8359375, 169)" class="root"><g class="clusters"><g id="processes" class="cluster default flowchart-label"><rect height="84" width="551.765625" y="8" x="8" ry="0" rx="0" style=""/><g transform="translate(283.8828125, 8)" class="cluster-label"><g><rect class="background"/><text y="-10.1"><tspan dy="1.1em" y="-0.1em" x="0" class="text-outer-tspan"><tspan font-weight="bold" class="text-inner-tspan" font-style="normal">Processes</tspan></tspan></text></g></g></g></g><g class="edgePaths"/><g class="edgeLabels"/><g class="nodes"><g transform="translate(71.9375, 50)" data-id="gatk_docker" data-node="true" id="flowchart-gatk_docker-3" class="node default gatk flowchart-label"><rect height="34" width="57.875" y="-17" x="-28.9375" ry="0" rx="0" style="" class="basic label-container"/><g transform="translate(0, -9.5)" style="" class="label"><rect/><text style=""><tspan class="row" x="0" dy="1em" xml:space="preserve">GATK</tspan></text></g></g><g transform="translate(189.84375, 50)" data-id="bcftools_docker" data-node="true" id="flowchart-bcftools_docker-4" class="node default bcftools flowchart-label"><rect height="34" width="77.9375" y="-17" x="-38.96875" ry="0" rx="0" style="" class="basic label-container"/><g transform="translate(0, -9.5)" style="" class="label"><rect/><text style=""><tspan class="row" x="0" dy="1em" xml:space="preserve">bcftools</tspan></text></g></g><g transform="translate(314.1640625, 50)" data-id="r_docker" data-node="true" id="flowchart-r_docker-5" class="node default R flowchart-label"><rect height="34" width="70.703125" y="-17" x="-35.3515625" ry="0" rx="0" style="" class="basic label-container"/><g transform="translate(0, -9.5)" style="" class="label"><rect/><text style=""><tspan class="row" x="0" dy="1em" xml:space="preserve">Rscript</tspan></text></g></g><g transform="translate(462.140625, 50)" data-id="linux_docker" data-node="true" id="flowchart-linux_docker-6" class="node default linux flowchart-label"><rect height="34" width="125.25" y="-17" x="-62.625" ry="0" rx="0" style="" class="basic label-container"/><g transform="translate(0, -9.5)" style="" class="label"><rect/><text style=""><tspan class="row" x="0" dy="1em" xml:space="preserve">Generic Linux</tspan></text></g></g></g></g></g></g><g transform="translate(730.14453125, 355)" data-id="input_vcf" data-node="true" id="flowchart-input_vcf-8" class="node default input flowchart-label"><polygon style="" transform="translate(-46.421875,17)" class="label-container" points="0,0 92.84375,0 92.84375,-34 0,-34 0,0 -8,0 100.84375,0 100.84375,-34 -8,-34 -8,0"/><g transform="translate(0, -9.5)" style="" class="label"><rect/><text style=""><tspan class="row" x="0" dy="1em" xml:space="preserve">Input VCF</tspan></text></g></g><g transform="translate(730.14453125, 439)" data-id="pipeval" data-node="true" id="flowchart-pipeval-9" class="node default linux flowchart-label"><rect height="34" width="73.328125" y="-17" x="-36.6640625" ry="0" rx="0" style="" class="basic label-container"/><g transform="translate(0, -9.5)" style="" class="label"><rect/><text style=""><tspan class="row" x="0" dy="1em" xml:space="preserve">pipeval</tspan></text></g></g><g transform="translate(730.14453125, 573.5)" data-id="sv_vs_snv" data-node="true" id="flowchart-sv_vs_snv-10" class="node default default flowchart-label"><polygon style="" transform="translate(-69.5390625,17)" class="label-container" points="8.5,0 130.578125,0 139.078125,-17 130.578125,-34 8.5,-34 0,-17"/><g transform="translate(0, -9.5)" style="" class="label"><rect/><text style=""><tspan class="row" x="0" dy="1em" xml:space="preserve">Variant Type?</tspan></text></g></g><g transform="translate(640.89453125, 1392.599998474121)" data-id="joinpaths" data-node="true" id="flowchart-joinpaths-43" class="node default default flowchart-label"><polygon style="" transform="translate(-15,15)" class="label-container" points="15,0 30,-15 15,-30 0,-15"/><g transform="translate(0, 0)" style="" class="label"><rect/><text style=""><tspan class="row" x="0" dy="1em" xml:space="preserve"/></text></g></g><g transform="translate(681.83984375, 1795.1999969482422)" data-id="output_vcfs" data-node="true" id="flowchart-output_vcfs-55" class="node default output flowchart-label"><polygon style="" transform="translate(-57.6640625,17)" class="label-container" points="0,0 115.328125,0 115.328125,-34 0,-34 0,0 -8,0 123.328125,0 123.328125,-34 -8,-34 -8,0"/><g transform="translate(0, -9.5)" style="" class="label"><rect/><text style=""><tspan class="row" x="0" dy="1em" xml:space="preserve">Output VCFs</tspan></text></g></g></g></g></g></svg>