<svg aria-roledescription="flowchart-v2" role="graphics-document document" viewBox="-8 -8 1081.42578125 1894.5999755859375" style="max-width: 1081.43px; background-color: white;" xmlns:xlink="http://www.w3.org/1999/xlink" xmlns="http://www.w3.org/2000/svg" width="100%" id="my-svg"><style>#my-svg{font-family:"trebuchet ms",verdana,arial,sans-serif;font-size:16px;fill:#333;}#my-svg .error-icon{fill:#552222;}#my-svg .error-text{fill:#552222;stroke:#552222;}#my-svg .edge-thickness-normal{stroke-width:2px;}#my-svg .edge-thickness-thick{stroke-width:3.5px;}#my-svg .edge-pattern-solid{stroke-dasharray:0;}#my-svg .edge-pattern-dashed{stroke-dasharray:3;}#my-svg .edge-pattern-dotted{stroke-dasharray:2;}#my-svg .marker{fill:#333333;stroke:#333333;}#my-svg .marker.cross{stroke:#333333;}#my-svg svg{font-family:"trebuchet ms",verdana,arial,sans-serif;font-size:16px;}#my-svg .label{font-family:"trebuchet ms",verdana,arial,sans-serif;color:#333;}#my-svg .cluster-label text{fill:#333;}#my-svg .cluster-label span,#my-svg p{color:#333;}#my-svg .label text,#my-svg span,#my-svg p{fill:#333;color:#333;}#my-svg .node rect,#my-svg .node circle,#my-svg .node ellipse,#my-svg .node polygon,#my-svg .node path{fill:#ECECFF;stroke:#9370DB;stroke-width:1px;}#my-svg .flowchart-label text{text-anchor:middle;}#my-svg .node .katex path{fill:#000;stroke:#000;stroke-width:1px;}#my-svg .node .label{text-align:center;}#my-svg .node.clickable{cursor:pointer;}#my-svg .arrowheadPath{fill:#333333;}#my-svg .edgePath .path{stroke:#333333;stroke-width:2.0px;}#my-svg .flowchart-link{stroke:#333333;fill:none;}#my-svg .edgeLabel{background-color:#e8e8e8;text-align:center;}#my-svg .edgeLabel rect{opacity:0.5;background-color:#e8e8e8;fill:#e8e8e8;}#my-svg .labelBkg{background-color:rgba(232, 232, 232, 0.5);}#my-svg .cluster rect{fill:#ffffde;stroke:#aaaa33;stroke-width:1px;}#my-svg .cluster text{fill:#333;}#my-svg .cluster span,#my-svg p{color:#333;}#my-svg div.mermaidTooltip{position:absolute;text-align:center;max-width:200px;padding:2px;font-family:"trebuchet ms",verdana,arial,sans-serif;font-size:12px;background:hsl(80, 100%, 96.2745098039%);border:1px solid #aaaa33;border-radius:2px;pointer-events:none;z-index:100;}#my-svg .flowchartTitleText{text-anchor:middle;font-size:18px;fill:#333;}#my-svg :root{--mermaid-font-family:"trebuchet ms",verdana,arial,sans-serif;}#my-svg .input rect{fill:#ffffb3!important;}#my-svg .input polygon{fill:#ffffb3!important;}#my-svg .input ellipse{fill:#ffffb3!important;}#my-svg .input circle{fill:#ffffb3!important;}#my-svg .input path{fill:#ffffb3!important;}#my-svg .output rect{fill:#b3de69!important;}#my-svg .output polygon{fill:#b3de69!important;}#my-svg .output ellipse{fill:#b3de69!important;}#my-svg .output circle{fill:#b3de69!important;}#my-svg .output path{fill:#b3de69!important;}#my-svg .gatk rect{fill:#bebada!important;}#my-svg .gatk polygon{fill:#bebada!important;}#my-svg .gatk ellipse{fill:#bebada!important;}#my-svg .gatk circle{fill:#bebada!important;}#my-svg .gatk path{fill:#bebada!important;}#my-svg .bcftools rect{fill:#fdb462!important;}#my-svg .bcftools polygon{fill:#fdb462!important;}#my-svg .bcftools ellipse{fill:#fdb462!important;}#my-svg .bcftools circle{fill:#fdb462!important;}#my-svg .bcftools path{fill:#fdb462!important;}#my-svg .R rect{fill:#8dd3c7!important;}#my-svg .R polygon{fill:#8dd3c7!important;}#my-svg .R ellipse{fill:#8dd3c7!important;}#my-svg .R circle{fill:#8dd3c7!important;}#my-svg .R path{fill:#8dd3c7!important;}#my-svg .linux rect{fill:#fb8072!important;}#my-svg .linux polygon{fill:#fb8072!important;}#my-svg .linux ellipse{fill:#fb8072!important;}#my-svg .linux circle{fill:#fb8072!important;}#my-svg .linux path{fill:#fb8072!important;}</style><g><marker orient="auto" markerHeight="12" markerWidth="12" markerUnits="userSpaceOnUse" refY="5" refX="6" viewBox="0 0 10 10" class="marker flowchart" id="my-svg_flowchart-pointEnd"><path style="stroke-width: 1; stroke-dasharray: 1, 0;" class="arrowMarkerPath" d="M 0 0 L 10 5 L 0 10 z"/></marker><marker orient="auto" markerHeight="12" markerWidth="12" markerUnits="userSpaceOnUse" refY="5" refX="4.5" viewBox="0 0 10 10" class="marker flowchart" id="my-svg_flowchart-pointStart"><path style="stroke-width: 1; stroke-dasharray: 1, 0;" class="arrowMarkerPath" d="M 0 5 L 10 10 L 10 0 z"/></marker><marker orient="auto" markerHeight="11" markerWidth="11" markerUnits="userSpaceOnUse" refY="5" refX="11" viewBox="0 0 10 10" class="marker flowchart" id="my-svg_flowchart-circleEnd"><circle style="stroke-width: 1; stroke-dasharray: 1, 0;" class="arrowMarkerPath" r="5" cy="5" cx="5"/></marker><marker orient="auto" markerHeight="11" markerWidth="11" markerUnits="userSpaceOnUse" refY="5" refX="-1" viewBox="0 0 10 10" class="marker flowchart" id="my-svg_flowchart-circleStart"><circle style="stroke-width: 1; stroke-dasharray: 1, 0;" class="arrowMarkerPath" r="5" cy="5" cx="5"/></marker><marker orient="auto" markerHeight="11" markerWidth="11" markerUnits="userSpaceOnUse" refY="5.2" refX="12" viewBox="0 0 11 11" class="marker cross flowchart" id="my-svg_flowchart-crossEnd"><path style="stroke-width: 2; stroke-dasharray: 1, 0;" class="arrowMarkerPath" d="M 1,1 l 9,9 M 10,1 l -9,9"/></marker><marker orient="auto" markerHeight="11" markerWidth="11" markerUnits="userSpaceOnUse" refY="5.2" refX="-1" viewBox="0 0 11 11" class="marker cross flowchart" id="my-svg_flowchart-crossStart"><path style="stroke-width: 2; stroke-dasharray: 1, 0;" class="arrowMarkerPath" d="M 1,1 l 9,9 M 10,1 l -9,9"/></marker><g class="root"><g class="clusters"><g id="Predict Stability" class="cluster default flowchart-label"><rect height="270.5999984741211" width="295.78125" y="1524" x="495.26171875" ry="0" rx="0" style=""/><g transform="translate(643.15234375, 1524)" class="cluster-label"><g><rect class="background"/><text y="-10.1"><tspan dy="1.1em" y="-0.1em" x="0" class="text-outer-tspan"><tspan font-weight="normal" class="text-inner-tspan" font-style="normal">        </tspan><tspan font-weight="bold" class="text-inner-tspan" font-style="normal"> Predict</tspan><tspan font-weight="bold" class="text-inner-tspan" font-style="normal"> Stability</tspan></tspan></text></g></g></g><g id="SNV" class="cluster default flowchart-label"><rect height="804" width="635.8359375" y="590" x="0" ry="0" rx="0" style=""/><g transform="translate(317.91796875, 590)" class="cluster-label"><g><rect class="background"/><text y="-10.1"><tspan dy="1.1em" y="-0.1em" x="0" class="text-outer-tspan"><tspan font-weight="bold" class="text-inner-tspan" font-style="normal">SNV</tspan></tspan></text></g></g></g><g id="SV" class="cluster default flowchart-label"><rect height="560" width="409.58984375" y="834" x="655.8359375" ry="0" rx="0" style=""/><g transform="translate(860.630859375, 834)" class="cluster-label"><g><rect class="background"/><text y="-10.1"><tspan dy="1.1em" y="-0.1em" x="0" class="text-outer-tspan"><tspan font-weight="bold" class="text-inner-tspan" font-style="normal">SV</tspan></tspan></text></g></g></g><g id="SNV_liftover" class="cluster default flowchart-label"><rect height="169" width="252.01171875" y="615" x="133.23046875" ry="0" rx="0" style=""/><g transform="translate(259.236328125, 615)" class="cluster-label"><g><rect class="background"/><text y="-10.1"><tspan dy="1.1em" y="-0.1em" x="0" class="text-outer-tspan"><tspan font-weight="bold" class="text-inner-tspan" font-style="normal">Liftover</tspan></tspan></text></g></g></g><g id="SNV_annotation" class="cluster default flowchart-label"><rect height="373.1999969482422" width="418.1640625" y="859" x="197.4453125" ry="0" rx="0" style=""/><g transform="translate(406.52734375, 859)" class="cluster-label"><g><rect class="background"/><text y="-10.1"><tspan dy="1.1em" y="-0.1em" x="0" class="text-outer-tspan"><tspan font-weight="bold" class="text-inner-tspan" font-style="normal">Annotation</tspan></tspan></text></g></g></g></g><g class="edgePaths"><path marker-end="url(#my-svg_flowchart-pointEnd)" style="fill:none;" class="edge-thickness-normal edge-pattern-solid flowchart-link LS-input_vcf LE-pipeval" id="L-input_vcf-pipeval-0" d="M535.141,372.5L535.057,376.583C534.974,380.667,534.807,388.833,534.724,396.2C534.641,403.567,534.641,410.133,534.641,413.417L534.641,416.7"/><path marker-end="url(#my-svg_flowchart-pointEnd)" style="fill:none;" class="edge-thickness-normal edge-pattern-solid flowchart-link LS-pipeval LE-sv_vs_snv" id="L-pipeval-sv_vs_snv-0" d="M534.641,456L534.641,460.167C534.641,464.333,534.641,472.667,534.707,480.2C534.773,487.734,534.905,494.467,534.971,497.834L535.037,501.201"/><path marker-end="url(#my-svg_flowchart-pointEnd)" style="fill:none;" class="edge-thickness-normal edge-pattern-solid flowchart-link LS-sv_vs_snv LE-r_liftover" id="L-sv_vs_snv-r_liftover-0" d="M598.301,536.258L622.345,541.048C646.389,545.839,694.478,555.419,718.522,564.376C742.566,573.333,742.566,581.667,742.566,590C742.566,598.333,742.566,606.667,742.566,617.917C742.566,629.167,742.566,643.333,742.566,657.5C742.566,671.667,742.566,685.833,742.566,699.917C742.566,714,742.566,728,742.566,742C742.566,756,742.566,770,742.566,781.167C742.566,792.333,742.566,800.667,742.566,809C742.566,817.333,742.566,825.667,742.566,834C742.566,842.333,742.566,850.667,742.566,861.917C742.566,873.167,742.566,887.333,742.566,901.5C742.566,915.667,742.566,929.833,742.566,944C742.566,958.167,742.566,972.333,742.566,986.5C742.566,1000.667,742.566,1014.833,756.171,1027.229C769.775,1039.624,796.984,1050.248,810.589,1055.56L824.193,1060.872"/><path marker-end="url(#my-svg_flowchart-pointEnd)" style="fill:none;stroke-width:2px;stroke-dasharray:3;" class="edge-thickness-normal edge-pattern-dotted flowchart-link LS-header_contigs LE-r_liftover" id="L-header_contigs-r_liftover-0" d="M872.668,1004L872.668,1008.167C872.668,1012.333,872.668,1020.667,872.668,1029.583C872.668,1038.5,872.668,1048,872.668,1052.75L872.668,1057.5"/><path marker-end="url(#my-svg_flowchart-pointEnd)" style="fill:none;stroke-width:2px;stroke-dasharray:3;" class="edge-thickness-normal edge-pattern-dotted flowchart-link LS-chain_file2 LE-r_liftover" id="L-chain_file2-r_liftover-0" d="M980.699,919L980.699,923.167C980.699,927.333,980.699,935.667,980.699,946.917C980.699,958.167,980.699,972.333,980.699,986.5C980.699,1000.667,980.699,1014.833,969.519,1027.174C958.338,1039.515,935.977,1050.03,924.797,1055.287L913.616,1060.545"/><path marker-end="url(#my-svg_flowchart-pointEnd)" style="fill:none;stroke-width:2px;stroke-dasharray:3;" class="edge-thickness-normal edge-pattern-dotted flowchart-link LS-gnomad_rds LE-r_extract_sv" id="L-gnomad_rds-r_extract_sv-0" d="M776.582,1198.9L776.582,1204.45C776.582,1210,776.582,1221.1,776.582,1230.817C776.582,1240.533,776.582,1248.867,782.091,1260.877C787.601,1272.888,798.619,1288.575,804.129,1296.419L809.638,1304.263"/><path marker-end="url(#my-svg_flowchart-pointEnd)" style="fill:none;" class="edge-thickness-normal edge-pattern-solid flowchart-link LS-r_liftover LE-r_extract_sv" id="L-r_liftover-r_extract_sv-0" d="M872.668,1096.8L872.668,1102.433C872.668,1108.067,872.668,1119.333,872.668,1133.433C872.668,1147.533,872.668,1164.467,872.668,1181.4C872.668,1198.333,872.668,1215.267,872.668,1227.9C872.668,1240.533,872.668,1248.867,867.159,1260.877C861.649,1272.888,850.631,1288.575,845.121,1296.419L839.612,1304.263"/><path marker-end="url(#my-svg_flowchart-pointEnd)" style="fill:none;stroke-width:2px;stroke-dasharray:3;" class="edge-thickness-normal edge-pattern-dotted flowchart-link LS-chain_file LE-bcftools_liftover" id="L-chain_file-bcftools_liftover-0" d="M231.355,675L231.355,679.167C231.355,683.333,231.355,691.667,234.931,699.378C238.506,707.09,245.657,714.179,249.233,717.724L252.808,721.269"/><path marker-end="url(#my-svg_flowchart-pointEnd)" style="fill:none;" class="edge-thickness-normal edge-pattern-solid flowchart-link LS-sv_vs_snv LE-bcftools_liftover" id="L-sv_vs_snv-bcftools_liftover-0" d="M471.785,535.867L446.401,540.723C421.017,545.578,370.249,555.289,344.865,564.311C319.48,573.333,319.48,581.667,319.48,590C319.48,598.333,319.48,606.667,319.48,617.917C319.48,629.167,319.48,643.333,319.48,657.5C319.48,671.667,319.48,685.833,315.591,696.486C311.702,707.139,303.924,714.278,300.035,717.847L296.146,721.416"/><path marker-end="url(#my-svg_flowchart-pointEnd)" style="fill:none;" class="edge-thickness-normal edge-pattern-solid flowchart-link LS-gatk_func LE-bcftools_annotate" id="L-gatk_func-bcftools_annotate-0" d="M335.328,1003.5L335.328,1007.75C335.328,1012,335.328,1020.5,339.348,1028.329C343.367,1036.158,351.407,1043.317,355.426,1046.896L359.446,1050.475"/><path marker-end="url(#my-svg_flowchart-pointEnd)" style="fill:none;" class="edge-thickness-normal edge-pattern-solid flowchart-link LS-bcftools_annotate LE-bcftools_annotate2" id="L-bcftools_annotate-bcftools_annotate2-0" d="M392.379,1105.6L392.379,1109.767C392.379,1113.933,392.379,1122.267,392.379,1129.717C392.379,1137.167,392.379,1143.733,392.379,1147.017L392.379,1150.3"/><path marker-end="url(#my-svg_flowchart-pointEnd)" style="fill:none;" class="edge-thickness-normal edge-pattern-solid flowchart-link LS-bcftools_liftover LE-gatk_func" id="L-bcftools_liftover-gatk_func-0" d="M273.719,759L273.719,763.167C273.719,767.333,273.719,775.667,273.719,784C273.719,792.333,273.719,800.667,273.719,809C273.719,817.333,273.719,825.667,273.719,834C273.719,842.333,273.719,850.667,273.719,861.917C273.719,873.167,273.719,887.333,273.719,901.5C273.719,915.667,273.719,929.833,279.153,940.665C284.586,951.497,295.454,958.994,300.888,962.742L306.322,966.49"/><path marker-end="url(#my-svg_flowchart-pointEnd)" style="fill:none;" class="edge-thickness-normal edge-pattern-solid flowchart-link LS-bcftools_annotate2 LE-r_extract_snv" id="L-bcftools_annotate2-r_extract_snv-0" d="M392.379,1207.2L392.379,1211.367C392.379,1215.533,392.379,1223.867,392.379,1232.2C392.379,1240.533,392.379,1248.867,392.379,1260.717C392.379,1272.567,392.379,1287.933,392.379,1295.617L392.379,1303.3"/><path marker-end="url(#my-svg_flowchart-pointEnd)" style="fill:none;stroke-width:2px;stroke-dasharray:3;" class="edge-thickness-normal edge-pattern-dotted flowchart-link LS-funcotator_sources LE-gatk_func" id="L-funcotator_sources-gatk_func-0" d="M408.73,919L408.73,923.167C408.73,927.333,408.73,935.667,402.155,943.641C395.579,951.615,382.427,959.23,375.852,963.037L369.276,966.844"/><path marker-end="url(#my-svg_flowchart-pointEnd)" style="fill:none;stroke-width:2px;stroke-dasharray:3;" class="edge-thickness-normal edge-pattern-dotted flowchart-link LS-repeat_bed LE-bcftools_annotate" id="L-repeat_bed-bcftools_annotate-0" d="M513.32,1004L513.32,1008.167C513.32,1012.333,513.32,1020.667,504.215,1028.658C495.11,1036.649,476.899,1044.298,467.794,1048.123L458.688,1051.948"/><path marker-end="url(#my-svg_flowchart-pointEnd)" style="fill:none;" class="edge-thickness-normal edge-pattern-solid flowchart-link LS-r_extract_snv LE-joinpaths" id="L-r_extract_snv-joinpaths-0" d="M392.379,1342.6L392.379,1351.167C392.379,1359.733,392.379,1376.867,392.379,1389.6C392.379,1402.333,392.379,1410.667,423.593,1421.003C454.807,1431.34,517.236,1443.679,548.45,1449.849L579.664,1456.019"/><path marker-end="url(#my-svg_flowchart-pointEnd)" style="fill:none;" class="edge-thickness-normal edge-pattern-solid flowchart-link LS-r_extract_sv LE-joinpaths" id="L-r_extract_sv-joinpaths-0" d="M824.625,1342.6L824.625,1351.167C824.625,1359.733,824.625,1376.867,824.625,1389.6C824.625,1402.333,824.625,1410.667,789.752,1421.055C754.879,1431.443,685.133,1443.885,650.26,1450.107L615.387,1456.328"/><path marker-end="url(#my-svg_flowchart-pointEnd)" style="fill:none;" class="edge-thickness-normal edge-pattern-solid flowchart-link LS-joinpaths LE-r_predict_stability" id="L-joinpaths-r_predict_stability-0" d="M597.41,1474.5L597.327,1478.583C597.243,1482.667,597.077,1490.833,596.993,1499.083C596.91,1507.333,596.91,1515.667,596.91,1526.917C596.91,1538.167,596.91,1552.333,596.91,1566.5C596.91,1580.667,596.91,1594.833,600.356,1605.451C603.801,1616.068,610.692,1623.137,614.137,1626.671L617.583,1630.205"/><path marker-end="url(#my-svg_flowchart-pointEnd)" style="fill:none;" class="edge-thickness-normal edge-pattern-solid flowchart-link LS-r_predict_stability LE-bcftools_annotate3" id="L-r_predict_stability-bcftools_annotate3-0" d="M637.855,1668L637.855,1672.167C637.855,1676.333,637.855,1684.667,637.855,1692.117C637.855,1699.567,637.855,1706.133,637.855,1709.417L637.855,1712.7"/><path marker-end="url(#my-svg_flowchart-pointEnd)" style="fill:none;stroke-width:2px;stroke-dasharray:3;" class="edge-thickness-normal edge-pattern-dotted flowchart-link LS-rf_model LE-r_predict_stability" id="L-rf_model-r_predict_stability-0" d="M678.801,1584L678.801,1588.167C678.801,1592.333,678.801,1600.667,675.355,1608.367C671.91,1616.068,665.019,1623.137,661.574,1626.671L658.128,1630.205"/><path marker-end="url(#my-svg_flowchart-pointEnd)" style="fill:none;" class="edge-thickness-normal edge-pattern-solid flowchart-link LS-bcftools_annotate3 LE-output_vcfs" id="L-bcftools_annotate3-output_vcfs-0" d="M637.855,1769.6L637.855,1773.767C637.855,1777.933,637.855,1786.267,637.855,1794.6C637.855,1802.933,637.855,1811.267,637.921,1818.8C637.988,1826.334,638.12,1833.067,638.186,1836.434L638.252,1839.801"/><path style="stroke-width: 0;fill:none;" class="edge-thickness-thick edge-pattern-solid flowchart-link LS-legend LE-input_vcf" id="L-legend-input_vcf-0" d="M534.641,288L534.641,292.167C534.641,296.333,534.641,304.667,534.641,313C534.641,321.333,534.641,329.667,534.641,333.833L534.641,338"/></g><g class="edgeLabels"><g class="edgeLabel"><g transform="translate(0, 0)" class="label"><rect height="0" width="0" ry="0" rx="0"/><text style=""><tspan class="row" x="0" dy="1em" xml:space="preserve"/></text></g></g><g class="edgeLabel"><g transform="translate(0, 0)" class="label"><rect height="0" width="0" ry="0" rx="0"/><text style=""><tspan class="row" x="0" dy="1em" xml:space="preserve"/></text></g></g><g class="edgeLabel"><g transform="translate(0, 0)" class="label"><rect height="0" width="0" ry="0" rx="0"/><text style=""><tspan class="row" x="0" dy="1em" xml:space="preserve"/></text></g></g><g class="edgeLabel"><g transform="translate(0, 0)" class="label"><rect height="0" width="0" ry="0" rx="0"/><text style=""><tspan class="row" x="0" dy="1em" xml:space="preserve"/></text></g></g><g class="edgeLabel"><g transform="translate(0, 0)" class="label"><rect height="0" width="0" ry="0" rx="0"/><text style=""><tspan class="row" x="0" dy="1em" xml:space="preserve"/></text></g></g><g class="edgeLabel"><g transform="translate(0, 0)" class="label"><rect height="0" width="0" ry="0" rx="0"/><text style=""><tspan class="row" x="0" dy="1em" xml:space="preserve"/></text></g></g><g class="edgeLabel"><g transform="translate(0, 0)" class="label"><rect height="0" width="0" ry="0" rx="0"/><text style=""><tspan class="row" x="0" dy="1em" xml:space="preserve"/></text></g></g><g class="edgeLabel"><g transform="translate(0, 0)" class="label"><rect height="0" width="0" ry="0" rx="0"/><text style=""><tspan class="row" x="0" dy="1em" xml:space="preserve"/></text></g></g><g class="edgeLabel"><g transform="translate(0, 0)" class="label"><rect height="0" width="0" ry="0" rx="0"/><text style=""><tspan class="row" x="0" dy="1em" xml:space="preserve"/></text></g></g><g class="edgeLabel"><g transform="translate(0, 0)" class="label"><rect height="0" width="0" ry="0" rx="0"/><text style=""><tspan class="row" x="0" dy="1em" xml:space="preserve"/></text></g></g><g class="edgeLabel"><g transform="translate(0, 0)" class="label"><rect height="0" width="0" ry="0" rx="0"/><text style=""><tspan class="row" x="0" dy="1em" xml:space="preserve"/></text></g></g><g class="edgeLabel"><g transform="translate(0, 0)" class="label"><rect height="0" width="0" ry="0" rx="0"/><text style=""><tspan class="row" x="0" dy="1em" xml:space="preserve"/></text></g></g><g class="edgeLabel"><g transform="translate(0, 0)" class="label"><rect height="0" width="0" ry="0" rx="0"/><text style=""><tspan class="row" x="0" dy="1em" xml:space="preserve"/></text></g></g><g class="edgeLabel"><g transform="translate(0, 0)" class="label"><rect height="0" width="0" ry="0" rx="0"/><text style=""><tspan class="row" x="0" dy="1em" xml:space="preserve"/></text></g></g><g class="edgeLabel"><g transform="translate(0, 0)" class="label"><rect height="0" width="0" ry="0" rx="0"/><text style=""><tspan class="row" x="0" dy="1em" xml:space="preserve"/></text></g></g><g class="edgeLabel"><g transform="translate(0, 0)" class="label"><rect height="0" width="0" ry="0" rx="0"/><text style=""><tspan class="row" x="0" dy="1em" xml:space="preserve"/></text></g></g><g class="edgeLabel"><g transform="translate(0, 0)" class="label"><rect height="0" width="0" ry="0" rx="0"/><text style=""><tspan class="row" x="0" dy="1em" xml:space="preserve"/></text></g></g><g class="edgeLabel"><g transform="translate(0, 0)" class="label"><rect height="0" width="0" ry="0" rx="0"/><text style=""><tspan class="row" x="0" dy="1em" xml:space="preserve"/></text></g></g><g class="edgeLabel"><g transform="translate(0, 0)" class="label"><rect height="0" width="0" ry="0" rx="0"/><text style=""><tspan class="row" x="0" dy="1em" xml:space="preserve"/></text></g></g><g class="edgeLabel"><g transform="translate(0, 0)" class="label"><rect height="0" width="0" ry="0" rx="0"/><text style=""><tspan class="row" x="0" dy="1em" xml:space="preserve"/></text></g></g><g class="edgeLabel"><g transform="translate(0, 0)" class="label"><rect height="0" width="0" ry="0" rx="0"/><text style=""><tspan class="row" x="0" dy="1em" xml:space="preserve"/></text></g></g><g class="edgeLabel"><g transform="translate(0, 0)" class="label"><rect height="0" width="0" ry="0" rx="0"/><text style=""><tspan class="row" x="0" dy="1em" xml:space="preserve"/></text></g></g></g><g class="nodes"><g transform="translate(637.85546875, 1743.7999992370605)" data-id="bcftools_annotate3" data-node="true" id="flowchart-bcftools_annotate3-52" class="node default bcftools flowchart-label"><rect height="51.599998474121094" width="155.09375" y="-25.799999237060547" x="-77.546875" ry="0" rx="0" style="" class="basic label-container"/><g transform="translate(0, -18.299999237060547)" style="" class="label"><rect/><g><rect class="background"/><text y="-10.1"><tspan dy="1.1em" y="-0.1em" x="0" class="text-outer-tspan"><tspan font-weight="normal" class="text-inner-tspan" font-style="normal">bcftools</tspan><tspan font-weight="normal" class="text-inner-tspan" font-style="normal"> annotate</tspan></tspan><tspan dy="1.1em" y="1em" x="0" class="text-outer-tspan"><tspan font-weight="normal" class="text-inner-tspan" font-style="italic">Stability</tspan></tspan></text></g></g></g><g transform="translate(637.85546875, 1651)" data-id="r_predict_stability" data-node="true" id="flowchart-r_predict_stability-50" class="node default R flowchart-label"><rect height="34" width="215.1875" y="-17" x="-107.59375" ry="0" rx="0" style="" class="basic label-container"/><g transform="translate(0, -9.5)" style="" class="label"><rect/><text style=""><tspan class="row" x="0" dy="1em" xml:space="preserve">predict-liftover-stability.R</tspan></text></g></g><g transform="translate(678.80078125, 1566.5)" data-id="rf_model" data-node="true" id="flowchart-rf_model-53" class="node default input flowchart-label"><rect height="35" width="93.78125" y="-17.5" x="-46.890625" ry="17.5" rx="17.5" style=""/><g transform="translate(0, -10)" style="" class="label"><rect/><text style=""><tspan class="row" x="0" dy="1em" xml:space="preserve">rf_model</tspan></text></g></g><g transform="translate(122.4921875, 1325.599998474121)" data-id="blocknote" data-node="true" id="flowchart-blocknote-35" class="node default default flowchart-label"><rect height="86.80000305175781" width="174.984375" y="-43.400001525878906" x="-87.4921875" ry="0" rx="0" style="" class="basic label-container"/><g transform="translate(0, -35.900001525878906)" style="" class="label"><rect/><g><rect class="background"/><text y="-10.1"><tspan dy="1.1em" y="-0.1em" x="0" class="text-outer-tspan"><tspan font-weight="bold" class="text-inner-tspan" font-style="normal">Note:</tspan><tspan font-weight="normal" class="text-inner-tspan" font-style="normal"> Annotation</tspan><tspan font-weight="normal" class="text-inner-tspan" font-style="normal"> is</tspan></tspan><tspan dy="1.1em" y="1em" x="0" class="text-outer-tspan"><tspan font-weight="normal" class="text-inner-tspan" font-style="normal">performed</tspan><tspan font-weight="normal" class="text-inner-tspan" font-style="normal"> before</tspan></tspan><tspan dy="1.1em" y="2.1em" x="0" class="text-outer-tspan"><tspan font-weight="normal" class="text-inner-tspan" font-style="normal">Liftover</tspan><tspan font-weight="normal" class="text-inner-tspan" font-style="normal"> when</tspan><tspan font-weight="normal" class="text-inner-tspan" font-style="normal"> lifting</tspan></tspan><tspan dy="1.1em" y="3.2em" x="0" class="text-outer-tspan"><tspan font-weight="normal" class="text-inner-tspan" font-style="normal">backward</tspan></tspan></text></g></g></g><g transform="translate(392.37890625, 1325.599998474121)" data-id="r_extract_snv" data-node="true" id="flowchart-r_extract_snv-39" class="node default R flowchart-label"><rect height="34" width="196" y="-17" x="-98" ry="0" rx="0" style="" class="basic label-container"/><g transform="translate(0, -9.5)" style="" class="label"><rect/><text style=""><tspan class="row" x="0" dy="1em" xml:space="preserve">extract-VCF-features.R</tspan></text></g></g><g transform="translate(408.73046875, 901.5)" data-id="funcotator_sources" data-node="true" id="flowchart-funcotator_sources-30" class="node default input flowchart-label"><rect height="35" width="176.4375" y="-17.5" x="-88.21875" ry="17.5" rx="17.5" style=""/><g transform="translate(0, -10)" style="" class="label"><rect/><text style=""><tspan class="row" x="0" dy="1em" xml:space="preserve">funcotator_sources</tspan></text></g></g><g transform="translate(513.3203125, 986.5)" data-id="repeat_bed" data-node="true" id="flowchart-repeat_bed-31" class="node default input flowchart-label"><rect height="35" width="114.0625" y="-17.5" x="-57.03125" ry="17.5" rx="17.5" style=""/><g transform="translate(0, -10)" style="" class="label"><rect/><text style=""><tspan class="row" x="0" dy="1em" xml:space="preserve">repeat_bed</tspan></text></g></g><g transform="translate(392.37890625, 1181.3999977111816)" data-id="bcftools_annotate2" data-node="true" id="flowchart-bcftools_annotate2-34" class="node default bcftools flowchart-label"><rect height="51.599998474121094" width="155.09375" y="-25.799999237060547" x="-77.546875" ry="0" rx="0" style="" class="basic label-container"/><g transform="translate(0, -18.299999237060547)" style="" class="label"><rect/><g><rect class="background"/><text y="-10.1"><tspan dy="1.1em" y="-0.1em" x="0" class="text-outer-tspan"><tspan font-weight="normal" class="text-inner-tspan" font-style="normal">bcftools</tspan><tspan font-weight="normal" class="text-inner-tspan" font-style="normal"> annotate</tspan></tspan><tspan dy="1.1em" y="1em" x="0" class="text-outer-tspan"><tspan font-weight="normal" class="text-inner-tspan" font-style="italic">Trinucleotide</tspan></tspan></text></g></g></g><g transform="translate(392.37890625, 1079.7999992370605)" data-id="bcftools_annotate" data-node="true" id="flowchart-bcftools_annotate-33" class="node default bcftools flowchart-label"><rect height="51.599998474121094" width="155.09375" y="-25.799999237060547" x="-77.546875" ry="0" rx="0" style="" class="basic label-container"/><g transform="translate(0, -18.299999237060547)" style="" class="label"><rect/><g><rect class="background"/><text y="-10.1"><tspan dy="1.1em" y="-0.1em" x="0" class="text-outer-tspan"><tspan font-weight="normal" class="text-inner-tspan" font-style="normal">bcftools</tspan><tspan font-weight="normal" class="text-inner-tspan" font-style="normal"> annotate</tspan></tspan><tspan dy="1.1em" y="1em" x="0" class="text-outer-tspan"><tspan font-weight="normal" class="text-inner-tspan" font-style="italic">RepeatMasker</tspan></tspan></text></g></g></g><g transform="translate(335.328125, 986.5)" data-id="gatk_func" data-node="true" id="flowchart-gatk_func-32" class="node default gatk flowchart-label"><rect height="34" width="141.921875" y="-17" x="-70.9609375" ry="0" rx="0" style="" class="basic label-container"/><g transform="translate(0, -9.5)" style="" class="label"><rect/><text style=""><tspan class="row" x="0" dy="1em" xml:space="preserve">gatk Funcotator</tspan></text></g></g><g transform="translate(231.35546875, 657.5)" data-id="chain_file" data-node="true" id="flowchart-chain_file-24" class="node default input flowchart-label"><rect height="35" width="99.453125" y="-17.5" x="-49.7265625" ry="17.5" rx="17.5" style=""/><g transform="translate(0, -10)" style="" class="label"><rect/><text style=""><tspan class="row" x="0" dy="1em" xml:space="preserve">chain_file</tspan></text></g></g><g transform="translate(273.71875, 742)" data-id="bcftools_liftover" data-node="true" id="flowchart-bcftools_liftover-25" class="node default bcftools flowchart-label"><rect height="34" width="153.046875" y="-17" x="-76.5234375" ry="0" rx="0" style="" class="basic label-container"/><g transform="translate(0, -9.5)" style="" class="label"><rect/><text style=""><tspan class="row" x="0" dy="1em" xml:space="preserve">bcftools +liftover</tspan></text></g></g><g transform="translate(872.66796875, 986.5)" data-id="header_contigs" data-node="true" id="flowchart-header_contigs-13" class="node default input flowchart-label"><rect height="35" width="146.0625" y="-17.5" x="-73.03125" ry="17.5" rx="17.5" style=""/><g transform="translate(0, -10)" style="" class="label"><rect/><text style=""><tspan class="row" x="0" dy="1em" xml:space="preserve">header_contigs</tspan></text></g></g><g transform="translate(980.69921875, 901.5)" data-id="chain_file2" data-node="true" id="flowchart-chain_file2-15" class="node default input flowchart-label"><rect height="35" width="99.453125" y="-17.5" x="-49.7265625" ry="17.5" rx="17.5" style=""/><g transform="translate(0, -10)" style="" class="label"><rect/><text style=""><tspan class="row" x="0" dy="1em" xml:space="preserve">chain_file</tspan></text></g></g><g transform="translate(776.58203125, 1181.3999977111816)" data-id="gnomad_rds" data-node="true" id="flowchart-gnomad_rds-17" class="node default input flowchart-label"><rect height="35" width="122.171875" y="-17.5" x="-61.0859375" ry="17.5" rx="17.5" style=""/><g transform="translate(0, -10)" style="" class="label"><rect/><text style=""><tspan class="row" x="0" dy="1em" xml:space="preserve">gnomad_rds</tspan></text></g></g><g transform="translate(824.625, 1325.599998474121)" data-id="r_extract_sv" data-node="true" id="flowchart-r_extract_sv-18" class="node default R flowchart-label"><rect height="34" width="220.8125" y="-17" x="-110.40625" ry="0" rx="0" style="" class="basic label-container"/><g transform="translate(0, -9.5)" style="" class="label"><rect/><text style=""><tspan class="row" x="0" dy="1em" xml:space="preserve">extract-VCF-features-SV.R</tspan></text></g></g><g transform="translate(872.66796875, 1079.7999992370605)" data-id="r_liftover" data-node="true" id="flowchart-r_liftover-12" class="node default R flowchart-label"><rect height="34" width="170.9375" y="-17" x="-85.46875" ry="0" rx="0" style="" class="basic label-container"/><g transform="translate(0, -9.5)" style="" class="label"><rect/><text style=""><tspan class="row" x="0" dy="1em" xml:space="preserve">liftover-Delly2-vcf.R</tspan></text></g></g><g transform="translate(213.921875, -8)" class="root"><g class="clusters"><g id="legend" class="cluster default flowchart-label"><rect height="288" width="626.4375" y="8" x="8" ry="0" rx="0" style=""/><g transform="translate(321.21875, 8)" class="cluster-label"><g><rect class="background"/><text y="-10.1"><tspan dy="1.1em" y="-0.1em" x="0" class="text-outer-tspan"><tspan font-weight="bold" class="text-inner-tspan" font-style="normal">Legend</tspan></tspan></text></g></g></g></g><g class="edgePaths"/><g class="edgeLabels"/><g class="nodes"><g transform="translate(25.5, 35)" class="root"><g class="clusters"><g id="nodes" class="cluster default flowchart-label"><rect height="84" width="576.4375" y="8" x="8" ry="0" rx="0" style=""/><g transform="translate(296.21875, 8)" class="cluster-label"><g><rect class="background"/><text y="-10.1"><tspan dy="1.1em" y="-0.1em" x="0" class="text-outer-tspan"><tspan font-weight="bold" class="text-inner-tspan" font-style="normal">Nodes</tspan></tspan></text></g></g></g></g><g class="edgePaths"/><g class="edgeLabels"/><g class="nodes"><g transform="translate(95.1484375, 50)" data-id="input" data-node="true" id="flowchart-input-0" class="node default input flowchart-label"><polygon style="" transform="translate(-44.1484375,17)" class="label-container" points="0,0 88.296875,0 88.296875,-34 0,-34 0,0 -8,0 96.296875,0 96.296875,-34 -8,-34 -8,0"/><g transform="translate(0, -9.5)" style="" class="label"><rect/><text style=""><tspan class="row" x="0" dy="1em" xml:space="preserve">Input File</tspan></text></g></g><g transform="translate(290.3515625, 50)" data-id="input_node" data-node="true" id="flowchart-input_node-1" class="node default input flowchart-label"><rect height="34" width="186.109375" y="-17" x="-93.0546875" ry="17" rx="17" style=""/><g transform="translate(0, -9.5)" style="" class="label"><rect/><text style=""><tspan class="row" x="0" dy="1em" xml:space="preserve">Parameterized Input</tspan></text></g></g><g transform="translate(491.421875, 50)" data-id="output" data-node="true" id="flowchart-output-2" class="node default output flowchart-label"><polygon style="" transform="translate(-50.015625,17)" class="label-container" points="0,0 100.03125,0 100.03125,-34 0,-34 0,0 -8,0 108.03125,0 108.03125,-34 -8,-34 -8,0"/><g transform="translate(0, -9.5)" style="" class="label"><rect/><text style=""><tspan class="row" x="0" dy="1em" xml:space="preserve">Output file</tspan></text></g></g></g></g><g transform="translate(37.8359375, 169)" class="root"><g class="clusters"><g id="processes" class="cluster default flowchart-label"><rect height="84" width="551.765625" y="8" x="8" ry="0" rx="0" style=""/><g transform="translate(283.8828125, 8)" class="cluster-label"><g><rect class="background"/><text y="-10.1"><tspan dy="1.1em" y="-0.1em" x="0" class="text-outer-tspan"><tspan font-weight="bold" class="text-inner-tspan" font-style="normal">Processes</tspan></tspan></text></g></g></g></g><g class="edgePaths"/><g class="edgeLabels"/><g class="nodes"><g transform="translate(71.9375, 50)" data-id="gatk_docker" data-node="true" id="flowchart-gatk_docker-3" class="node default gatk flowchart-label"><rect height="34" width="57.875" y="-17" x="-28.9375" ry="0" rx="0" style="" class="basic label-container"/><g transform="translate(0, -9.5)" style="" class="label"><rect/><text style=""><tspan class="row" x="0" dy="1em" xml:space="preserve">GATK</tspan></text></g></g><g transform="translate(189.84375, 50)" data-id="bcftools_docker" data-node="true" id="flowchart-bcftools_docker-4" class="node default bcftools flowchart-label"><rect height="34" width="77.9375" y="-17" x="-38.96875" ry="0" rx="0" style="" class="basic label-container"/><g transform="translate(0, -9.5)" style="" class="label"><rect/><text style=""><tspan class="row" x="0" dy="1em" xml:space="preserve">bcftools</tspan></text></g></g><g transform="translate(314.1640625, 50)" data-id="r_docker" data-node="true" id="flowchart-r_docker-5" class="node default R flowchart-label"><rect height="34" width="70.703125" y="-17" x="-35.3515625" ry="0" rx="0" style="" class="basic label-container"/><g transform="translate(0, -9.5)" style="" class="label"><rect/><text style=""><tspan class="row" x="0" dy="1em" xml:space="preserve">Rscript</tspan></text></g></g><g transform="translate(462.140625, 50)" data-id="linux_docker" data-node="true" id="flowchart-linux_docker-6" class="node default linux flowchart-label"><rect height="34" width="125.25" y="-17" x="-62.625" ry="0" rx="0" style="" class="basic label-container"/><g transform="translate(0, -9.5)" style="" class="label"><rect/><text style=""><tspan class="row" x="0" dy="1em" xml:space="preserve">Generic Linux</tspan></text></g></g></g></g></g></g><g transform="translate(534.640625, 355)" data-id="input_vcf" data-node="true" id="flowchart-input_vcf-8" class="node default input flowchart-label"><polygon style="" transform="translate(-46.421875,17)" class="label-container" points="0,0 92.84375,0 92.84375,-34 0,-34 0,0 -8,0 100.84375,0 100.84375,-34 -8,-34 -8,0"/><g transform="translate(0, -9.5)" style="" class="label"><rect/><text style=""><tspan class="row" x="0" dy="1em" xml:space="preserve">Input VCF</tspan></text></g></g><g transform="translate(534.640625, 439)" data-id="pipeval" data-node="true" id="flowchart-pipeval-9" class="node default linux flowchart-label"><rect height="34" width="73.328125" y="-17" x="-36.6640625" ry="0" rx="0" style="" class="basic label-container"/><g transform="translate(0, -9.5)" style="" class="label"><rect/><text style=""><tspan class="row" x="0" dy="1em" xml:space="preserve">pipeval</tspan></text></g></g><g transform="translate(534.640625, 523)" data-id="sv_vs_snv" data-node="true" id="flowchart-sv_vs_snv-10" class="node default default flowchart-label"><polygon style="" transform="translate(-69.5390625,17)" class="label-container" points="8.5,0 130.578125,0 139.078125,-17 130.578125,-34 8.5,-34 0,-17"/><g transform="translate(0, -9.5)" style="" class="label"><rect/><text style=""><tspan class="row" x="0" dy="1em" xml:space="preserve">Variant Type?</tspan></text></g></g><g transform="translate(596.91015625, 1459)" data-id="joinpaths" data-node="true" id="flowchart-joinpaths-44" class="node default default flowchart-label"><polygon style="" transform="translate(-15,15)" class="label-container" points="15,0 30,-15 15,-30 0,-15"/><g transform="translate(0, 0)" style="" class="label"><rect/><text style=""><tspan class="row" x="0" dy="1em" xml:space="preserve"/></text></g></g><g transform="translate(637.85546875, 1861.599998474121)" data-id="output_vcfs" data-node="true" id="flowchart-output_vcfs-56" class="node default output flowchart-label"><polygon style="" transform="translate(-57.6640625,17)" class="label-container" points="0,0 115.328125,0 115.328125,-34 0,-34 0,0 -8,0 123.328125,0 123.328125,-34 -8,-34 -8,0"/><g transform="translate(0, -9.5)" style="" class="label"><rect/><text style=""><tspan class="row" x="0" dy="1em" xml:space="preserve">Output VCFs</tspan></text></g></g></g></g></g></svg>