<svg aria-roledescription="flowchart-v2" role="graphics-document document" viewBox="-8 -8 1100.16015625 1912.199951171875" style="max-width: 1100.16px; background-color: white;" xmlns:xlink="http://www.w3.org/1999/xlink" xmlns="http://www.w3.org/2000/svg" width="100%" id="my-svg"><style>#my-svg{font-family:"trebuchet ms",verdana,arial,sans-serif;font-size:16px;fill:#333;}#my-svg .error-icon{fill:#552222;}#my-svg .error-text{fill:#552222;stroke:#552222;}#my-svg .edge-thickness-normal{stroke-width:2px;}#my-svg .edge-thickness-thick{stroke-width:3.5px;}#my-svg .edge-pattern-solid{stroke-dasharray:0;}#my-svg .edge-pattern-dashed{stroke-dasharray:3;}#my-svg .edge-pattern-dotted{stroke-dasharray:2;}#my-svg .marker{fill:#333333;stroke:#333333;}#my-svg .marker.cross{stroke:#333333;}#my-svg svg{font-family:"trebuchet ms",verdana,arial,sans-serif;font-size:16px;}#my-svg .label{font-family:"trebuchet ms",verdana,arial,sans-serif;color:#333;}#my-svg .cluster-label text{fill:#333;}#my-svg .cluster-label span,#my-svg p{color:#333;}#my-svg .label text,#my-svg span,#my-svg p{fill:#333;color:#333;}#my-svg .node rect,#my-svg .node circle,#my-svg .node ellipse,#my-svg .node polygon,#my-svg .node path{fill:#ECECFF;stroke:#9370DB;stroke-width:1px;}#my-svg .flowchart-label text{text-anchor:middle;}#my-svg .node .katex path{fill:#000;stroke:#000;stroke-width:1px;}#my-svg .node .label{text-align:center;}#my-svg .node.clickable{cursor:pointer;}#my-svg .arrowheadPath{fill:#333333;}#my-svg .edgePath .path{stroke:#333333;stroke-width:2.0px;}#my-svg .flowchart-link{stroke:#333333;fill:none;}#my-svg .edgeLabel{background-color:#e8e8e8;text-align:center;}#my-svg .edgeLabel rect{opacity:0.5;background-color:#e8e8e8;fill:#e8e8e8;}#my-svg .labelBkg{background-color:rgba(232, 232, 232, 0.5);}#my-svg .cluster rect{fill:#ffffde;stroke:#aaaa33;stroke-width:1px;}#my-svg .cluster text{fill:#333;}#my-svg .cluster span,#my-svg p{color:#333;}#my-svg div.mermaidTooltip{position:absolute;text-align:center;max-width:200px;padding:2px;font-family:"trebuchet ms",verdana,arial,sans-serif;font-size:12px;background:hsl(80, 100%, 96.2745098039%);border:1px solid #aaaa33;border-radius:2px;pointer-events:none;z-index:100;}#my-svg .flowchartTitleText{text-anchor:middle;font-size:18px;fill:#333;}#my-svg :root{--mermaid-font-family:"trebuchet ms",verdana,arial,sans-serif;}#my-svg .input rect{fill:#ffffb3!important;}#my-svg .input polygon{fill:#ffffb3!important;}#my-svg .input ellipse{fill:#ffffb3!important;}#my-svg .input circle{fill:#ffffb3!important;}#my-svg .input path{fill:#ffffb3!important;}#my-svg .output rect{fill:#b3de69!important;}#my-svg .output polygon{fill:#b3de69!important;}#my-svg .output ellipse{fill:#b3de69!important;}#my-svg .output circle{fill:#b3de69!important;}#my-svg .output path{fill:#b3de69!important;}#my-svg .gatk rect{fill:#bebada!important;}#my-svg .gatk polygon{fill:#bebada!important;}#my-svg .gatk ellipse{fill:#bebada!important;}#my-svg .gatk circle{fill:#bebada!important;}#my-svg .gatk path{fill:#bebada!important;}#my-svg .bcftools rect{fill:#fdb462!important;}#my-svg .bcftools polygon{fill:#fdb462!important;}#my-svg .bcftools ellipse{fill:#fdb462!important;}#my-svg .bcftools circle{fill:#fdb462!important;}#my-svg .bcftools path{fill:#fdb462!important;}#my-svg .R rect{fill:#8dd3c7!important;}#my-svg .R polygon{fill:#8dd3c7!important;}#my-svg .R ellipse{fill:#8dd3c7!important;}#my-svg .R circle{fill:#8dd3c7!important;}#my-svg .R path{fill:#8dd3c7!important;}#my-svg .linux rect{fill:#fb8072!important;}#my-svg .linux polygon{fill:#fb8072!important;}#my-svg .linux ellipse{fill:#fb8072!important;}#my-svg .linux circle{fill:#fb8072!important;}#my-svg .linux path{fill:#fb8072!important;}</style><g><marker orient="auto" markerHeight="12" markerWidth="12" markerUnits="userSpaceOnUse" refY="5" refX="6" viewBox="0 0 10 10" class="marker flowchart" id="my-svg_flowchart-pointEnd"><path style="stroke-width: 1; stroke-dasharray: 1, 0;" class="arrowMarkerPath" d="M 0 0 L 10 5 L 0 10 z"/></marker><marker orient="auto" markerHeight="12" markerWidth="12" markerUnits="userSpaceOnUse" refY="5" refX="4.5" viewBox="0 0 10 10" class="marker flowchart" id="my-svg_flowchart-pointStart"><path style="stroke-width: 1; stroke-dasharray: 1, 0;" class="arrowMarkerPath" d="M 0 5 L 10 10 L 10 0 z"/></marker><marker orient="auto" markerHeight="11" markerWidth="11" markerUnits="userSpaceOnUse" refY="5" refX="11" viewBox="0 0 10 10" class="marker flowchart" id="my-svg_flowchart-circleEnd"><circle style="stroke-width: 1; stroke-dasharray: 1, 0;" class="arrowMarkerPath" r="5" cy="5" cx="5"/></marker><marker orient="auto" markerHeight="11" markerWidth="11" markerUnits="userSpaceOnUse" refY="5" refX="-1" viewBox="0 0 10 10" class="marker flowchart" id="my-svg_flowchart-circleStart"><circle style="stroke-width: 1; stroke-dasharray: 1, 0;" class="arrowMarkerPath" r="5" cy="5" cx="5"/></marker><marker orient="auto" markerHeight="11" markerWidth="11" markerUnits="userSpaceOnUse" refY="5.2" refX="12" viewBox="0 0 11 11" class="marker cross flowchart" id="my-svg_flowchart-crossEnd"><path style="stroke-width: 2; stroke-dasharray: 1, 0;" class="arrowMarkerPath" d="M 1,1 l 9,9 M 10,1 l -9,9"/></marker><marker orient="auto" markerHeight="11" markerWidth="11" markerUnits="userSpaceOnUse" refY="5.2" refX="-1" viewBox="0 0 11 11" class="marker cross flowchart" id="my-svg_flowchart-crossStart"><path style="stroke-width: 2; stroke-dasharray: 1, 0;" class="arrowMarkerPath" d="M 1,1 l 9,9 M 10,1 l -9,9"/></marker><g class="root"><g class="clusters"><g id="Predict Stability" class="cluster default flowchart-label"><rect height="270.5999984741211" width="296.47265625" y="1541.599998474121" x="513.53515625" ry="0" rx="0" style=""/><g transform="translate(661.771484375, 1541.599998474121)" class="cluster-label"><g><rect class="background"/><text y="-10.1"><tspan dy="1.1em" y="-0.1em" x="0" class="text-outer-tspan"><tspan font-weight="normal" class="text-inner-tspan" font-style="normal">        </tspan><tspan font-weight="bold" class="text-inner-tspan" font-style="normal"> Predict</tspan><tspan font-weight="bold" class="text-inner-tspan" font-style="normal"> Stability</tspan></tspan></text></g></g></g><g id="SNV" class="cluster default flowchart-label"><rect height="821.5999984741211" width="654.5703125" y="590" x="0" ry="0" rx="0" style=""/><g transform="translate(327.28515625, 590)" class="cluster-label"><g><rect class="background"/><text y="-10.1"><tspan dy="1.1em" y="-0.1em" x="0" class="text-outer-tspan"><tspan font-weight="bold" class="text-inner-tspan" font-style="normal">SNV</tspan></tspan></text></g></g></g><g id="SV" class="cluster default flowchart-label"><rect height="577.5999984741211" width="409.58984375" y="834" x="674.5703125" ry="0" rx="0" style=""/><g transform="translate(879.365234375, 834)" class="cluster-label"><g><rect class="background"/><text y="-10.1"><tspan dy="1.1em" y="-0.1em" x="0" class="text-outer-tspan"><tspan font-weight="bold" class="text-inner-tspan" font-style="normal">SV</tspan></tspan></text></g></g></g><g id="SNV_liftover" class="cluster default flowchart-label"><rect height="169" width="252.01171875" y="615" x="151.96484375" ry="0" rx="0" style=""/><g transform="translate(277.970703125, 615)" class="cluster-label"><g><rect class="background"/><text y="-10.1"><tspan dy="1.1em" y="-0.1em" x="0" class="text-outer-tspan"><tspan font-weight="bold" class="text-inner-tspan" font-style="normal">Liftover</tspan></tspan></text></g></g></g><g id="SNV_annotation" class="cluster default flowchart-label"><rect height="373.1999969482422" width="418.1640625" y="859" x="216.1796875" ry="0" rx="0" style=""/><g transform="translate(425.26171875, 859)" class="cluster-label"><g><rect class="background"/><text y="-10.1"><tspan dy="1.1em" y="-0.1em" x="0" class="text-outer-tspan"><tspan font-weight="bold" class="text-inner-tspan" font-style="normal">Annotation</tspan></tspan></text></g></g></g></g><g class="edgePaths"><path marker-end="url(#my-svg_flowchart-pointEnd)" style="fill:none;" class="edge-thickness-normal edge-pattern-solid flowchart-link LS-input_vcf LE-pipeval" id="L-input_vcf-pipeval-0" d="M553.875,372.5L553.792,376.583C553.708,380.667,553.542,388.833,553.458,396.2C553.375,403.567,553.375,410.133,553.375,413.417L553.375,416.7"/><path marker-end="url(#my-svg_flowchart-pointEnd)" style="fill:none;" class="edge-thickness-normal edge-pattern-solid flowchart-link LS-pipeval LE-sv_vs_snv" id="L-pipeval-sv_vs_snv-0" d="M553.375,456L553.375,460.167C553.375,464.333,553.375,472.667,553.441,480.2C553.507,487.734,553.639,494.467,553.705,497.834L553.771,501.201"/><path marker-end="url(#my-svg_flowchart-pointEnd)" style="fill:none;" class="edge-thickness-normal edge-pattern-solid flowchart-link LS-sv_vs_snv LE-r_liftover" id="L-sv_vs_snv-r_liftover-0" d="M617.035,536.258L641.079,541.048C665.124,545.839,713.212,555.419,737.256,564.376C761.301,573.333,761.301,581.667,761.301,590C761.301,598.333,761.301,606.667,761.301,617.917C761.301,629.167,761.301,643.333,761.301,657.5C761.301,671.667,761.301,685.833,761.301,699.917C761.301,714,761.301,728,761.301,742C761.301,756,761.301,770,761.301,781.167C761.301,792.333,761.301,800.667,761.301,809C761.301,817.333,761.301,825.667,761.301,834C761.301,842.333,761.301,850.667,761.301,861.917C761.301,873.167,761.301,887.333,761.301,901.5C761.301,915.667,761.301,929.833,761.301,944C761.301,958.167,761.301,972.333,761.301,986.5C761.301,1000.667,761.301,1014.833,774.905,1027.229C788.51,1039.624,815.719,1050.248,829.323,1055.56L842.927,1060.872"/><path marker-end="url(#my-svg_flowchart-pointEnd)" style="fill:none;stroke-width:2px;stroke-dasharray:3;" class="edge-thickness-normal edge-pattern-dotted flowchart-link LS-header_contigs LE-r_liftover" id="L-header_contigs-r_liftover-0" d="M891.402,1004L891.402,1008.167C891.402,1012.333,891.402,1020.667,891.402,1029.583C891.402,1038.5,891.402,1048,891.402,1052.75L891.402,1057.5"/><path marker-end="url(#my-svg_flowchart-pointEnd)" style="fill:none;stroke-width:2px;stroke-dasharray:3;" class="edge-thickness-normal edge-pattern-dotted flowchart-link LS-chain_file2 LE-r_liftover" id="L-chain_file2-r_liftover-0" d="M999.434,919L999.434,923.167C999.434,927.333,999.434,935.667,999.434,946.917C999.434,958.167,999.434,972.333,999.434,986.5C999.434,1000.667,999.434,1014.833,988.253,1027.174C977.073,1039.515,954.712,1050.03,943.531,1055.287L932.351,1060.545"/><path marker-end="url(#my-svg_flowchart-pointEnd)" style="fill:none;stroke-width:2px;stroke-dasharray:3;" class="edge-thickness-normal edge-pattern-dotted flowchart-link LS-gnomad_rds LE-r_extract_sv" id="L-gnomad_rds-r_extract_sv-0" d="M795.316,1198.9L795.316,1204.45C795.316,1210,795.316,1221.1,795.316,1230.817C795.316,1240.533,795.316,1248.867,801.094,1262.317C806.871,1275.767,818.425,1294.333,824.202,1303.617L829.98,1312.9"/><path marker-end="url(#my-svg_flowchart-pointEnd)" style="fill:none;" class="edge-thickness-normal edge-pattern-solid flowchart-link LS-r_liftover LE-r_extract_sv" id="L-r_liftover-r_extract_sv-0" d="M891.402,1096.8L891.402,1102.433C891.402,1108.067,891.402,1119.333,891.402,1133.433C891.402,1147.533,891.402,1164.467,891.402,1181.4C891.402,1198.333,891.402,1215.267,891.402,1227.9C891.402,1240.533,891.402,1248.867,885.625,1262.317C879.848,1275.767,868.294,1294.333,862.516,1303.617L856.739,1312.9"/><path marker-end="url(#my-svg_flowchart-pointEnd)" style="fill:none;stroke-width:2px;stroke-dasharray:3;" class="edge-thickness-normal edge-pattern-dotted flowchart-link LS-chain_file LE-bcftools_liftover" id="L-chain_file-bcftools_liftover-0" d="M250.09,675L250.09,679.167C250.09,683.333,250.09,691.667,253.665,699.378C257.241,707.09,264.391,714.179,267.967,717.724L271.542,721.269"/><path marker-end="url(#my-svg_flowchart-pointEnd)" style="fill:none;" class="edge-thickness-normal edge-pattern-solid flowchart-link LS-sv_vs_snv LE-bcftools_liftover" id="L-sv_vs_snv-bcftools_liftover-0" d="M490.52,535.867L465.135,540.723C439.751,545.578,388.983,555.289,363.599,564.311C338.215,573.333,338.215,581.667,338.215,590C338.215,598.333,338.215,606.667,338.215,617.917C338.215,629.167,338.215,643.333,338.215,657.5C338.215,671.667,338.215,685.833,334.326,696.486C330.437,707.139,322.659,714.278,318.77,717.847L314.88,721.416"/><path marker-end="url(#my-svg_flowchart-pointEnd)" style="fill:none;" class="edge-thickness-normal edge-pattern-solid flowchart-link LS-gatk_func LE-bcftools_annotate" id="L-gatk_func-bcftools_annotate-0" d="M354.063,1003.5L354.063,1007.75C354.063,1012,354.063,1020.5,358.082,1028.329C362.102,1036.158,370.141,1043.317,374.161,1046.896L378.18,1050.475"/><path marker-end="url(#my-svg_flowchart-pointEnd)" style="fill:none;" class="edge-thickness-normal edge-pattern-solid flowchart-link LS-bcftools_annotate LE-bcftools_annotate2" id="L-bcftools_annotate-bcftools_annotate2-0" d="M411.113,1105.6L411.113,1109.767C411.113,1113.933,411.113,1122.267,411.113,1129.717C411.113,1137.167,411.113,1143.733,411.113,1147.017L411.113,1150.3"/><path marker-end="url(#my-svg_flowchart-pointEnd)" style="fill:none;" class="edge-thickness-normal edge-pattern-solid flowchart-link LS-bcftools_liftover LE-gatk_func" id="L-bcftools_liftover-gatk_func-0" d="M292.453,759L292.453,763.167C292.453,767.333,292.453,775.667,292.453,784C292.453,792.333,292.453,800.667,292.453,809C292.453,817.333,292.453,825.667,292.453,834C292.453,842.333,292.453,850.667,292.453,861.917C292.453,873.167,292.453,887.333,292.453,901.5C292.453,915.667,292.453,929.833,297.887,940.665C303.321,951.497,314.188,958.994,319.622,962.742L325.056,966.49"/><path marker-end="url(#my-svg_flowchart-pointEnd)" style="fill:none;" class="edge-thickness-normal edge-pattern-solid flowchart-link LS-bcftools_annotate2 LE-r_extract_snv" id="L-bcftools_annotate2-r_extract_snv-0" d="M411.113,1207.2L411.113,1211.367C411.113,1215.533,411.113,1223.867,411.113,1232.2C411.113,1240.533,411.113,1248.867,411.113,1262.183C411.113,1275.5,411.113,1293.8,411.113,1302.95L411.113,1312.1"/><path marker-end="url(#my-svg_flowchart-pointEnd)" style="fill:none;stroke-width:2px;stroke-dasharray:3;" class="edge-thickness-normal edge-pattern-dotted flowchart-link LS-funcotator_sources LE-gatk_func" id="L-funcotator_sources-gatk_func-0" d="M427.465,919L427.465,923.167C427.465,927.333,427.465,935.667,420.889,943.641C414.313,951.615,401.162,959.23,394.586,963.037L388.01,966.844"/><path marker-end="url(#my-svg_flowchart-pointEnd)" style="fill:none;stroke-width:2px;stroke-dasharray:3;" class="edge-thickness-normal edge-pattern-dotted flowchart-link LS-repeat_bed LE-bcftools_annotate" id="L-repeat_bed-bcftools_annotate-0" d="M532.055,1004L532.055,1008.167C532.055,1012.333,532.055,1020.667,522.949,1028.658C513.844,1036.649,495.633,1044.298,486.528,1048.123L477.423,1051.948"/><path marker-end="url(#my-svg_flowchart-pointEnd)" style="fill:none;" class="edge-thickness-normal edge-pattern-solid flowchart-link LS-r_extract_snv LE-joinpaths" id="L-r_extract_snv-joinpaths-0" d="M411.113,1351.4L411.113,1361.433C411.113,1371.467,411.113,1391.533,411.113,1405.733C411.113,1419.933,411.113,1428.267,442.328,1438.603C473.542,1448.94,535.97,1461.279,567.185,1467.449L598.399,1473.619"/><path marker-end="url(#my-svg_flowchart-pointEnd)" style="fill:none;" class="edge-thickness-normal edge-pattern-solid flowchart-link LS-r_extract_sv LE-joinpaths" id="L-r_extract_sv-joinpaths-0" d="M843.359,1351.4L843.359,1361.433C843.359,1371.467,843.359,1391.533,843.359,1405.733C843.359,1419.933,843.359,1428.267,808.486,1438.655C773.613,1449.043,703.867,1461.485,668.994,1467.707L634.121,1473.928"/><path marker-end="url(#my-svg_flowchart-pointEnd)" style="fill:none;" class="edge-thickness-normal edge-pattern-solid flowchart-link LS-joinpaths LE-r_predict_stability" id="L-joinpaths-r_predict_stability-0" d="M616.145,1492.1L616.061,1496.183C615.978,1500.267,615.811,1508.433,615.728,1516.683C615.645,1524.933,615.645,1533.267,615.645,1544.517C615.645,1555.767,615.645,1569.933,615.645,1584.1C615.645,1598.267,615.645,1612.433,619.09,1623.051C622.535,1633.668,629.426,1640.737,632.872,1644.271L636.317,1647.805"/><path marker-end="url(#my-svg_flowchart-pointEnd)" style="fill:none;" class="edge-thickness-normal edge-pattern-solid flowchart-link LS-r_predict_stability LE-bcftools_annotate3" id="L-r_predict_stability-bcftools_annotate3-0" d="M656.59,1685.6L656.59,1689.767C656.59,1693.933,656.59,1702.267,656.59,1709.717C656.59,1717.167,656.59,1723.733,656.59,1727.017L656.59,1730.3"/><path marker-end="url(#my-svg_flowchart-pointEnd)" style="fill:none;stroke-width:2px;stroke-dasharray:3;" class="edge-thickness-normal edge-pattern-dotted flowchart-link LS-rf_model LE-r_predict_stability" id="L-rf_model-r_predict_stability-0" d="M697.535,1601.6L697.535,1605.767C697.535,1609.933,697.535,1618.267,694.09,1625.967C690.644,1633.668,683.753,1640.737,680.308,1644.271L676.863,1647.805"/><path marker-end="url(#my-svg_flowchart-pointEnd)" style="fill:none;" class="edge-thickness-normal edge-pattern-solid flowchart-link LS-bcftools_annotate3 LE-output_vcfs" id="L-bcftools_annotate3-output_vcfs-0" d="M656.59,1787.2L656.59,1791.367C656.59,1795.533,656.59,1803.867,656.59,1812.2C656.59,1820.533,656.59,1828.867,656.656,1836.4C656.722,1843.934,656.854,1850.667,656.92,1854.034L656.986,1857.401"/><path style="stroke-width: 0;fill:none;" class="edge-thickness-thick edge-pattern-solid flowchart-link LS-legend LE-input_vcf" id="L-legend-input_vcf-0" d="M553.375,288L553.375,292.167C553.375,296.333,553.375,304.667,553.375,313C553.375,321.333,553.375,329.667,553.375,333.833L553.375,338"/></g><g class="edgeLabels"><g class="edgeLabel"><g transform="translate(0, 0)" class="label"><rect height="0" width="0" ry="0" rx="0"/><text style=""><tspan class="row" x="0" dy="1em" xml:space="preserve"/></text></g></g><g class="edgeLabel"><g transform="translate(0, 0)" class="label"><rect height="0" width="0" ry="0" rx="0"/><text style=""><tspan class="row" x="0" dy="1em" xml:space="preserve"/></text></g></g><g class="edgeLabel"><g transform="translate(0, 0)" class="label"><rect height="0" width="0" ry="0" rx="0"/><text style=""><tspan class="row" x="0" dy="1em" xml:space="preserve"/></text></g></g><g class="edgeLabel"><g transform="translate(0, 0)" class="label"><rect height="0" width="0" ry="0" rx="0"/><text style=""><tspan class="row" x="0" dy="1em" xml:space="preserve"/></text></g></g><g class="edgeLabel"><g transform="translate(0, 0)" class="label"><rect height="0" width="0" ry="0" rx="0"/><text style=""><tspan class="row" x="0" dy="1em" xml:space="preserve"/></text></g></g><g class="edgeLabel"><g transform="translate(0, 0)" class="label"><rect height="0" width="0" ry="0" rx="0"/><text style=""><tspan class="row" x="0" dy="1em" xml:space="preserve"/></text></g></g><g class="edgeLabel"><g transform="translate(0, 0)" class="label"><rect height="0" width="0" ry="0" rx="0"/><text style=""><tspan class="row" x="0" dy="1em" xml:space="preserve"/></text></g></g><g class="edgeLabel"><g transform="translate(0, 0)" class="label"><rect height="0" width="0" ry="0" rx="0"/><text style=""><tspan class="row" x="0" dy="1em" xml:space="preserve"/></text></g></g><g class="edgeLabel"><g transform="translate(0, 0)" class="label"><rect height="0" width="0" ry="0" rx="0"/><text style=""><tspan class="row" x="0" dy="1em" xml:space="preserve"/></text></g></g><g class="edgeLabel"><g transform="translate(0, 0)" class="label"><rect height="0" width="0" ry="0" rx="0"/><text style=""><tspan class="row" x="0" dy="1em" xml:space="preserve"/></text></g></g><g class="edgeLabel"><g transform="translate(0, 0)" class="label"><rect height="0" width="0" ry="0" rx="0"/><text style=""><tspan class="row" x="0" dy="1em" xml:space="preserve"/></text></g></g><g class="edgeLabel"><g transform="translate(0, 0)" class="label"><rect height="0" width="0" ry="0" rx="0"/><text style=""><tspan class="row" x="0" dy="1em" xml:space="preserve"/></text></g></g><g class="edgeLabel"><g transform="translate(0, 0)" class="label"><rect height="0" width="0" ry="0" rx="0"/><text style=""><tspan class="row" x="0" dy="1em" xml:space="preserve"/></text></g></g><g class="edgeLabel"><g transform="translate(0, 0)" class="label"><rect height="0" width="0" ry="0" rx="0"/><text style=""><tspan class="row" x="0" dy="1em" xml:space="preserve"/></text></g></g><g class="edgeLabel"><g transform="translate(0, 0)" class="label"><rect height="0" width="0" ry="0" rx="0"/><text style=""><tspan class="row" x="0" dy="1em" xml:space="preserve"/></text></g></g><g class="edgeLabel"><g transform="translate(0, 0)" class="label"><rect height="0" width="0" ry="0" rx="0"/><text style=""><tspan class="row" x="0" dy="1em" xml:space="preserve"/></text></g></g><g class="edgeLabel"><g transform="translate(0, 0)" class="label"><rect height="0" width="0" ry="0" rx="0"/><text style=""><tspan class="row" x="0" dy="1em" xml:space="preserve"/></text></g></g><g class="edgeLabel"><g transform="translate(0, 0)" class="label"><rect height="0" width="0" ry="0" rx="0"/><text style=""><tspan class="row" x="0" dy="1em" xml:space="preserve"/></text></g></g><g class="edgeLabel"><g transform="translate(0, 0)" class="label"><rect height="0" width="0" ry="0" rx="0"/><text style=""><tspan class="row" x="0" dy="1em" xml:space="preserve"/></text></g></g><g class="edgeLabel"><g transform="translate(0, 0)" class="label"><rect height="0" width="0" ry="0" rx="0"/><text style=""><tspan class="row" x="0" dy="1em" xml:space="preserve"/></text></g></g><g class="edgeLabel"><g transform="translate(0, 0)" class="label"><rect height="0" width="0" ry="0" rx="0"/><text style=""><tspan class="row" x="0" dy="1em" xml:space="preserve"/></text></g></g><g class="edgeLabel"><g transform="translate(0, 0)" class="label"><rect height="0" width="0" ry="0" rx="0"/><text style=""><tspan class="row" x="0" dy="1em" xml:space="preserve"/></text></g></g></g><g class="nodes"><g transform="translate(656.58984375, 1761.3999977111816)" data-id="bcftools_annotate3" data-node="true" id="flowchart-bcftools_annotate3-52" class="node default bcftools flowchart-label"><rect height="51.599998474121094" width="155.09375" y="-25.799999237060547" x="-77.546875" ry="0" rx="0" style="" class="basic label-container"/><g transform="translate(0, -18.299999237060547)" style="" class="label"><rect/><g><rect class="background"/><text y="-10.1"><tspan dy="1.1em" y="-0.1em" x="0" class="text-outer-tspan"><tspan font-weight="normal" class="text-inner-tspan" font-style="normal">bcftools</tspan><tspan font-weight="normal" class="text-inner-tspan" font-style="normal"> annotate</tspan></tspan><tspan dy="1.1em" y="1em" x="0" class="text-outer-tspan"><tspan font-weight="normal" class="text-inner-tspan" font-style="italic">Stability</tspan></tspan></text></g></g></g><g transform="translate(656.58984375, 1668.599998474121)" data-id="r_predict_stability" data-node="true" id="flowchart-r_predict_stability-50" class="node default R flowchart-label"><rect height="34" width="216.109375" y="-17" x="-108.0546875" ry="0" rx="0" style="" class="basic label-container"/><g transform="translate(0, -9.5)" style="" class="label"><rect/><text style=""><tspan class="row" x="0" dy="1em" xml:space="preserve">predict-variant-stability.R</tspan></text></g></g><g transform="translate(697.53515625, 1584.099998474121)" data-id="rf_model" data-node="true" id="flowchart-rf_model-53" class="node default input flowchart-label"><rect height="35" width="93.78125" y="-17.5" x="-46.890625" ry="17.5" rx="17.5" style=""/><g transform="translate(0, -10)" style="" class="label"><rect/><text style=""><tspan class="row" x="0" dy="1em" xml:space="preserve">rf_model</tspan></text></g></g><g transform="translate(141.2265625, 1334.3999977111816)" data-id="blocknote" data-node="true" id="flowchart-blocknote-35" class="node default default flowchart-label"><rect height="104.4000015258789" width="212.453125" y="-52.20000076293945" x="-106.2265625" ry="0" rx="0" style="" class="basic label-container"/><g transform="translate(0, -44.70000076293945)" style="" class="label"><rect/><g><rect class="background"/><text y="-10.1"><tspan dy="1.1em" y="-0.1em" x="0" class="text-outer-tspan"><tspan font-weight="bold" class="text-inner-tspan" font-style="normal">Note:</tspan><tspan font-weight="normal" class="text-inner-tspan" font-style="normal"> Annotation</tspan><tspan font-weight="normal" class="text-inner-tspan" font-style="normal"> is</tspan></tspan><tspan dy="1.1em" y="1em" x="0" class="text-outer-tspan"><tspan font-weight="normal" class="text-inner-tspan" font-style="normal">performed</tspan><tspan font-weight="normal" class="text-inner-tspan" font-style="normal"> prior</tspan><tspan font-weight="normal" class="text-inner-tspan" font-style="normal"> to</tspan></tspan><tspan dy="1.1em" y="2.1em" x="0" class="text-outer-tspan"><tspan font-weight="normal" class="text-inner-tspan" font-style="normal">LiftOver</tspan><tspan font-weight="normal" class="text-inner-tspan" font-style="normal"> when</tspan></tspan><tspan dy="1.1em" y="3.2em" x="0" class="text-outer-tspan"><tspan font-weight="normal" class="text-inner-tspan" font-style="normal">converting</tspan><tspan font-weight="normal" class="text-inner-tspan" font-style="normal"> from</tspan><tspan font-weight="normal" class="text-inner-tspan" font-style="normal"> GRCh38</tspan></tspan><tspan dy="1.1em" y="4.300000000000001em" x="0" class="text-outer-tspan"><tspan font-weight="normal" class="text-inner-tspan" font-style="normal">-&gt;</tspan><tspan font-weight="normal" class="text-inner-tspan" font-style="normal"> GRCh37</tspan></tspan></text></g></g></g><g transform="translate(411.11328125, 1334.3999977111816)" data-id="r_extract_snv" data-node="true" id="flowchart-r_extract_snv-39" class="node default R flowchart-label"><rect height="34" width="196" y="-17" x="-98" ry="0" rx="0" style="" class="basic label-container"/><g transform="translate(0, -9.5)" style="" class="label"><rect/><text style=""><tspan class="row" x="0" dy="1em" xml:space="preserve">extract-VCF-features.R</tspan></text></g></g><g transform="translate(427.46484375, 901.5)" data-id="funcotator_sources" data-node="true" id="flowchart-funcotator_sources-30" class="node default input flowchart-label"><rect height="35" width="176.4375" y="-17.5" x="-88.21875" ry="17.5" rx="17.5" style=""/><g transform="translate(0, -10)" style="" class="label"><rect/><text style=""><tspan class="row" x="0" dy="1em" xml:space="preserve">funcotator_sources</tspan></text></g></g><g transform="translate(532.0546875, 986.5)" data-id="repeat_bed" data-node="true" id="flowchart-repeat_bed-31" class="node default input flowchart-label"><rect height="35" width="114.0625" y="-17.5" x="-57.03125" ry="17.5" rx="17.5" style=""/><g transform="translate(0, -10)" style="" class="label"><rect/><text style=""><tspan class="row" x="0" dy="1em" xml:space="preserve">repeat_bed</tspan></text></g></g><g transform="translate(411.11328125, 1181.3999977111816)" data-id="bcftools_annotate2" data-node="true" id="flowchart-bcftools_annotate2-34" class="node default bcftools flowchart-label"><rect height="51.599998474121094" width="155.09375" y="-25.799999237060547" x="-77.546875" ry="0" rx="0" style="" class="basic label-container"/><g transform="translate(0, -18.299999237060547)" style="" class="label"><rect/><g><rect class="background"/><text y="-10.1"><tspan dy="1.1em" y="-0.1em" x="0" class="text-outer-tspan"><tspan font-weight="normal" class="text-inner-tspan" font-style="normal">bcftools</tspan><tspan font-weight="normal" class="text-inner-tspan" font-style="normal"> annotate</tspan></tspan><tspan dy="1.1em" y="1em" x="0" class="text-outer-tspan"><tspan font-weight="normal" class="text-inner-tspan" font-style="italic">Trinucleotide</tspan></tspan></text></g></g></g><g transform="translate(411.11328125, 1079.7999992370605)" data-id="bcftools_annotate" data-node="true" id="flowchart-bcftools_annotate-33" class="node default bcftools flowchart-label"><rect height="51.599998474121094" width="155.09375" y="-25.799999237060547" x="-77.546875" ry="0" rx="0" style="" class="basic label-container"/><g transform="translate(0, -18.299999237060547)" style="" class="label"><rect/><g><rect class="background"/><text y="-10.1"><tspan dy="1.1em" y="-0.1em" x="0" class="text-outer-tspan"><tspan font-weight="normal" class="text-inner-tspan" font-style="normal">bcftools</tspan><tspan font-weight="normal" class="text-inner-tspan" font-style="normal"> annotate</tspan></tspan><tspan dy="1.1em" y="1em" x="0" class="text-outer-tspan"><tspan font-weight="normal" class="text-inner-tspan" font-style="italic">RepeatMasker</tspan></tspan></text></g></g></g><g transform="translate(354.0625, 986.5)" data-id="gatk_func" data-node="true" id="flowchart-gatk_func-32" class="node default gatk flowchart-label"><rect height="34" width="141.921875" y="-17" x="-70.9609375" ry="0" rx="0" style="" class="basic label-container"/><g transform="translate(0, -9.5)" style="" class="label"><rect/><text style=""><tspan class="row" x="0" dy="1em" xml:space="preserve">gatk Funcotator</tspan></text></g></g><g transform="translate(250.08984375, 657.5)" data-id="chain_file" data-node="true" id="flowchart-chain_file-24" class="node default input flowchart-label"><rect height="35" width="99.453125" y="-17.5" x="-49.7265625" ry="17.5" rx="17.5" style=""/><g transform="translate(0, -10)" style="" class="label"><rect/><text style=""><tspan class="row" x="0" dy="1em" xml:space="preserve">chain_file</tspan></text></g></g><g transform="translate(292.453125, 742)" data-id="bcftools_liftover" data-node="true" id="flowchart-bcftools_liftover-25" class="node default bcftools flowchart-label"><rect height="34" width="153.046875" y="-17" x="-76.5234375" ry="0" rx="0" style="" class="basic label-container"/><g transform="translate(0, -9.5)" style="" class="label"><rect/><text style=""><tspan class="row" x="0" dy="1em" xml:space="preserve">bcftools +liftover</tspan></text></g></g><g transform="translate(891.40234375, 986.5)" data-id="header_contigs" data-node="true" id="flowchart-header_contigs-13" class="node default input flowchart-label"><rect height="35" width="146.0625" y="-17.5" x="-73.03125" ry="17.5" rx="17.5" style=""/><g transform="translate(0, -10)" style="" class="label"><rect/><text style=""><tspan class="row" x="0" dy="1em" xml:space="preserve">header_contigs</tspan></text></g></g><g transform="translate(999.43359375, 901.5)" data-id="chain_file2" data-node="true" id="flowchart-chain_file2-15" class="node default input flowchart-label"><rect height="35" width="99.453125" y="-17.5" x="-49.7265625" ry="17.5" rx="17.5" style=""/><g transform="translate(0, -10)" style="" class="label"><rect/><text style=""><tspan class="row" x="0" dy="1em" xml:space="preserve">chain_file</tspan></text></g></g><g transform="translate(795.31640625, 1181.3999977111816)" data-id="gnomad_rds" data-node="true" id="flowchart-gnomad_rds-17" class="node default input flowchart-label"><rect height="35" width="122.171875" y="-17.5" x="-61.0859375" ry="17.5" rx="17.5" style=""/><g transform="translate(0, -10)" style="" class="label"><rect/><text style=""><tspan class="row" x="0" dy="1em" xml:space="preserve">gnomad_rds</tspan></text></g></g><g transform="translate(843.359375, 1334.3999977111816)" data-id="r_extract_sv" data-node="true" id="flowchart-r_extract_sv-18" class="node default R flowchart-label"><rect height="34" width="220.8125" y="-17" x="-110.40625" ry="0" rx="0" style="" class="basic label-container"/><g transform="translate(0, -9.5)" style="" class="label"><rect/><text style=""><tspan class="row" x="0" dy="1em" xml:space="preserve">extract-VCF-features-SV.R</tspan></text></g></g><g transform="translate(891.40234375, 1079.7999992370605)" data-id="r_liftover" data-node="true" id="flowchart-r_liftover-12" class="node default R flowchart-label"><rect height="34" width="170.9375" y="-17" x="-85.46875" ry="0" rx="0" style="" class="basic label-container"/><g transform="translate(0, -9.5)" style="" class="label"><rect/><text style=""><tspan class="row" x="0" dy="1em" xml:space="preserve">liftover-Delly2-vcf.R</tspan></text></g></g><g transform="translate(232.65625, -8)" class="root"><g class="clusters"><g id="legend" class="cluster default flowchart-label"><rect height="288" width="626.4375" y="8" x="8" ry="0" rx="0" style=""/><g transform="translate(321.21875, 8)" class="cluster-label"><g><rect class="background"/><text y="-10.1"><tspan dy="1.1em" y="-0.1em" x="0" class="text-outer-tspan"><tspan font-weight="bold" class="text-inner-tspan" font-style="normal">Legend</tspan></tspan></text></g></g></g></g><g class="edgePaths"/><g class="edgeLabels"/><g class="nodes"><g transform="translate(25.5, 35)" class="root"><g class="clusters"><g id="nodes" class="cluster default flowchart-label"><rect height="84" width="576.4375" y="8" x="8" ry="0" rx="0" style=""/><g transform="translate(296.21875, 8)" class="cluster-label"><g><rect class="background"/><text y="-10.1"><tspan dy="1.1em" y="-0.1em" x="0" class="text-outer-tspan"><tspan font-weight="bold" class="text-inner-tspan" font-style="normal">Nodes</tspan></tspan></text></g></g></g></g><g class="edgePaths"/><g class="edgeLabels"/><g class="nodes"><g transform="translate(95.1484375, 50)" data-id="input" data-node="true" id="flowchart-input-0" class="node default input flowchart-label"><polygon style="" transform="translate(-44.1484375,17)" class="label-container" points="0,0 88.296875,0 88.296875,-34 0,-34 0,0 -8,0 96.296875,0 96.296875,-34 -8,-34 -8,0"/><g transform="translate(0, -9.5)" style="" class="label"><rect/><text style=""><tspan class="row" x="0" dy="1em" xml:space="preserve">Input File</tspan></text></g></g><g transform="translate(290.3515625, 50)" data-id="input_node" data-node="true" id="flowchart-input_node-1" class="node default input flowchart-label"><rect height="34" width="186.109375" y="-17" x="-93.0546875" ry="17" rx="17" style=""/><g transform="translate(0, -9.5)" style="" class="label"><rect/><text style=""><tspan class="row" x="0" dy="1em" xml:space="preserve">Parameterized Input</tspan></text></g></g><g transform="translate(491.421875, 50)" data-id="output" data-node="true" id="flowchart-output-2" class="node default output flowchart-label"><polygon style="" transform="translate(-50.015625,17)" class="label-container" points="0,0 100.03125,0 100.03125,-34 0,-34 0,0 -8,0 108.03125,0 108.03125,-34 -8,-34 -8,0"/><g transform="translate(0, -9.5)" style="" class="label"><rect/><text style=""><tspan class="row" x="0" dy="1em" xml:space="preserve">Output file</tspan></text></g></g></g></g><g transform="translate(37.8359375, 169)" class="root"><g class="clusters"><g id="processes" class="cluster default flowchart-label"><rect height="84" width="551.765625" y="8" x="8" ry="0" rx="0" style=""/><g transform="translate(283.8828125, 8)" class="cluster-label"><g><rect class="background"/><text y="-10.1"><tspan dy="1.1em" y="-0.1em" x="0" class="text-outer-tspan"><tspan font-weight="bold" class="text-inner-tspan" font-style="normal">Processes</tspan></tspan></text></g></g></g></g><g class="edgePaths"/><g class="edgeLabels"/><g class="nodes"><g transform="translate(71.9375, 50)" data-id="gatk_docker" data-node="true" id="flowchart-gatk_docker-3" class="node default gatk flowchart-label"><rect height="34" width="57.875" y="-17" x="-28.9375" ry="0" rx="0" style="" class="basic label-container"/><g transform="translate(0, -9.5)" style="" class="label"><rect/><text style=""><tspan class="row" x="0" dy="1em" xml:space="preserve">GATK</tspan></text></g></g><g transform="translate(189.84375, 50)" data-id="bcftools_docker" data-node="true" id="flowchart-bcftools_docker-4" class="node default bcftools flowchart-label"><rect height="34" width="77.9375" y="-17" x="-38.96875" ry="0" rx="0" style="" class="basic label-container"/><g transform="translate(0, -9.5)" style="" class="label"><rect/><text style=""><tspan class="row" x="0" dy="1em" xml:space="preserve">bcftools</tspan></text></g></g><g transform="translate(314.1640625, 50)" data-id="r_docker" data-node="true" id="flowchart-r_docker-5" class="node default R flowchart-label"><rect height="34" width="70.703125" y="-17" x="-35.3515625" ry="0" rx="0" style="" class="basic label-container"/><g transform="translate(0, -9.5)" style="" class="label"><rect/><text style=""><tspan class="row" x="0" dy="1em" xml:space="preserve">Rscript</tspan></text></g></g><g transform="translate(462.140625, 50)" data-id="linux_docker" data-node="true" id="flowchart-linux_docker-6" class="node default linux flowchart-label"><rect height="34" width="125.25" y="-17" x="-62.625" ry="0" rx="0" style="" class="basic label-container"/><g transform="translate(0, -9.5)" style="" class="label"><rect/><text style=""><tspan class="row" x="0" dy="1em" xml:space="preserve">Generic Linux</tspan></text></g></g></g></g></g></g><g transform="translate(553.375, 355)" data-id="input_vcf" data-node="true" id="flowchart-input_vcf-8" class="node default input flowchart-label"><polygon style="" transform="translate(-46.421875,17)" class="label-container" points="0,0 92.84375,0 92.84375,-34 0,-34 0,0 -8,0 100.84375,0 100.84375,-34 -8,-34 -8,0"/><g transform="translate(0, -9.5)" style="" class="label"><rect/><text style=""><tspan class="row" x="0" dy="1em" xml:space="preserve">Input VCF</tspan></text></g></g><g transform="translate(553.375, 439)" data-id="pipeval" data-node="true" id="flowchart-pipeval-9" class="node default linux flowchart-label"><rect height="34" width="73.328125" y="-17" x="-36.6640625" ry="0" rx="0" style="" class="basic label-container"/><g transform="translate(0, -9.5)" style="" class="label"><rect/><text style=""><tspan class="row" x="0" dy="1em" xml:space="preserve">pipeval</tspan></text></g></g><g transform="translate(553.375, 523)" data-id="sv_vs_snv" data-node="true" id="flowchart-sv_vs_snv-10" class="node default default flowchart-label"><polygon style="" transform="translate(-69.5390625,17)" class="label-container" points="8.5,0 130.578125,0 139.078125,-17 130.578125,-34 8.5,-34 0,-17"/><g transform="translate(0, -9.5)" style="" class="label"><rect/><text style=""><tspan class="row" x="0" dy="1em" xml:space="preserve">Variant Type?</tspan></text></g></g><g transform="translate(615.64453125, 1476.599998474121)" data-id="joinpaths" data-node="true" id="flowchart-joinpaths-44" class="node default default flowchart-label"><polygon style="" transform="translate(-15,15)" class="label-container" points="15,0 30,-15 15,-30 0,-15"/><g transform="translate(0, 0)" style="" class="label"><rect/><text style=""><tspan class="row" x="0" dy="1em" xml:space="preserve"/></text></g></g><g transform="translate(656.58984375, 1879.1999969482422)" data-id="output_vcfs" data-node="true" id="flowchart-output_vcfs-56" class="node default output flowchart-label"><polygon style="" transform="translate(-57.6640625,17)" class="label-container" points="0,0 115.328125,0 115.328125,-34 0,-34 0,0 -8,0 123.328125,0 123.328125,-34 -8,-34 -8,0"/><g transform="translate(0, -9.5)" style="" class="label"><rect/><text style=""><tspan class="row" x="0" dy="1em" xml:space="preserve">Output VCFs</tspan></text></g></g></g></g></g></svg>